<?xml version="1.0" encoding="UTF-8"?>
<svg width="17px" height="19px" viewBox="0 0 17 19" version="1.1" xmlns="http://www.w3.org/2000/svg" xmlns:xlink="http://www.w3.org/1999/xlink">
    <!-- Generator: Sketch 48.2 (47327) - http://www.bohemiancoding.com/sketch -->
    <title>Shape</title>
    <desc>Created with Sketch.</desc>
    <defs></defs>
    <g id="Desktop-HD" stroke="none" stroke-width="1" fill="none" fill-rule="evenodd" transform="translate(-874.000000, -454.000000)">
        <path d="M880.828711,472 C880.711574,472 880.598707,471.949607 880.511464,471.858536 C880.425442,471.768679 880.376635,471.650286 880.376635,471.533107 C880.376635,471.278714 880.583455,471.0735 880.848234,471.066821 C881.064205,471.06075 881.280787,471.057107 881.496758,471.057107 L881.767028,471.055286 C881.856101,471.055286 881.945784,471.057107 882.033637,471.064393 L882.169076,471.075929 L882.169076,470.545893 C882.170297,470.191321 882.173957,469.837964 882.182498,469.482179 C882.183109,469.439679 882.197751,469.39475 882.213613,469.348 L882.253269,469.226571 L882.129421,469.191964 C881.706629,469.072357 881.291158,468.890214 880.88972,468.712929 L880.791495,468.670429 C880.501093,468.543536 880.256447,468.411179 880.042306,468.266679 C879.789119,468.097286 879.542643,467.917571 879.296167,467.739071 C878.997833,467.522929 878.711091,467.304357 878.485358,467.002 C878.331616,466.797393 878.210818,466.562429 878.093681,466.334143 L877.981425,466.116786 C877.849036,465.862393 877.711766,465.5995 877.60622,465.33175 C877.545821,465.176321 877.493354,465.020286 877.449427,464.859393 C877.409161,464.710643 877.389028,464.554 877.369506,464.400393 L877.361574,464.338464 C877.321308,464.026393 877.298125,463.711893 877.275552,463.398 C877.257249,463.139964 877.238336,462.881929 877.210272,462.625107 L877.164516,462.331857 C877.143773,462.208 877.144993,462.115714 877.167566,462.034357 L877.19807,461.9275 L877.094355,461.887429 C876.942443,461.827321 876.792361,461.765393 876.642889,461.701036 C876.530633,461.653071 876.110892,461.463036 876.110892,461.463036 C875.954709,461.392607 875.811338,461.304571 875.665527,461.215929 L875.558151,461.150964 C875.395257,461.055036 875.2769,460.966393 875.184776,460.869857 C874.990158,460.673143 874.943791,460.377464 875.07191,460.149179 C875.153662,460.00225 875.303134,459.873536 875.434913,459.76 C875.752159,459.489214 876.110282,459.243929 876.456202,459.007143 L876.573339,458.927 C876.984539,458.643464 877.409161,458.369643 877.836224,458.111 C877.874659,458.087321 877.919806,458.070929 877.974104,458.058786 L878.039993,458.044214 L878.090631,457.894857 C878.366391,457.302893 878.725734,456.631393 879.295557,456.140214 C879.496276,455.967179 879.731771,455.772286 879.984347,455.653286 C880.170425,455.565857 880.359552,455.481464 880.55295,455.409821 C880.939137,455.266536 881.241741,455.174857 881.535804,455.1105 C881.870743,455.036429 882.189819,455 882.485103,455 C882.802349,455 883.100683,455.043107 883.370952,455.128107 C883.705891,455.231929 884.009105,455.366714 884.274494,455.528821 C884.407493,455.610786 884.537442,455.697607 884.664951,455.789893 C884.859569,455.928929 885.013922,456.038821 885.128619,456.167536 C885.392177,456.463214 885.608759,456.797143 885.770432,457.160214 C885.899161,457.448 886.023619,457.74125 886.134046,458.0345 C886.218238,458.260964 886.322563,458.5615 886.386012,458.879643 C886.43848,459.140714 886.473865,459.406036 886.50803,459.669536 L886.526943,459.808571 L886.526333,459.808571 C886.563548,460.090286 886.598323,460.372 886.631878,460.654321 L886.705089,461.249321 C886.768538,461.649429 886.830157,461.952393 886.905808,462.235321 C886.979019,462.512179 887.05284,462.782964 887.155945,463.048893 C887.237087,463.217071 887.342632,463.425321 887.479902,463.622036 C887.570805,463.7295 887.658658,463.820571 887.757493,463.906786 L887.890492,464.000286 C887.962483,464.050071 888.035083,464.099857 888.105243,464.153286 C888.185165,464.211571 888.229702,464.244357 888.269967,464.282 C888.291931,464.31175 888.325486,464.35425 888.35782,464.399179 C888.412728,464.4775 888.432861,464.637786 888.400527,464.743429 C888.374903,464.828429 888.329756,464.908571 888.257156,464.997821 L888.166862,465.108929 L888.2901,465.181179 C888.496311,465.302607 888.701911,465.422214 888.918492,465.526643 C889.066744,465.581893 889.204014,465.624393 889.348605,465.653536 C889.491366,465.682679 889.600572,465.704536 889.711608,465.754321 C889.837896,465.810179 889.948323,465.9395 889.980657,466.067607 C890.075221,466.447679 889.801291,466.862964 889.629856,467.075464 C889.481604,467.260036 889.293697,467.440357 889.020377,467.661357 C888.754988,467.875071 888.465196,468.097286 888.141849,468.275179 C887.87402,468.4215 887.598259,468.549607 887.322499,468.6765 L887.12483,468.767571 C886.880795,468.879286 886.636759,468.992821 886.384182,469.0845 C885.777143,469.309143 885.102385,469.361964 884.52158,469.383821 L884.415425,469.388679 C884.197623,469.397786 883.980431,469.406893 883.762629,469.406893 L883.602786,469.405071 C883.482598,469.402036 883.363021,469.3905 883.244053,469.379571 L883.112884,469.366821 L883.08665,469.495536 L883.079939,469.695286 C883.070788,469.96 883.061637,470.224107 883.058586,470.488214 C883.056146,470.758393 883.053706,471.003679 883.077499,471.2435 L883.101293,471.427464 C883.113494,471.527643 883.041504,471.66 882.968293,471.734071 C882.884101,471.817857 882.766964,471.865821 882.647386,471.865821 L882.495474,471.831821 L882.394809,471.922893 C882.3277,471.96175 882.25876,471.980571 882.177008,471.980571 C882.139182,471.980571 882.100746,471.976321 882.061091,471.969643 L881.943343,471.966607 C881.834748,471.966607 881.725542,471.970857 881.617556,471.975107 L880.828711,472 Z M878.554909,458.656821 L878.530505,458.716929 C878.484138,458.828643 878.418249,458.910607 878.332226,458.962214 C877.680651,459.353214 876.99186,459.774571 876.354317,460.254821 L876.132855,460.433929 L876.292698,460.521964 C876.489147,460.630036 876.694137,460.72475 876.900957,460.813393 L877.238946,460.956679 C877.481762,461.052607 877.681261,461.114536 877.88198,461.177071 C878.134557,461.255393 878.279758,461.507357 878.212039,461.750214 C878.201057,461.790286 878.174823,461.830357 878.147369,461.87225 L878.112594,461.925071 L878.135777,461.983964 C878.216919,462.442964 878.260236,462.839429 878.284639,463.243786 C878.302942,463.540679 878.324905,463.837571 878.35846,464.13325 C878.379203,464.282 878.400556,464.428321 878.442042,464.568571 C878.484138,464.713679 878.532945,464.853321 878.587243,464.991143 C878.70011,465.222464 878.816637,465.44225 878.933164,465.661429 L879.016746,465.818071 C879.122902,466.016607 879.229057,466.21575 879.355956,466.402143 C879.479194,466.541179 879.608533,466.660179 879.785458,466.80225 C880.117347,467.051179 880.430323,467.286143 880.759771,467.487107 C881.047733,467.663786 881.360708,467.800393 881.663313,467.932143 C881.995201,468.06875 882.246558,468.158 882.487543,468.226 C882.750491,468.299464 883.0171,468.343786 883.22087,468.37475 C883.502731,468.397214 883.777271,468.406929 884.053642,468.406929 C884.44959,468.406929 884.854079,468.385071 885.255517,468.342571 C885.445255,468.312821 885.627672,468.280643 885.808258,468.238143 C886.031551,468.188964 886.239591,468.105786 886.423838,468.032321 C886.423838,468.032321 886.547076,467.980107 886.57514,467.967964 C887.12239,467.736036 887.74041,467.443393 888.293761,467.033571 C888.473127,466.8915 888.653714,466.747 888.817827,466.589143 L888.961809,466.450107 L888.772071,466.384536 C888.645172,466.340214 888.518884,466.289821 888.396256,466.231536 C888.201637,466.141071 888.01556,466.038464 887.828873,465.935857 C887.778846,465.908536 887.728818,465.881214 887.679401,465.853286 C887.592769,465.805321 887.519558,465.734286 887.443907,465.670536 L887.369476,465.73125 L887.312738,465.774964 C887.250509,465.823536 887.18889,465.872107 887.12422,465.91825 C886.562328,466.31775 885.989454,466.577607 885.422682,466.689321 C885.108486,466.751857 884.775987,466.783429 884.408103,466.785857 C884.259242,466.785857 884.11099,466.781 883.962738,466.769464 C883.785202,466.754286 883.611327,466.737286 883.451484,466.696 C883.130577,466.611 882.80845,466.472571 882.505846,466.338393 C882.268521,466.233357 882.033027,466.121036 881.801193,466.006286 C881.23442,465.723964 880.729266,465.201821 880.380295,464.537 C880.243025,464.275321 880.321117,463.972357 880.562102,463.8315 C880.636533,463.787786 880.725606,463.764714 880.820169,463.764714 C881.014788,463.764714 881.184393,463.859429 881.263094,464.01 C881.346676,464.1715 881.43697,464.326321 881.542515,464.474464 C881.684666,464.640214 881.833527,464.805357 882.004352,464.951071 C882.211783,465.09375 882.426534,465.201214 882.633964,465.30625 C882.915215,465.447714 883.165962,465.564893 883.419149,465.676 C883.523474,465.719107 883.627189,465.759179 883.732125,465.784071 C883.8395,465.810786 883.946266,465.832036 884.053032,465.849643 C884.255581,465.868464 884.448369,465.878179 884.641157,465.878179 C884.79795,465.878179 884.953523,465.872107 885.110926,465.858143 C885.421461,465.806536 885.692951,465.736714 885.949189,465.642607 C886.392723,465.45075 886.747795,465.195143 887.075413,464.945607 L887.361545,464.730071 L887.131541,464.561286 C886.955225,464.425893 886.794162,464.25225 886.652011,464.044607 C886.411636,463.694286 886.226169,463.279 886.084018,462.774464 C885.978473,462.396214 885.89245,461.987607 885.814359,461.48975 C885.769822,461.195893 885.735657,460.899607 885.702713,460.603929 L885.650245,460.155857 L885.627672,459.988893 C885.578864,459.624607 885.528837,459.246357 885.437324,458.88025 C885.3452,458.505036 885.192678,458.141964 885.045036,457.79225 C884.894344,457.450429 884.746093,457.180857 884.574658,456.94225 C884.477044,456.829321 884.380039,456.737036 884.275104,456.648393 C884.006665,456.452893 883.735175,456.290786 883.439282,456.1475 C883.228191,456.067964 883.031132,456.010893 882.825532,455.969 C882.708395,455.95625 882.60468,455.948964 882.497914,455.948964 C882.367966,455.949571 882.255709,455.959893 882.142843,455.971429 C881.883555,456.009679 881.613285,456.057643 881.352777,456.145071 C881.119113,456.222786 880.88911,456.309607 880.660936,456.401893 C880.460217,456.497821 880.302814,456.58525 880.160053,456.682393 C879.964825,456.843893 879.79888,457.00175 879.643308,457.173571 C879.52495,457.335071 879.398052,457.516607 879.295557,457.7115 C879.171709,457.945857 879.058232,458.182643 878.948416,458.422464 C878.902049,458.525071 878.762339,458.611893 878.645202,458.639214 L878.554909,458.656821 Z M881.278956,458.671393 C881.055664,458.671393 880.867756,458.484393 880.867756,458.262179 C880.867756,458.039964 881.056274,457.853571 881.278956,457.853571 C881.501639,457.853571 881.690157,458.040571 881.690157,458.262786 C881.690157,458.485 881.502249,458.671393 881.278956,458.671393 Z" id="Shape" stroke="#EA612D" stroke-width="0.609" fill="#EA612D" fill-rule="nonzero"></path>
    </g>
</svg>