<svg width="32" height="25" viewBox="0 0 32 25" fill="none" xmlns="http://www.w3.org/2000/svg">
<path fill-rule="evenodd" clip-rule="evenodd" d="M19.6875 24.6445L19.8457 24.6738C19.9062 24.6836 19.9688 24.6895 20.0332 24.6934L20.2168 24.6992C20.5215 24.6992 20.834 24.6504 21.1465 24.5527C21.4824 24.4434 21.7598 24.291 21.9746 24.0996C22.209 23.8887 22.373 23.6289 22.5156 23.2363C22.5723 23.0781 22.5938 22.873 22.5742 22.6426C22.5664 22.541 22.5508 22.4395 22.5273 22.3379C22.4922 22.1934 22.4395 22.0469 22.3711 21.9023C22.2324 21.6113 22.0156 21.3359 21.6934 21.0352L21.5176 20.8809L21.4121 20.7891L21.2246 20.6348L21.0391 20.4844L20.9102 20.3828L21.1934 20.2305L21.2949 20.1777L21.4062 20.1172C21.6367 19.9785 21.8613 19.8242 22.084 19.668L22.5371 19.3594L23.082 19.0078C23.1758 18.9473 23.2676 18.8828 23.3574 18.8145C23.498 18.707 23.6367 18.5938 23.7754 18.4805C24.123 18.1934 24.4648 17.8906 24.7969 17.584C25.0977 17.3066 25.377 17.0059 25.6562 16.7051L25.9883 16.3516L26.2949 16.0391L26.3613 16.166C26.5371 16.502 26.7598 16.8418 27.0625 17.2344C27.3066 17.5547 27.5664 17.8398 27.8555 18.1094C28.0586 18.2969 28.2715 18.4746 28.4824 18.6504L28.5645 18.7207L28.8594 18.9688C29.0762 19.1504 29.248 19.2266 29.4551 19.2266C29.6777 19.2266 29.8867 19.1367 30.0449 18.9766C30.1992 18.8164 30.2891 18.5957 30.2832 18.3438L30.2578 18.2422L30.2988 18.1973C30.334 18.1582 30.3652 18.1211 30.3887 18.084L30.4238 18.0195C30.4375 17.9922 30.4492 17.9648 30.457 17.9355L30.4688 17.8828C30.5195 17.6133 30.584 17.3496 30.6484 17.0859L30.7598 16.6113L30.8145 16.3535C30.834 16.2578 30.8496 16.1602 30.8613 16.0605C30.8848 15.875 30.8945 15.6816 30.8926 15.4766C30.8926 15.2266 30.873 14.9609 30.8359 14.6719C30.7617 14.0684 30.6719 13.5312 30.3672 13.0723L30.1914 12.8242L30.2832 12.7617L30.3691 12.7012L30.4785 12.6133C31.0137 12.1465 31.0898 11.4336 31.166 10.7305L31.1777 10.5742L31.1855 10.4766C31.1953 10.3789 31.1992 10.2812 31.1992 10.1836V10.1016C31.1934 9.84766 31.1523 9.58984 31.1074 9.29883C31.0469 8.91602 30.9629 8.53711 30.8672 8.14062C30.8438 8.05273 30.8223 7.96289 30.793 7.875C30.7188 7.64648 30.6328 7.41992 30.4844 7.28711C30.3711 7.18359 30.2617 7.10742 30.1484 7.05859C30.0469 7.01367 29.9453 6.99219 29.8398 6.99219L29.748 7L29.6582 7.01367L29.5996 7.02539C29.4727 7.05664 29.3457 7.10742 29.1992 7.18555C28.7695 7.41406 28.3652 7.75 27.9902 8.08008C27.6738 8.35742 27.3984 8.67383 27.0938 9.0293C26.9707 9.17383 26.8555 9.33008 26.7441 9.50391C26.6602 9.63281 26.5781 9.77148 26.5 9.92188L26.3945 10.127L26.3223 10.2754L26.0898 9.99023L25.8965 9.74805L25.6211 9.37891C25.5234 9.25 25.4258 9.12109 25.3242 8.99609C25.2148 8.85938 25.1016 8.72656 24.9844 8.5957C24.6016 8.16797 24.1562 7.80469 23.8125 7.53516C23.4785 7.27539 23.0957 7.0332 22.6074 6.76953L22.5059 6.63672L22.6758 6.54102L22.8008 6.46875C22.8477 6.44141 22.8926 6.41211 22.9355 6.38086C23.1406 6.22266 23.3359 6.03906 23.5645 5.78125C23.8867 5.41797 24.6055 4.46484 24.2793 3.43945C24.1738 3.11719 23.9629 2.83984 23.6309 2.58984L23.4766 2.48047C23.3008 2.36719 23.1133 2.30273 22.8691 2.27148L22.8105 2.26758L22.7285 2.26367C22.5332 2.26367 22.3184 2.3125 22.0527 2.41797C21.873 2.49023 21.6934 2.57422 21.5293 2.67383C21.2246 2.86328 20.9668 3.06445 20.7422 3.28711C20.5938 3.43945 20.4688 3.61719 20.3457 3.79297L20.2363 3.94727C20.125 4.10156 20.0234 4.26172 19.9297 4.42383C19.7637 4.70898 19.6191 5 19.4844 5.2793L19.4492 5.35742L19.3652 5.33594L19.0449 5.25977L18.7305 5.19727C18.4453 5.14258 18.1582 5.11133 17.8711 5.08008L17.8086 5.07227L17.7852 5.01172C17.6348 4.625 17.4551 4.17969 17.2324 3.76953C17.2051 3.71875 17.1758 3.66992 17.1426 3.61914L16.9102 3.28125C16.7383 3.0332 16.5586 2.78516 16.3594 2.56055C16.209 2.38867 16.0527 2.22461 15.8848 2.06445C15.7207 1.90625 15.5488 1.75195 15.3652 1.59766C15.2129 1.4707 15.0488 1.35156 14.8672 1.23828C14.7383 1.15625 14.6016 1.07812 14.4551 1.00195C14.3184 0.931641 14.1738 0.863281 14.0195 0.794922C13.0469 0.371094 12.0078 0.191406 11.0312 0.0625C10.7578 0.0234375 10.4824 0 10.209 0C9.97266 0 9.73633 0.0175781 9.50195 0.0585938C9.30469 0.09375 9.07422 0.136719 8.83203 0.195312C8.62695 0.244141 8.41211 0.304688 8.20117 0.380859C8.02344 0.443359 7.8418 0.513672 7.6582 0.591797C7.47266 0.669922 7.28711 0.755859 7.10156 0.847656C6.94336 0.927734 6.78711 1.01953 6.62695 1.13086L6.46875 1.24219L6.33789 1.3457C6.23047 1.43359 6.11914 1.53125 6.00195 1.63672C5.75391 1.86133 5.52539 2.125 5.30469 2.44336C5.20117 2.58789 5.10352 2.75195 5.01172 2.93359C4.89844 3.15625 4.79492 3.40234 4.70508 3.66797C4.58203 4.03125 4.49219 4.39844 4.41602 4.78516C4.36914 5.01562 4.32812 5.25391 4.28711 5.50195C4.23438 5.80273 4.1875 6.10352 4.14453 6.40625C4.13086 6.49219 4.09766 6.80273 4.09766 6.80273L4.06445 6.88477L3.98828 6.89844C3.79688 6.93555 3.60547 6.98438 3.41797 7.04492C3.00391 7.18164 2.58203 7.4043 2.1582 7.70312C2.07812 7.75977 2 7.81836 1.92188 7.88086L1.76953 8.00781L1.63672 8.12695C1.40625 8.33984 1.19141 8.57812 0.996094 8.83203C0.90625 8.94922 0.820312 9.07031 0.740234 9.19336C0.613281 9.38867 0.496094 9.5918 0.392578 9.80078C0.339844 9.90625 0.292969 10.0156 0.251953 10.127C0.201172 10.2656 0.15625 10.4102 0.121094 10.5625C0.0683594 10.7793 0.03125 11.0098 0.00976562 11.2617C-0.0234375 11.6074 0.0273438 11.9609 0.154297 12.2773C0.171875 12.3242 0.191406 12.3691 0.212891 12.4141C0.40625 12.8184 0.728516 13.0898 1.09766 13.3809C1.39648 13.6152 1.74805 13.791 2.14844 13.9082C2.54297 14.0215 2.98633 14.0781 3.47656 14.0781L3.75391 14.0723C3.9375 14.0645 4.12109 14.0371 4.30469 14.0078C4.53125 13.9727 4.75391 13.8867 4.97852 13.7461C5.08008 13.6836 5.18164 13.6113 5.2832 13.5273C5.43164 13.4023 5.56641 13.2676 5.68555 13.1211C5.79102 12.9883 5.88281 12.8477 5.96289 12.6992C6.23242 12.1895 6.36328 11.5371 6.35352 10.7578C6.34766 10.2773 6.25586 9.79297 6.14062 9.32812L6.01953 8.87109C5.94141 8.57617 5.87109 8.28125 5.80078 7.98633L5.6875 7.48047L5.70703 7.34375L5.72656 7.18555L5.75 6.98438C5.80078 6.62109 5.86133 6.25586 5.91992 5.89258L5.98633 5.49219C6.08203 4.88672 6.19922 4.4082 6.35352 3.97656C6.41797 3.83594 6.48438 3.69922 6.55664 3.5625C6.61914 3.44922 6.6875 3.33594 6.76367 3.22266C6.93945 3.02148 7.13281 2.8418 7.34375 2.66602C7.56836 2.50586 7.82227 2.36719 8.16992 2.20898C8.44141 2.10352 8.71289 2.00195 8.99414 1.93359C9.26562 1.86914 9.53516 1.81445 9.81836 1.76562L9.95312 1.75977L10.1934 1.75391C10.502 1.75391 10.8066 1.77734 11.1191 1.81641C11.4824 1.875 11.8242 1.94336 12.1465 2.02148C12.3848 2.08008 12.6133 2.14258 12.834 2.21289C13.041 2.27734 13.2402 2.34766 13.4316 2.42383C13.7266 2.56641 14.0078 2.73047 14.3008 2.93359C14.7344 3.29492 15.0996 3.66211 15.4277 4.06641C15.5898 4.29688 15.7402 4.55273 15.8867 4.85156L15.8418 5.00195L15.6797 5.00977C14.748 5.0625 13.791 5.27344 12.75 5.65234C12.2773 5.82617 11.8086 6.06836 11.3164 6.39844C10.7734 6.75977 10.332 7.1875 10.0039 7.67383L9.96094 7.74219L9.92188 7.8125L9.83984 7.97656L9.73633 8.2207C9.66992 8.38086 9.60938 8.54297 9.55469 8.70703L9.49609 8.89648L9.45703 9.03125C9.36328 9.375 9.29883 9.72461 9.25195 10.0449L9.20898 10.3828L9.18359 10.625C9.0918 11.4629 9.06836 12.2871 9.04883 13.1992L9.04102 13.7285C9.04102 13.7285 8.43359 13.709 8.21094 13.707C8.09375 13.6523 7.97656 13.625 7.86133 13.625C7.38867 13.625 7.00195 14.0234 6.98242 14.5312C6.9668 14.959 6.98633 15.3848 7.04492 15.8359L7.05078 15.8594C7.08594 16.1387 7.12305 16.4238 7.1875 16.7051C7.21289 16.8184 7.24219 16.9316 7.27734 17.041L7.31055 17.1328C7.32617 17.1797 7.3418 17.2266 7.36133 17.2734C7.4043 17.3789 7.44922 17.4824 7.49609 17.582C7.54492 17.6914 7.5957 17.7988 7.64844 17.9023L7.71875 18.0332L7.84375 18.2539L7.98047 18.4746L8.12891 18.6895C8.42188 19.1035 8.75195 19.4805 9.13477 19.8398C9.84766 20.502 10.7266 21.0293 11.6738 21.3633C12.0703 21.502 12.5039 21.5879 12.9492 21.6719C13.4805 21.7715 14.0137 21.8359 14.5312 21.8672L14.9062 21.8848L15.123 21.8906L15.5039 21.8965C16.25 21.8965 16.9043 21.834 17.5039 21.7012C17.5488 21.6914 17.8887 21.5957 17.8887 21.5957L17.8906 21.7305C17.9023 22.3555 17.9648 22.8203 18.0957 23.2344C18.291 23.8457 18.7715 24.3301 19.418 24.5664C19.5059 24.5977 19.5957 24.623 19.6875 24.6445ZM19.6211 21.8555L19.6191 21.5332L19.6211 21.3359L19.7812 21.4414L19.8457 21.4863C19.9707 21.5684 20.0918 21.6543 20.2129 21.7461C20.3848 21.8848 20.5645 22.0312 20.7363 22.1992C20.8086 22.2715 20.8809 22.3477 20.9512 22.4277L21.0039 22.5195L21.043 22.5957L21.0742 22.7129L21.0508 22.8359L20.9609 22.9336L20.8457 22.9961C20.7266 23.0352 20.6074 23.0645 20.416 23.0938C20.3301 23.0938 20.2441 23.0879 20.1445 23.0781L20.041 23.0488C19.9746 23.0137 19.9102 22.9746 19.7754 22.8633L19.7207 22.7598C19.6895 22.6562 19.6719 22.5508 19.6523 22.4355C19.6348 22.2422 19.625 22.0488 19.6211 21.8555ZM8.76172 15.7246C8.82031 16.123 8.89844 16.4414 9.00586 16.7363C9.17383 17.1035 9.38672 17.4688 9.64258 17.8281C9.72656 17.9316 9.8125 18.0332 9.90234 18.1328C9.98438 18.2227 10.0684 18.3105 10.1562 18.3984C10.2832 18.5254 10.416 18.6484 10.5547 18.7676C10.9668 19.0762 11.4082 19.3418 11.873 19.5605C12.4062 19.7734 13 19.9238 13.7461 20.0352C14.0352 20.0645 14.3105 20.0879 14.5781 20.1035L14.8809 20.1211L15.1523 20.1289L15.5449 20.1348C15.9141 20.1348 16.2832 20.1211 16.6504 20.0898C17.1289 20.0117 17.5996 19.9004 18.0605 19.7559L18.3926 19.6465C18.5488 19.5918 18.7031 19.5332 18.8574 19.4707C19.3809 19.2344 20.0547 18.9121 20.6797 18.4883L21.0762 18.2129L21.1641 18.1543C21.3203 18.0449 21.4766 17.9336 21.6367 17.8301L21.8516 17.6953L21.9043 17.6602L21.9219 17.6484L21.9395 17.6367C22.1035 17.5312 22.2656 17.4277 22.4219 17.3105C23.1094 16.7461 23.7383 16.1641 24.2988 15.5781L24.3691 15.5078L24.7656 15.0977L25.0273 14.8359L25.207 14.6641C25.3438 14.5371 25.4805 14.4062 25.6035 14.2656C25.6348 14.2246 25.666 14.1875 25.6973 14.1543C25.7363 14.1113 25.7773 14.0742 25.8203 14.043C25.8984 13.9863 25.9805 13.9453 26.0703 13.918C26.1426 13.8984 26.2168 13.8867 26.291 13.8867C26.3516 13.8867 26.4121 13.8945 26.4707 13.9082C26.5137 13.916 26.5547 13.9277 26.5957 13.9434C26.6387 13.9609 26.6797 13.9805 26.7188 14.0039L26.7891 14.0195C26.9043 14.0449 26.9766 14.0605 27.0391 14.0957C27.2168 14.2031 27.3027 14.3555 27.3848 14.5664C27.418 14.6465 27.4453 14.7285 27.4727 14.8105L27.4844 14.8555L27.502 14.9082L27.5664 15.1172C27.6875 15.3691 27.8379 15.6152 28.0449 15.9004C28.291 16.2168 28.5762 16.5195 28.9199 16.8301L29.0488 16.9473L29.1406 16.5723C29.1973 16.3398 29.2539 16.1074 29.2988 15.873C29.3242 15.543 29.3027 15.2324 29.2637 14.8652C29.2324 14.6465 29.1836 14.3652 29.0918 14.0918C29.0645 14.0391 29.0371 13.9902 29.0078 13.9434L28.9609 13.8672L28.8535 13.7129C28.7422 13.5762 28.627 13.4551 28.502 13.3398C28.3984 13.2461 28.293 13.1426 28.209 13.0293C28.0918 12.873 28.0137 12.6953 28.0254 12.4961C28.0469 12.1406 28.2012 11.8574 28.4531 11.7207C28.5664 11.6582 28.6914 11.6074 28.8262 11.5703L29.0684 11.502L29.2402 11.4473L29.3418 11.3867L29.4102 11.3027C29.4316 11.2344 29.4492 11.168 29.4629 11.1016C29.4883 10.9902 29.5059 10.8828 29.5215 10.7734C29.5527 10.5469 29.5781 10.3223 29.582 10.0977L29.5781 9.91016L29.5742 9.78711C29.5664 9.65625 29.5547 9.52734 29.541 9.39844L29.459 8.86328L29.3184 8.98242C28.8672 9.36133 28.4531 9.79102 28.0879 10.2559C27.9609 10.4609 27.8574 10.6562 27.7578 10.8633C27.6406 11.168 27.5449 11.4668 27.457 11.7734C27.4238 11.8867 27.3691 11.9902 27.2969 12.0781C27.2324 12.1543 27.1543 12.2188 27.0645 12.2695L26.9805 12.3828C26.8164 12.5527 26.5684 12.6523 26.3184 12.6523C26.0723 12.6523 25.8594 12.5586 25.7168 12.3887C25.2344 11.8125 24.7812 11.1973 24.3418 10.5996L24.1953 10.4023C24.0762 10.252 23.9512 10.1035 23.8184 9.95703C23.7207 9.84961 23.6191 9.74414 23.5137 9.63867C23.3281 9.45117 23.1309 9.26562 22.918 9.08008C22.6797 8.89453 22.4434 8.72266 22.1895 8.57227C21.8613 8.38086 21.5273 8.20508 21.1914 8.03125L20.7188 7.78906L20.2168 7.54102C19.998 7.43555 19.7773 7.33398 19.5566 7.23633C19.2305 7.10547 18.8828 6.99609 18.4922 6.90234C18.2109 6.83398 17.9082 6.77344 17.5781 6.71875C17.4043 6.69727 17.2363 6.67969 17.0723 6.66602L16.668 6.63672C16.4727 6.62695 16.2812 6.62305 16.0918 6.62305C15.7539 6.62305 15.416 6.63867 15.0781 6.67578L14.8086 6.72461C14.6484 6.75391 14.4922 6.78711 14.3359 6.82422C13.877 6.93359 13.4375 7.07227 13.0215 7.23633C12.6289 7.42383 12.2832 7.62891 11.959 7.86719C11.7637 8.0293 11.5879 8.19727 11.4277 8.38672C11.3418 8.52734 11.2773 8.65625 11.2148 8.78906L11.1289 9.04102L11.041 9.33398C10.9629 9.61914 10.9004 9.9082 10.8574 10.2012C10.8379 10.3691 10.8223 10.5352 10.8066 10.7012C10.7734 11.0879 10.748 11.4746 10.7285 11.8613C10.7129 12.1719 10.7031 12.4824 10.6992 12.793L10.6973 13.1094C10.6973 13.3008 10.6973 13.4941 10.6875 13.6836L10.6836 13.791L10.9648 13.8047C11.4453 13.8262 11.9258 13.8379 12.4062 13.8496L13.3438 13.877L14.7715 13.9297C15.7715 13.9668 16.7715 14.0059 17.7754 14.0176C18.2012 14.0215 18.5469 14.377 18.5469 14.8086C18.5469 15.1855 18.2383 15.6055 17.8262 15.6055C17.3105 15.5703 16.832 15.5586 16.3574 15.5488C16.0762 15.541 15.7949 15.5352 15.5156 15.5234L14.6973 15.4844L13.9219 15.4453L13.3242 15.4258L12.5117 15.4062C11.2891 15.3789 10.0684 15.3516 8.8457 15.3496H8.74219L8.76172 15.7246ZM3.73438 8.67383C3.89258 8.61719 4.05469 8.57031 4.21875 8.5332L4.32031 8.51172L4.51953 9.37109L4.62305 9.78906C4.66602 9.9707 4.70508 10.1562 4.73633 10.3457C4.74609 10.4668 4.75195 10.5879 4.75195 10.7148C4.75 10.8672 4.74219 11.0254 4.72656 11.1934C4.69141 11.3906 4.64258 11.5801 4.57031 11.7773C4.55273 11.8145 4.5332 11.8516 4.52344 11.9004L4.50977 11.8926L4.44336 12.0039C4.38672 12.0703 4.32422 12.1328 4.24609 12.2031L4.0957 12.2949C4.05664 12.3086 4.01758 12.3184 3.97656 12.3281L3.88281 12.3516C3.76367 12.3613 3.64258 12.3652 3.52148 12.3652C3.43164 12.3652 3.3418 12.3613 3.25 12.3555L3.00391 12.3379L2.80078 12.3008L2.64062 12.2617C2.55273 12.2383 2.46289 12.2109 2.37305 12.1797C2.30273 12.1406 2.23242 12.0996 2.16211 12.0527L2.01953 11.9531C1.92188 11.8691 1.82617 11.7773 1.71484 11.6387L1.68359 11.5098C1.67969 11.3789 1.68164 11.25 1.69531 11.1094C1.72852 10.9238 1.77344 10.7422 1.83984 10.5527C1.95117 10.3223 2.07812 10.1016 2.22852 9.88477C2.45898 9.60156 2.68945 9.35938 2.94336 9.14453C3.17773 8.9707 3.44141 8.81445 3.73438 8.67383ZM22.5586 3.79688L22.3574 3.9082C22.2559 3.9668 22.1602 4.0293 22.0684 4.09766C21.9414 4.20508 21.834 4.31055 21.7324 4.42969C21.6543 4.54102 21.5781 4.6543 21.5039 4.77344C21.3848 4.96094 21.2715 5.16016 21.1582 5.37695L21.0488 5.58789L21.2754 5.53125L21.3984 5.5C21.5312 5.46289 21.6602 5.41992 21.7891 5.37109C21.9199 5.30664 22.0332 5.24023 22.1445 5.16211C22.3281 4.99609 22.4844 4.82227 22.6348 4.64062C22.7246 4.51367 22.8008 4.38867 22.8691 4.25586L22.8887 4.18359L22.9121 4.18945L22.8906 4.17969L22.8945 4.16406L22.9297 4.02539L22.9238 3.89844L22.8418 3.80078L22.8047 3.7793L22.6992 3.75195L22.5586 3.79688ZM14.1152 11.4512C14.2285 11.5137 14.3555 11.5488 14.4902 11.5488C14.9316 11.5488 15.3047 11.166 15.3047 10.7129C15.3047 10.2617 14.9316 9.87891 14.4902 9.87891C14.0508 9.87891 13.6777 10.2617 13.6777 10.7129C13.6777 11.0273 13.8574 11.3086 14.1152 11.4512Z" fill="white"/>
</svg>
