<?xml version="1.0" encoding="UTF-8"?>
<svg width="25px" height="28px" viewBox="0 0 25 28" version="1.1" xmlns="http://www.w3.org/2000/svg" xmlns:xlink="http://www.w3.org/1999/xlink">
    <!-- Generator: Sketch 50 (54983) - http://www.bohemiancoding.com/sketch -->
    <title>Shape</title>
    <desc>Created with Sketch.</desc>
    <defs></defs>
    <g id="Symbols" stroke="none" stroke-width="1" fill="none" fill-rule="evenodd">
        <g id="Header-Bar" transform="translate(-108.000000, -31.000000)" fill="#EA612D" fill-rule="nonzero">
            <path d="M117.553868,59 C117.361868,59 117.176868,58.917 117.033868,58.767 C116.892868,58.619 116.812868,58.424 116.812868,58.231 C116.812868,57.812 117.151868,57.474 117.585868,57.463 C117.939868,57.453 118.294868,57.447 118.648868,57.447 L119.091868,57.444 C119.237868,57.444 119.384868,57.447 119.528868,57.459 L119.750868,57.478 L119.750868,56.605 C119.752868,56.021 119.758868,55.439 119.772868,54.853 C119.773868,54.783 119.797868,54.709 119.823868,54.632 L119.888868,54.432 L119.685868,54.375 C118.992868,54.178 118.311868,53.878 117.653868,53.586 L117.492868,53.516 C117.016868,53.307 116.615868,53.089 116.264868,52.851 C115.849868,52.572 115.445868,52.276 115.041868,51.982 C114.552868,51.626 114.082868,51.266 113.712868,50.768 C113.460868,50.431 113.262868,50.044 113.070868,49.668 L112.886868,49.31 C112.669868,48.891 112.444868,48.458 112.271868,48.017 C112.172868,47.761 112.086868,47.504 112.014868,47.239 C111.948868,46.994 111.915868,46.736 111.883868,46.483 L111.870868,46.381 C111.804868,45.867 111.766868,45.349 111.729868,44.832 C111.699868,44.407 111.668868,43.982 111.622868,43.559 L111.547868,43.076 C111.513868,42.872 111.515868,42.72 111.552868,42.586 L111.602868,42.41 L111.432868,42.344 C111.183868,42.245 110.937868,42.143 110.692868,42.037 C110.508868,41.958 109.820868,41.645 109.820868,41.645 C109.564868,41.529 109.329868,41.384 109.090868,41.238 L108.914868,41.131 C108.647868,40.973 108.453868,40.827 108.302868,40.668 C107.983868,40.344 107.907868,39.857 108.117868,39.481 C108.251868,39.239 108.496868,39.027 108.712868,38.84 C109.232868,38.394 109.819868,37.99 110.386868,37.6 L110.578868,37.468 C111.252868,37.001 111.948868,36.55 112.648868,36.124 C112.711868,36.085 112.785868,36.058 112.874868,36.038 L112.982868,36.014 L113.065868,35.768 C113.517868,34.793 114.106868,33.687 115.040868,32.878 C115.369868,32.593 115.755868,32.272 116.169868,32.076 C116.474868,31.932 116.784868,31.793 117.101868,31.675 C117.734868,31.439 118.230868,31.288 118.712868,31.182 C119.261868,31.06 119.784868,31 120.268868,31 C120.788868,31 121.277868,31.071 121.720868,31.211 C122.269868,31.382 122.766868,31.604 123.201868,31.871 C123.419868,32.006 123.632868,32.149 123.841868,32.301 C124.160868,32.53 124.413868,32.711 124.601868,32.923 C125.033868,33.41 125.388868,33.96 125.653868,34.558 C125.864868,35.032 126.068868,35.515 126.249868,35.998 C126.387868,36.371 126.558868,36.866 126.662868,37.39 C126.748868,37.82 126.806868,38.257 126.862868,38.691 L126.893868,38.92 L126.892868,38.92 C126.953868,39.384 127.010868,39.848 127.065868,40.313 L127.185868,41.293 C127.289868,41.952 127.390868,42.451 127.514868,42.917 C127.634868,43.373 127.755868,43.819 127.924868,44.257 C128.057868,44.534 128.230868,44.877 128.455868,45.201 C128.604868,45.378 128.748868,45.528 128.910868,45.67 L129.128868,45.824 C129.246868,45.906 129.365868,45.988 129.480868,46.076 C129.611868,46.172 129.684868,46.226 129.750868,46.288 C129.786868,46.337 129.841868,46.407 129.894868,46.481 C129.984868,46.61 130.017868,46.874 129.964868,47.048 C129.922868,47.188 129.848868,47.32 129.729868,47.467 L129.581868,47.65 L129.783868,47.769 C130.121868,47.969 130.458868,48.166 130.813868,48.338 C131.056868,48.429 131.281868,48.499 131.518868,48.547 C131.752868,48.595 131.931868,48.631 132.113868,48.713 C132.320868,48.805 132.501868,49.018 132.554868,49.229 C132.709868,49.855 132.260868,50.539 131.979868,50.889 C131.736868,51.193 131.428868,51.49 130.980868,51.854 C130.545868,52.206 130.070868,52.572 129.540868,52.865 C129.101868,53.106 128.649868,53.317 128.197868,53.526 L127.873868,53.676 C127.473868,53.86 127.073868,54.047 126.659868,54.198 C125.664868,54.568 124.558868,54.655 123.606868,54.691 L123.432868,54.699 C123.075868,54.714 122.719868,54.729 122.362868,54.729 L122.100868,54.726 C121.903868,54.721 121.707868,54.702 121.512868,54.684 L121.297868,54.663 L121.254868,54.875 L121.243868,55.204 C121.228868,55.64 121.213868,56.075 121.208868,56.51 C121.204868,56.955 121.200868,57.359 121.239868,57.754 L121.278868,58.057 C121.298868,58.222 121.180868,58.44 121.060868,58.562 C120.922868,58.7 120.730868,58.779 120.534868,58.779 L120.285868,58.723 L120.120868,58.873 C120.010868,58.937 119.897868,58.968 119.763868,58.968 C119.701868,58.968 119.638868,58.961 119.573868,58.95 L119.380868,58.945 C119.202868,58.945 119.023868,58.952 118.846868,58.959 L117.553868,59 Z M113.826868,37.023 L113.786868,37.122 C113.710868,37.306 113.602868,37.441 113.461868,37.526 C112.393868,38.17 111.264868,38.864 110.219868,39.655 L109.856868,39.95 L110.118868,40.095 C110.440868,40.273 110.776868,40.429 111.115868,40.575 L111.669868,40.811 C112.067868,40.969 112.394868,41.071 112.723868,41.174 C113.137868,41.303 113.375868,41.718 113.264868,42.118 C113.246868,42.184 113.203868,42.25 113.158868,42.319 L113.101868,42.406 L113.139868,42.503 C113.272868,43.259 113.343868,43.912 113.383868,44.578 C113.413868,45.067 113.449868,45.556 113.504868,46.043 C113.538868,46.288 113.573868,46.529 113.641868,46.76 C113.710868,46.999 113.790868,47.229 113.879868,47.456 C114.064868,47.837 114.255868,48.199 114.446868,48.56 L114.583868,48.818 C114.757868,49.145 114.931868,49.473 115.139868,49.78 C115.341868,50.009 115.553868,50.205 115.843868,50.439 C116.387868,50.849 116.900868,51.236 117.440868,51.567 C117.912868,51.858 118.425868,52.083 118.921868,52.3 C119.465868,52.525 119.877868,52.672 120.272868,52.784 C120.703868,52.905 121.140868,52.978 121.474868,53.029 C121.936868,53.066 122.386868,53.082 122.839868,53.082 C123.488868,53.082 124.151868,53.046 124.809868,52.976 C125.120868,52.927 125.419868,52.874 125.715868,52.804 C126.081868,52.723 126.422868,52.586 126.724868,52.465 C126.724868,52.465 126.926868,52.379 126.972868,52.359 C127.869868,51.977 128.882868,51.495 129.789868,50.82 C130.083868,50.586 130.379868,50.348 130.648868,50.088 L130.884868,49.859 L130.573868,49.751 C130.365868,49.678 130.158868,49.595 129.957868,49.499 C129.638868,49.35 129.333868,49.181 129.027868,49.012 C128.945868,48.967 128.863868,48.922 128.782868,48.876 C128.640868,48.797 128.520868,48.68 128.396868,48.575 L128.274868,48.675 L128.181868,48.747 C128.079868,48.827 127.978868,48.907 127.872868,48.983 C126.951868,49.641 126.012868,50.069 125.083868,50.253 C124.568868,50.356 124.023868,50.408 123.420868,50.412 C123.176868,50.412 122.933868,50.404 122.690868,50.385 C122.399868,50.36 122.114868,50.332 121.852868,50.264 C121.326868,50.124 120.798868,49.896 120.302868,49.675 C119.913868,49.502 119.527868,49.317 119.147868,49.128 C118.218868,48.663 117.390868,47.803 116.818868,46.708 C116.593868,46.277 116.721868,45.778 117.116868,45.546 C117.238868,45.474 117.384868,45.436 117.539868,45.436 C117.858868,45.436 118.136868,45.592 118.265868,45.84 C118.402868,46.106 118.550868,46.361 118.723868,46.605 C118.956868,46.878 119.200868,47.15 119.480868,47.39 C119.820868,47.625 120.172868,47.802 120.512868,47.975 C120.973868,48.208 121.384868,48.401 121.799868,48.584 C121.970868,48.655 122.140868,48.721 122.312868,48.762 C122.488868,48.806 122.663868,48.841 122.838868,48.87 C123.170868,48.901 123.486868,48.917 123.802868,48.917 C124.059868,48.917 124.314868,48.907 124.572868,48.884 C125.081868,48.799 125.526868,48.684 125.946868,48.529 C126.673868,48.213 127.255868,47.792 127.792868,47.381 L128.261868,47.026 L127.884868,46.748 C127.595868,46.525 127.331868,46.239 127.098868,45.897 C126.704868,45.32 126.400868,44.636 126.167868,43.805 C125.994868,43.182 125.853868,42.509 125.725868,41.689 C125.652868,41.205 125.596868,40.717 125.542868,40.23 L125.456868,39.492 L125.419868,39.217 C125.339868,38.617 125.257868,37.994 125.107868,37.391 C124.956868,36.773 124.706868,36.175 124.464868,35.599 C124.217868,35.036 123.974868,34.592 123.693868,34.199 C123.533868,34.013 123.374868,33.861 123.202868,33.715 C122.762868,33.393 122.317868,33.126 121.832868,32.89 C121.486868,32.759 121.163868,32.665 120.826868,32.596 C120.634868,32.575 120.464868,32.563 120.289868,32.563 C120.076868,32.564 119.892868,32.581 119.707868,32.6 C119.282868,32.663 118.839868,32.742 118.412868,32.886 C118.029868,33.014 117.652868,33.157 117.278868,33.309 C116.949868,33.467 116.691868,33.611 116.457868,33.771 C116.137868,34.037 115.865868,34.297 115.610868,34.58 C115.416868,34.846 115.208868,35.145 115.040868,35.466 C114.837868,35.852 114.651868,36.242 114.471868,36.637 C114.395868,36.806 114.166868,36.949 113.974868,36.994 L113.826868,37.023 Z M118.291868,37.047 C117.925868,37.047 117.617868,36.739 117.617868,36.373 C117.617868,36.007 117.926868,35.7 118.291868,35.7 C118.656868,35.7 118.965868,36.008 118.965868,36.374 C118.965868,36.74 118.657868,37.047 118.291868,37.047 Z" id="Shape"></path>
        </g>
    </g>
</svg>