<?xml version="1.0" encoding="UTF-8"?>
<svg width="27px" height="28px" viewBox="0 0 27 28" version="1.1" xmlns="http://www.w3.org/2000/svg" xmlns:xlink="http://www.w3.org/1999/xlink">
    <!-- Generator: Sketch 50 (54983) - http://www.bohemiancoding.com/sketch -->
    <title>Shape</title>
    <desc>Created with Sketch.</desc>
    <defs></defs>
    <g id="Symbols" stroke="none" stroke-width="1" fill="none" fill-rule="evenodd">
        <g id="Header-Bar" transform="translate(-222.000000, -33.000000)" fill="#2C247F" fill-rule="nonzero">
            <path d="M247.874966,33.685 C247.742966,33.424 247.441966,33.235 247.171966,33.155 C246.919966,33.08 246.644966,33.055 246.385966,33.025 C246.231966,33.008 246.079966,33 245.928966,33 C245.601966,33 245.277966,33.037 244.951966,33.1 C244.490966,33.19 244.045966,33.337 243.618966,33.531 C243.159966,33.738 242.766966,34.028 242.390966,34.36 C242.076966,34.635 241.769966,34.932 241.506966,35.257 C241.448966,35.328 241.393966,35.4 241.340966,35.474 C241.329966,35.462 241.318966,35.45 241.306966,35.438 C240.973966,35.088 240.620966,34.757 240.213966,34.492 C239.829966,34.242 239.387966,34.076 238.960966,33.916 C238.526966,33.752 238.087966,33.64 237.625966,33.591 C237.209966,33.55 236.786966,33.568 236.371966,33.591 C236.119966,33.604 235.869966,33.636 235.622966,33.674 C235.415966,33.704 235.210966,33.791 235.065966,33.945 C234.879966,34.142 234.834966,34.368 234.807966,34.628 C234.775966,34.953 234.826966,35.299 234.856966,35.625 C234.897966,36.073 234.959966,36.52 235.038966,36.962 C235.106966,37.346 235.188966,37.726 235.324966,38.092 C235.416966,38.337 235.520966,38.577 235.636966,38.81 C235.788966,39.113 235.999966,39.376 236.230966,39.622 C236.522966,39.932 236.888966,40.186 237.242966,40.421 C237.415966,40.538 237.614966,40.619 237.804966,40.705 C238.069966,40.823 238.334966,40.927 238.616966,40.993 C238.619966,40.994 238.621966,40.993 238.624966,40.994 C238.658966,41.295 238.694966,41.596 238.712966,41.9 C238.736966,42.304 238.721966,42.701 238.676966,43.101 C238.656966,43.235 238.633966,43.368 238.606966,43.501 C238.537966,43.438 238.467966,43.376 238.396966,43.316 C238.059966,43.034 237.700966,42.787 237.330966,42.554 C237.005966,42.351 236.655966,42.183 236.307966,42.024 C235.923966,41.849 235.541966,41.674 235.156966,41.511 C234.398966,41.188 233.616966,40.864 232.807966,40.697 C231.974966,40.524 231.124966,40.407 230.274966,40.5 C229.715966,40.56 229.147966,40.62 228.608966,40.784 C228.147966,40.923 227.702966,41.136 227.269966,41.346 C226.929966,41.512 226.603966,41.718 226.297966,41.94 C225.910966,42.216 225.547966,42.504 225.206966,42.835 C224.928966,43.106 224.672966,43.397 224.414966,43.685 C224.128966,44.007 223.842966,44.343 223.600966,44.701 C223.096966,45.444 222.731966,46.277 222.477966,47.137 C222.357966,47.545 222.289966,47.968 222.223966,48.388 C222.150966,48.851 222.101966,49.319 222.059966,49.785 C221.988966,50.584 221.978966,51.389 222.040966,52.189 C222.076966,52.654 222.128966,53.112 222.222966,53.569 C222.263966,53.77 222.335966,53.966 222.401966,54.161 C222.482966,54.394 222.574966,54.629 222.677966,54.853 C223.019966,55.6 223.474966,56.29 223.965966,56.946 C224.234966,57.307 224.514966,57.646 224.841966,57.956 C225.005966,58.112 225.180966,58.259 225.351966,58.406 C225.644966,58.66 225.942966,58.912 226.244966,59.156 C226.912966,59.69 227.709966,60.106 228.540966,60.32 C229.332966,60.523 230.139966,60.672 230.945966,60.8 C231.778966,60.934 232.613966,61.02 233.458966,60.996 C233.902966,60.985 234.348966,60.879 234.778966,60.782 C235.177966,60.692 235.577966,60.609 235.967966,60.485 C236.411966,60.344 236.849966,60.19 237.276966,60.003 C237.652966,59.841 238.006966,59.642 238.361966,59.437 C238.761966,59.204 239.143966,58.944 239.514966,58.669 C239.572966,58.636 239.625966,58.595 239.673966,58.549 C239.909966,58.37 240.141966,58.185 240.371966,57.998 C240.999966,57.486 241.513966,56.883 242.004966,56.241 C242.499966,55.594 242.905966,54.859 243.245966,54.121 C243.422966,53.739 243.580966,53.35 243.749966,52.964 C243.928966,52.552 244.082966,52.138 244.215966,51.711 C244.330966,51.344 244.441966,50.977 244.546966,50.609 C244.659966,50.208 244.732966,49.795 244.802966,49.385 C244.947966,48.535 245.045966,47.677 245.056966,46.816 C245.064966,46.308 244.998966,45.798 244.939966,45.294 C244.873966,44.718 244.787966,44.145 244.693966,43.571 C244.610966,43.058 244.512966,42.542 244.362966,42.044 C244.259966,41.704 244.163966,41.354 244.024966,41.023 C244.339966,40.928 244.648966,40.816 244.928966,40.65 C245.344966,40.404 245.722966,40.108 246.088966,39.794 C246.231966,39.672 246.357966,39.525 246.479966,39.382 C246.729966,39.087 246.959966,38.782 247.145966,38.442 C247.267966,38.216 247.356966,37.966 247.453966,37.731 C247.536966,37.528 247.613966,37.323 247.682966,37.116 C247.840966,36.657 247.896966,36.168 247.955966,35.689 C248.004966,35.285 248.064966,34.873 248.060966,34.465 C248.062966,34.18 248.000966,33.939 247.874966,33.685 Z M238.951966,39.333 C238.974966,39.33 238.997966,39.326 239.021966,39.323 L239.022966,39.323 C238.998966,39.327 238.975966,39.33 238.951966,39.333 Z M239.031966,39.322 C239.050966,39.319 239.069966,39.317 239.088966,39.314 C239.070966,39.317 239.051966,39.319 239.031966,39.322 Z M224.106966,54.145 C224.025966,53.932 223.948966,53.718 223.878966,53.501 C223.807966,53.287 223.765966,53.065 223.719966,52.846 C223.660966,52.348 223.636966,51.85 223.626966,51.352 C223.855966,51.265 224.085966,51.184 224.320966,51.11 C224.582966,51.028 224.857966,50.986 225.130966,50.945 C225.158966,50.942 225.185966,50.941 225.213966,50.938 C225.208966,52.338 225.277966,53.735 225.522966,55.12 C225.624966,55.698 225.782966,56.266 225.957966,56.827 C225.774966,56.653 225.586966,56.484 225.424966,56.292 C224.925966,55.612 224.460966,54.91 224.106966,54.145 Z M228.451966,50.878 C228.461966,52.369 228.488966,53.869 228.755966,55.338 C228.982966,56.58 229.291966,57.807 229.802966,58.955 C229.291966,58.848 228.787966,58.717 228.299966,58.535 C228.257966,58.516 228.218966,58.492 228.175966,58.472 C228.064966,58.287 227.941966,58.109 227.852966,57.913 C227.641966,57.364 227.436966,56.814 227.269966,56.251 C227.084966,55.636 226.957966,55.004 226.851966,54.373 C226.712966,53.199 226.703966,52.02 226.724966,50.84 C226.918966,50.836 227.112966,50.827 227.305966,50.829 C227.688966,50.832 228.070966,50.85 228.451966,50.878 Z M231.670966,59.259 C231.657966,59.23 231.656966,59.199 231.640966,59.171 C231.421966,58.811 231.231966,58.44 231.056966,58.058 C230.821966,57.472 230.624966,56.88 230.476966,56.267 C230.327966,55.645 230.200966,55.02 230.104966,54.388 C230.042966,53.771 230.002966,53.156 230.009966,52.537 C230.014966,52.049 230.022966,51.561 230.029966,51.073 C230.254966,51.114 230.480966,51.152 230.704966,51.199 C231.067966,51.274 231.427966,51.381 231.784966,51.482 C231.784966,51.486 231.783966,51.49 231.783966,51.494 C231.892966,52.459 232.012966,53.422 232.169966,54.379 C232.224966,54.71 232.274966,55.047 232.361966,55.37 C232.457966,55.739 232.560966,56.105 232.668966,56.47 C232.864966,57.141 233.044966,57.817 233.306966,58.465 C233.426966,58.76 233.556966,59.06 233.706966,59.344 C233.695966,59.346 233.685966,59.349 233.674966,59.351 C233.008966,59.4 232.335966,59.339 231.670966,59.259 Z M235.369966,58.974 C235.330966,58.91 235.283966,58.85 235.246966,58.784 C235.096966,58.52 234.970966,58.245 234.846966,57.967 C234.629966,57.42 234.463966,56.861 234.304966,56.293 C234.219966,55.992 234.131966,55.687 234.063966,55.381 C233.983966,55.015 233.916966,54.653 233.858966,54.283 C233.764966,53.564 233.682966,52.842 233.601966,52.121 C233.709966,52.164 233.818966,52.205 233.925966,52.249 C234.401966,52.458 234.869966,52.68 235.337966,52.906 C235.339966,52.915 235.338966,52.924 235.341966,52.932 C235.492966,53.993 235.687966,55.059 235.962966,56.097 C236.109966,56.648 236.261966,57.201 236.492966,57.724 C236.595966,57.955 236.710966,58.181 236.832966,58.403 C236.839966,58.415 236.847966,58.427 236.854966,58.44 C236.750966,58.492 236.651966,58.554 236.544966,58.602 C236.159966,58.747 235.765966,58.864 235.369966,58.974 Z M238.486966,57.459 C238.504966,57.445 238.522966,57.431 238.541966,57.417 C238.531966,57.425 238.522966,57.433 238.512966,57.44 C238.503966,57.446 238.494966,57.452 238.486966,57.459 Z M239.192966,56.886 C239.066966,56.993 238.936966,57.1 238.806966,57.204 C238.737966,57.259 238.668966,57.313 238.600966,57.368 C238.559966,57.399 238.518966,57.431 238.476966,57.464 C238.394966,57.523 238.307966,57.573 238.224966,57.63 C238.219966,57.62 238.214966,57.61 238.208966,57.599 C238.114966,57.416 238.020966,57.233 237.936966,57.047 C237.697966,56.401 237.554966,55.73 237.422966,55.053 C237.359966,54.735 237.315966,54.415 237.260966,54.096 C237.411966,54.217 237.562966,54.338 237.704966,54.47 C237.922966,54.673 238.133966,54.884 238.349966,55.091 C238.736966,55.458 239.143966,55.806 239.490966,56.211 C239.533966,56.272 239.573966,56.335 239.611966,56.4 C239.622966,56.419 239.641966,56.43 239.654966,56.448 C239.504966,56.597 239.356966,56.749 239.192966,56.886 Z M246.157966,35.875 C246.109966,36.162 246.050966,36.445 245.961966,36.721 C245.886966,36.953 245.799966,37.18 245.708966,37.406 C245.602966,37.642 245.479966,37.86 245.330966,38.07 C245.190966,38.239 245.049966,38.403 244.895966,38.56 C244.746966,38.712 244.574966,38.841 244.406966,38.972 C244.213966,39.104 244.022966,39.23 243.810966,39.33 C243.507966,39.447 243.197966,39.54 242.881966,39.617 C242.441966,39.724 242.183966,40.213 242.302966,40.64 C242.311966,40.674 242.334966,40.698 242.348966,40.729 C242.288966,40.93 242.302966,41.15 242.425966,41.33 C242.516966,41.466 242.592966,41.608 242.661966,41.756 C242.801966,42.121 242.925966,42.502 243.012966,42.882 C243.110966,43.311 243.176966,43.743 243.235966,44.178 C243.322966,44.9 243.380966,45.621 243.428966,46.348 C243.475966,47.075 243.413966,47.803 243.323966,48.525 C243.230966,49.128 243.124966,49.73 242.958966,50.319 C242.799966,50.884 242.625966,51.45 242.413966,52 C242.285966,52.294 242.151966,52.587 242.021966,52.879 C241.882966,53.193 241.743966,53.507 241.577966,53.808 C241.328966,54.258 241.054966,54.692 240.763966,55.117 C240.347966,54.624 239.803966,54.237 239.323966,53.818 C239.024966,53.555 238.729966,53.293 238.418966,53.043 C238.034966,52.738 237.628966,52.466 237.218966,52.199 C236.893966,51.99 236.550966,51.813 236.204966,51.644 C235.820966,51.46 235.437966,51.273 235.047966,51.104 C234.216966,50.743 233.377966,50.414 232.512966,50.145 C231.861966,49.944 231.201966,49.793 230.535966,49.656 C229.820966,49.507 229.089966,49.442 228.363966,49.376 C227.806966,49.325 227.240966,49.293 226.680966,49.293 C226.597966,49.293 226.514966,49.294 226.432966,49.295 C226.056966,49.303 225.685966,49.314 225.311966,49.344 C225.008966,49.368 224.709966,49.406 224.410966,49.449 C224.158966,49.485 223.913966,49.55 223.671966,49.625 C223.693966,49.331 223.718966,49.036 223.751966,48.742 C223.805966,48.386 223.868966,48.034 223.946966,47.681 C224.023966,47.333 224.146966,46.998 224.273966,46.665 C224.380966,46.424 224.492966,46.187 224.621966,45.955 C224.769966,45.691 224.934966,45.441 225.112966,45.195 C225.642966,44.538 226.213966,43.904 226.867966,43.368 C227.132966,43.175 227.402966,42.981 227.690966,42.821 C227.996966,42.651 228.307966,42.497 228.628966,42.355 C228.823966,42.282 229.016966,42.212 229.217966,42.155 C229.416966,42.099 229.622966,42.069 229.825966,42.037 C230.135966,41.999 230.444966,41.97 230.757966,41.95 C231.075966,41.931 231.401966,41.976 231.719966,42.012 C232.178966,42.08 232.632966,42.163 233.076966,42.3 C233.548966,42.444 234.009966,42.63 234.467966,42.813 C234.969966,43.029 235.469966,43.253 235.961966,43.487 C236.431966,43.71 236.867966,43.999 237.284966,44.311 C237.478966,44.476 237.663966,44.646 237.845966,44.824 C238.153966,45.123 238.507966,45.488 238.964966,45.488 C239.171966,45.488 239.391966,45.4 239.536966,45.255 C239.668966,45.123 239.726966,45.005 239.794966,44.836 C239.843966,44.716 239.882966,44.59 239.918966,44.464 C239.989966,44.218 240.053966,43.969 240.108966,43.717 C240.335966,42.652 240.280966,41.566 240.146966,40.493 C240.194966,40.384 240.223966,40.267 240.223966,40.146 C240.223966,39.918 240.131966,39.696 239.969966,39.535 C239.824966,39.39 239.568966,39.253 239.356966,39.281 C239.284966,39.29 239.213966,39.299 239.142966,39.309 C239.155966,39.307 239.168966,39.305 239.181966,39.303 C239.108966,39.31 239.038966,39.312 238.967966,39.309 C238.754966,39.259 238.551966,39.188 238.347966,39.11 C238.080966,38.985 237.836966,38.835 237.597966,38.663 C237.439966,38.534 237.288966,38.402 237.153966,38.249 C237.031966,38.07 236.933966,37.881 236.837966,37.689 C236.603966,37.083 236.467966,36.45 236.368966,35.807 C236.345966,35.619 236.326966,35.431 236.314966,35.242 C236.310966,35.192 236.306966,35.142 236.302966,35.092 C236.723966,35.062 237.149966,35.057 237.568966,35.097 C237.864966,35.161 238.145966,35.253 238.427966,35.361 C238.768966,35.513 239.095966,35.682 239.403966,35.896 C239.659966,36.116 239.890966,36.356 240.104966,36.619 C240.245966,36.803 240.385966,36.987 240.527966,37.171 C240.589966,37.252 240.653966,37.331 240.715966,37.41 C240.790966,37.504 240.884966,37.598 240.990966,37.653 C241.067966,37.694 241.148966,37.73 241.231966,37.758 C241.389966,37.799 241.545966,37.799 241.701966,37.758 C241.977966,37.719 242.218966,37.468 242.331966,37.226 C242.378966,37.126 242.425966,37.027 242.474966,36.929 C242.565966,36.751 242.672966,36.582 242.787966,36.418 C243.087966,36.055 243.428966,35.726 243.794966,35.429 C243.987966,35.296 244.184966,35.186 244.394966,35.088 C244.711966,34.971 245.035966,34.889 245.366966,34.834 C245.655966,34.812 245.941966,34.825 246.228966,34.856 C246.232966,34.857 246.237966,34.857 246.241966,34.858 C246.239966,35.197 246.200966,35.539 246.157966,35.875 Z M228.156966,46.13 C228.156966,46.576 227.784966,46.948 227.338966,46.948 C226.892966,46.948 226.520966,46.576 226.520966,46.13 C226.520966,45.684 226.892966,45.312 227.338966,45.312 C227.784966,45.312 228.156966,45.685 228.156966,46.13 Z M232.109966,46.13 C232.109966,46.576 231.737966,46.948 231.291966,46.948 C230.845966,46.948 230.473966,46.576 230.473966,46.13 C230.473966,45.684 230.845966,45.312 231.291966,45.312 C231.737966,45.312 232.109966,45.685 232.109966,46.13 Z" id="Shape"></path>
        </g>
    </g>
</svg>