<?xml version="1.0" encoding="UTF-8"?>
<svg width="30px" height="29px" viewBox="0 0 30 29" version="1.1" xmlns="http://www.w3.org/2000/svg" xmlns:xlink="http://www.w3.org/1999/xlink">
    <!-- Generator: Sketch 50 (54983) - http://www.bohemiancoding.com/sketch -->
    <title>Shape</title>
    <desc>Created with Sketch.</desc>
    <defs></defs>
    <g id="Symbols" stroke="none" stroke-width="1" fill="none" fill-rule="evenodd">
        <g id="Header-Bar" transform="translate(-366.000000, -33.000000)" fill="#2860F5" fill-rule="nonzero">
            <path d="M395.795759,50.836 C395.573759,50.345 395.177759,49.971 394.661759,49.809 C394.166759,49.657 393.657759,49.815 393.194759,49.989 C392.586759,50.217 391.986759,50.484 391.344759,50.601 C391.131759,50.615 390.922759,50.604 390.711759,50.584 C390.960759,50.36 391.194759,50.119 391.391759,49.839 C391.627759,49.502 391.809759,49.156 391.967759,48.778 C392.032759,48.618 392.090759,48.459 392.139759,48.295 C392.228759,47.988 392.232759,47.658 392.212759,47.341 C392.188759,46.957 392.097759,46.561 391.923759,46.219 C391.818759,46.011 391.685759,45.827 391.523759,45.659 C391.333759,45.459 391.109759,45.35 390.856759,45.251 C390.733759,45.202 390.584759,45.189 390.443759,45.189 C390.389759,45.189 390.336759,45.191 390.286759,45.194 C389.983759,45.212 389.704759,45.331 389.437759,45.467 C389.310759,45.532 389.201759,45.643 389.091759,45.734 C389.024759,45.791 388.954759,45.849 388.887759,45.906 C388.414759,46.311 387.964759,46.743 387.488759,47.14 C387.144759,47.389 386.772759,47.595 386.384759,47.767 C386.239759,47.82 386.094759,47.866 385.946759,47.911 C385.945759,47.911 385.945759,47.912 385.945759,47.912 C385.927759,47.909 385.909759,47.904 385.892759,47.9 C385.951759,47.845 386.019759,47.798 386.076759,47.742 C386.371759,47.453 386.628759,47.126 386.886759,46.802 C387.181759,46.428 387.472759,46.05 387.704759,45.632 C388.142759,44.844 388.389759,43.997 388.565759,43.12 C388.666759,42.623 388.713759,42.108 388.733759,41.602 C388.751759,41.121 388.684759,40.642 388.600759,40.169 C388.527759,39.753 388.432759,39.342 388.305759,38.94 C388.192759,38.578 388.056759,38.225 387.921759,37.871 C387.757759,37.443 387.580759,37.018 387.363759,36.614 C387.266759,36.434 387.147759,36.27 387.026759,36.105 C386.856759,35.871 386.680759,35.642 386.478759,35.434 C386.165759,35.111 385.785759,34.852 385.427759,34.583 C385.085759,34.324 384.726759,34.086 384.350759,33.878 C383.928759,33.644 383.459759,33.486 382.998759,33.351 C382.553759,33.222 382.089759,33.129 381.628759,33.074 C381.187759,33.021 380.747759,33.007 380.304759,33.001 C380.251759,33 380.198759,33 380.145759,33 C379.717759,33 379.297759,33.022 378.870759,33.084 C378.407759,33.149 377.959759,33.236 377.514759,33.377 C377.061759,33.522 376.629759,33.753 376.207759,33.971 C375.387759,34.397 374.697759,35.022 374.057759,35.679 C373.910759,35.827 373.781759,35.993 373.652759,36.16 C373.486759,36.373 373.324759,36.595 373.191759,36.833 C372.949759,37.263 372.738759,37.708 372.561759,38.171 C372.401759,38.591 372.306759,39.03 372.226759,39.47 C372.140759,39.943 372.084759,40.428 372.066759,40.909 C372.050759,41.35 372.040759,41.79 372.056759,42.231 C372.074759,42.728 372.183759,43.225 372.290759,43.708 C372.480759,44.585 372.801759,45.458 373.220759,46.25 C373.400759,46.592 373.616759,46.911 373.848759,47.22 C374.121759,47.584 374.394759,47.962 374.719759,48.283 C374.751759,48.314 374.785759,48.342 374.818759,48.373 C374.788759,48.386 374.758759,48.399 374.729759,48.413 C374.585759,48.374 374.435759,48.357 374.282759,48.396 C374.039759,48.457 373.799759,48.515 373.553759,48.557 C373.388759,48.565 373.227759,48.558 373.064759,48.546 C372.887759,48.511 372.719759,48.46 372.549759,48.396 C372.240759,48.253 371.947759,48.086 371.667759,47.891 C371.350759,47.671 371.049759,47.406 370.707759,47.228 C370.282759,47.005 369.792759,46.835 369.313759,46.835 C368.980759,46.835 368.653759,46.917 368.355759,47.119 C367.526759,47.679 367.347759,48.855 367.660759,49.752 C367.808759,50.172 367.996759,50.597 368.252759,50.964 C368.438759,51.233 368.636759,51.483 368.895759,51.685 C369.097759,51.839 369.297759,51.98 369.517759,52.107 C370.023759,52.402 370.556759,52.653 371.110759,52.84 C370.877759,53.193 370.648759,53.55 370.396759,53.889 C370.288759,54.016 370.175759,54.133 370.052759,54.245 C369.898759,54.349 369.736759,54.436 369.568759,54.514 C369.455759,54.555 369.341759,54.587 369.223759,54.61 C369.047759,54.623 368.871759,54.62 368.696759,54.605 C368.269759,54.519 367.833759,54.365 367.396759,54.423 C367.117759,54.461 366.865759,54.536 366.620759,54.68 C366.420759,54.801 366.248759,54.987 366.149759,55.197 C365.945759,55.632 365.961759,56.09 366.127759,56.535 C366.202759,56.737 366.283759,56.935 366.394759,57.119 C366.507759,57.309 366.663759,57.481 366.806759,57.652 C366.911759,57.781 367.046759,57.888 367.174759,57.992 C367.350759,58.139 367.532759,58.267 367.732759,58.378 C368.074759,58.568 368.472759,58.689 368.852759,58.782 C369.101759,58.841 369.361759,58.863 369.616759,58.885 C369.818759,58.903 370.020759,58.903 370.224759,58.885 C371.123759,58.806 371.994759,58.59 372.813759,58.21 C373.053759,58.099 373.292759,57.978 373.518759,57.84 C373.793759,57.67 374.047759,57.462 374.294759,57.254 C374.496759,57.082 374.672759,56.878 374.852759,56.684 C374.927759,56.603 374.991759,56.513 375.061759,56.428 C375.056759,56.496 375.047759,56.563 375.043759,56.631 C375.023759,57.011 375.019759,57.395 375.051759,57.773 C375.089759,58.23 375.170759,58.668 375.306759,59.105 C375.427759,59.497 375.563759,59.909 375.793759,60.249 C376.033759,60.605 376.314759,60.946 376.656759,61.209 C376.925759,61.419 377.177759,61.589 377.517759,61.67 C377.782759,61.731 378.036759,61.708 378.299759,61.658 C378.533759,61.612 378.739759,61.486 378.921759,61.343 C379.170759,61.149 379.319759,60.824 379.388759,60.523 C379.445759,60.279 379.445759,60.01 379.441759,59.761 C379.431759,59.021 379.313759,58.279 379.385759,57.539 C379.435759,57.244 379.507759,56.953 379.616759,56.673 C379.685759,56.516 379.755759,56.359 379.824759,56.201 C379.844759,56.234 379.865759,56.268 379.886759,56.301 C380.100759,56.637 380.331759,56.962 380.575759,57.279 C380.830759,57.614 381.088759,57.952 381.375759,58.259 C381.618759,58.52 381.882759,58.76 382.149759,58.995 C382.755759,59.529 383.517759,59.939 384.279759,60.195 C385.065759,60.456 385.926759,60.573 386.754759,60.51 C387.031759,60.49 387.306759,60.451 387.570759,60.36 C387.857759,60.261 388.132759,60.138 388.396759,59.988 C388.913759,59.691 389.318759,59.257 389.588759,58.725 C389.742759,58.416 389.830759,58.113 389.859759,57.771 C389.881759,57.533 389.839759,57.286 389.730759,57.074 C389.611759,56.844 389.415759,56.674 389.203759,56.536 C388.979759,56.39 388.690759,56.291 388.429759,56.233 C388.161759,56.175 387.884759,56.15 387.610759,56.118 C387.496759,56.098 387.386759,56.072 387.277759,56.037 C387.153759,55.971 387.037759,55.895 386.923759,55.814 C386.757759,55.674 386.607759,55.528 386.468759,55.361 C386.278759,55.095 386.120759,54.806 385.979759,54.51 C386.161759,54.631 386.350759,54.744 386.543759,54.841 C386.935759,55.039 387.349759,55.219 387.776759,55.326 C388.210759,55.437 388.653759,55.52 389.098759,55.571 C389.514759,55.619 389.926759,55.644 390.343759,55.65 C390.786759,55.656 391.238759,55.587 391.673759,55.517 C392.041759,55.46 392.400759,55.303 392.742759,55.169 C393.144759,55.011 393.536759,54.83 393.922759,54.635 C394.316759,54.433 394.682759,54.195 394.999759,53.883 C395.138759,53.746 395.256759,53.584 395.373759,53.43 C395.470759,53.303 395.563759,53.173 395.638759,53.032 C395.781759,52.763 395.880759,52.478 395.935759,52.179 C395.973759,51.977 396.010759,51.767 395.990759,51.561 C395.967759,51.289 395.905759,51.081 395.795759,50.836 Z M390.098759,46.85 C390.155759,46.811 390.212759,46.777 390.273759,46.745 C390.311759,46.732 390.350759,46.719 390.389759,46.708 C390.402759,46.708 390.416759,46.708 390.429759,46.709 C390.446759,46.726 390.463759,46.743 390.480759,46.761 C390.517759,46.817 390.549759,46.873 390.581759,46.933 C390.620759,47.048 390.649759,47.163 390.673759,47.283 C390.683759,47.424 390.684759,47.565 390.677759,47.707 C390.645759,47.863 390.600759,48.011 390.544759,48.163 C390.411759,48.453 390.259759,48.724 390.073759,48.987 C389.860759,49.238 389.627759,49.463 389.372759,49.673 C389.274759,49.745 389.172759,49.814 389.071759,49.883 C389.024759,49.852 388.976759,49.826 388.930759,49.794 C388.672759,49.577 388.438759,49.342 388.201759,49.102 C388.063759,48.962 387.909759,48.846 387.754759,48.731 C388.094759,48.52 388.421759,48.286 388.731759,48.023 C389.188759,47.635 389.631759,47.226 390.098759,46.85 Z M369.668759,50.22 C369.518759,49.995 369.392759,49.761 369.275759,49.517 C369.208759,49.338 369.154759,49.159 369.115759,48.972 C369.114759,48.905 369.115759,48.838 369.119759,48.771 C369.135759,48.698 369.155759,48.628 369.179759,48.559 C369.192759,48.534 369.206759,48.51 369.220759,48.486 C369.229759,48.477 369.238759,48.469 369.247759,48.46 C369.248759,48.459 369.249759,48.459 369.250759,48.458 C369.251759,48.458 369.252759,48.458 369.252759,48.457 C369.294759,48.456 369.336759,48.456 369.378759,48.457 C369.497759,48.485 369.612759,48.518 369.728759,48.559 C370.051759,48.723 370.340759,48.939 370.632759,49.153 C370.943759,49.381 371.256759,49.596 371.604759,49.765 C371.840759,49.88 372.083759,49.979 372.329759,50.066 C372.478759,50.118 372.633759,50.147 372.789759,50.169 C372.629759,50.4 372.474759,50.636 372.333759,50.881 C372.228759,51.063 372.113759,51.238 372.006759,51.418 C371.729759,51.356 371.459759,51.273 371.192759,51.169 C370.748759,50.972 370.308759,50.748 369.914759,50.465 C369.825759,50.388 369.745759,50.307 369.668759,50.22 Z M388.346759,57.758 C388.346759,57.758 388.346759,57.757 388.346759,57.758 L388.345759,57.757 C388.346759,57.757 388.346759,57.757 388.346759,57.758 Z M394.306759,51.762 C394.281759,51.892 394.246759,52.019 394.202759,52.145 C394.111759,52.332 393.998759,52.509 393.876759,52.677 C393.789759,52.777 393.697759,52.872 393.600759,52.962 C393.246759,53.21 392.858759,53.397 392.464759,53.574 C391.965759,53.78 391.468759,53.97 390.933759,54.065 C390.352759,54.127 389.776759,54.11 389.196759,54.047 C388.678759,53.964 388.171759,53.842 387.679759,53.657 C387.361759,53.51 387.063759,53.337 386.770759,53.139 C386.473759,52.939 386.192759,52.719 385.895759,52.519 C385.754759,52.424 385.620759,52.327 385.467759,52.25 C385.259759,52.147 385.028759,52.028 384.786759,52.056 C384.531759,52.084 384.350759,52.151 384.154759,52.325 C384.023759,52.44 383.944759,52.628 383.897759,52.79 C383.857759,52.925 383.848759,53.073 383.849759,53.214 C383.853759,53.515 383.904759,53.826 383.988759,54.113 C384.047759,54.321 384.146759,54.519 384.237759,54.715 C384.310759,54.873 384.380759,55.034 384.459759,55.19 C384.621759,55.505 384.788759,55.82 384.990759,56.111 C385.257759,56.499 385.592759,56.804 385.964759,57.089 C386.269759,57.323 386.607759,57.521 386.987759,57.606 C387.309759,57.678 387.638759,57.697 387.966759,57.731 C388.080759,57.752 388.192759,57.78 388.302759,57.815 C388.288759,57.869 388.271759,57.922 388.252759,57.975 C388.197759,58.089 388.135759,58.2 388.066759,58.306 C387.992759,58.39 387.913759,58.468 387.829759,58.542 C387.647759,58.671 387.454759,58.78 387.252759,58.875 C387.080759,58.94 386.906759,58.994 386.724759,59.029 C386.347759,59.063 385.974759,59.052 385.596759,59.015 C385.248759,58.958 384.910759,58.865 384.579759,58.747 C384.133759,58.545 383.702759,58.305 383.302759,58.021 C382.674759,57.508 382.156759,56.887 381.657759,56.249 C381.438759,55.963 381.228759,55.671 381.045759,55.359 C380.944759,55.189 380.845759,55.017 380.752759,54.84 C380.582759,54.523 380.421759,54.203 380.045759,54.092 C379.443759,53.914 378.980759,54.405 378.673759,54.848 C378.479759,55.129 378.368759,55.466 378.220759,55.772 C378.125759,55.966 378.030759,56.164 377.967759,56.37 C377.916759,56.544 377.886759,56.724 377.854759,56.901 C377.783759,57.327 377.769759,57.744 377.787759,58.176 C377.814759,58.802 377.927759,59.421 377.880759,60.047 C377.810759,60.009 377.742759,59.967 377.677759,59.921 C377.500759,59.773 377.334759,59.614 377.183759,59.439 C377.081759,59.293 376.995759,59.144 376.918759,58.984 C376.773759,58.607 376.657759,58.221 376.584759,57.822 C376.514759,57.131 376.536759,56.435 376.619759,55.745 C376.687759,55.281 376.761759,54.816 376.824759,54.35 C376.854759,54.132 376.862759,53.952 376.745759,53.754 C376.644759,53.582 376.478759,53.453 376.284759,53.4 C376.138759,53.359 375.987759,53.378 375.844759,53.424 C375.534759,53.365 375.211759,53.5 375.035759,53.781 C374.776759,54.198 374.521759,54.622 374.232759,55.017 C373.879759,55.454 373.492759,55.868 373.055759,56.223 C372.926759,56.321 372.795759,56.415 372.656759,56.497 C372.443759,56.619 372.224759,56.729 372.000759,56.832 C371.521759,57.011 371.034759,57.134 370.530759,57.214 C370.373759,57.232 370.216759,57.247 370.057759,57.252 C369.872759,57.257 369.689759,57.241 369.507759,57.22 C369.203759,57.166 368.906759,57.087 368.615759,56.981 C368.488759,56.918 368.367759,56.848 368.248759,56.768 C368.087759,56.63 367.944759,56.482 367.809759,56.319 C367.766759,56.256 367.727759,56.191 367.693759,56.122 C367.688759,56.107 367.682759,56.093 367.677759,56.078 C367.920759,56.132 368.159759,56.205 368.406759,56.239 C368.867759,56.302 369.301759,56.312 369.758759,56.193 C370.132759,56.096 370.500759,55.9 370.827759,55.696 C371.292759,55.407 371.599759,54.956 371.906759,54.516 C372.134759,54.193 372.346759,53.861 372.559759,53.53 C372.779759,53.189 372.998759,52.851 373.202759,52.503 C373.388759,52.184 373.564759,51.86 373.746759,51.539 C373.909759,51.253 374.092759,50.983 374.287759,50.719 C374.385759,50.604 374.482759,50.493 374.585759,50.383 C374.666759,50.297 374.758759,50.221 374.850759,50.148 C375.022759,50.029 375.200759,49.925 375.388759,49.837 C375.564759,49.777 375.744759,49.735 375.927759,49.702 C376.211759,49.682 376.490759,49.7 376.776759,49.728 C376.817759,49.732 376.860759,49.71 376.903759,49.704 C377.158759,49.722 377.417759,49.645 377.609759,49.452 C377.959759,49.102 377.963759,48.512 377.609759,48.161 C377.226759,47.782 376.700759,47.599 376.261759,47.294 C376.070759,47.138 375.884759,46.972 375.719759,46.791 C375.517759,46.57 375.333759,46.336 375.147759,46.102 C374.830759,45.675 374.567759,45.219 374.344759,44.737 C374.058759,44.019 373.850759,43.283 373.717759,42.521 C373.637759,41.764 373.669759,40.987 373.754759,40.231 C373.845759,39.67 373.981759,39.124 374.182759,38.593 C374.401759,38.118 374.647759,37.667 374.946759,37.235 C375.354759,36.743 375.819759,36.304 376.317759,35.905 C376.768759,35.594 377.245759,35.338 377.743759,35.11 C377.989759,35.02 378.235759,34.943 378.491759,34.882 C378.701759,34.832 378.914759,34.797 379.127759,34.767 C379.555759,34.722 379.979759,34.718 380.409759,34.728 C380.815759,34.737 381.219759,34.749 381.624759,34.791 C382.163759,34.88 382.687759,35.01 383.200759,35.201 C383.820759,35.486 384.363759,35.885 384.902759,36.299 C385.141759,36.493 385.355759,36.7 385.552759,36.937 C385.671759,37.096 385.786759,37.258 385.891759,37.427 C385.995759,37.592 386.077759,37.775 386.156759,37.953 C386.343759,38.414 386.511759,38.883 386.657759,39.357 C386.801759,39.823 386.896759,40.303 386.968759,40.786 C387.017759,41.287 386.988759,41.781 386.930759,42.278 C386.824759,42.985 386.644759,43.691 386.381759,44.357 C386.138759,44.868 385.832759,45.331 385.495759,45.782 C385.044759,46.347 384.549759,46.871 383.987759,47.325 C383.728759,47.512 383.453759,47.675 383.196759,47.866 C383.012759,48.007 382.869759,48.143 382.806759,48.375 C382.745759,48.595 382.776759,48.832 382.891759,49.03 C383.002759,49.218 383.186759,49.361 383.400759,49.42 C383.454759,49.435 383.521759,49.43 383.584759,49.434 C383.755759,49.511 383.969759,49.555 384.138759,49.488 C384.220759,49.456 384.299759,49.43 384.382759,49.41 C384.629759,49.4 384.879759,49.425 385.125759,49.456 C385.459759,49.51 385.778759,49.579 386.093759,49.694 C386.351759,49.82 386.600759,49.958 386.834759,50.122 C387.054759,50.322 387.253759,50.544 387.470759,50.75 C387.729759,50.999 388.024759,51.213 388.323759,51.415 C388.576759,51.585 388.850759,51.726 389.129759,51.847 C389.337759,51.938 389.543759,52.023 389.755759,52.1 C389.947759,52.171 390.155759,52.199 390.359759,52.227 C390.579759,52.257 390.797759,52.284 391.018759,52.296 C391.228759,52.306 391.440759,52.28 391.646759,52.248 C391.959759,52.202 392.256759,52.123 392.553759,52.014 C392.838759,51.911 393.123759,51.798 393.408759,51.693 C393.665759,51.596 393.919759,51.493 394.185759,51.428 C394.192759,51.428 394.199759,51.428 394.207759,51.428 C394.214759,51.43 394.220759,51.432 394.227759,51.433 C394.232759,51.438 394.236759,51.442 394.241759,51.447 C394.250759,51.462 394.258759,51.478 394.266759,51.493 C394.283759,51.542 394.297759,51.593 394.309759,51.644 C394.310759,51.686 394.308759,51.724 394.306759,51.762 Z M382.820759,42.37 C382.367759,42.37 381.989759,41.992 381.989759,41.539 C381.989759,41.086 382.367759,40.708 382.820759,40.708 C383.273759,40.708 383.651759,41.086 383.651759,41.539 C383.651759,41.992 383.273759,42.37 382.820759,42.37 Z M379.398759,41.349 C379.398759,41.769 379.048759,42.119 378.628759,42.119 C378.208759,42.119 377.858759,41.769 377.858759,41.349 C377.858759,40.929 378.208759,40.579 378.628759,40.579 C379.048759,40.579 379.398759,40.929 379.398759,41.349 Z" id="Shape"></path>
        </g>
    </g>
</svg>