<?xml version="1.0" encoding="UTF-8"?>
<svg width="22px" height="24px" viewBox="0 0 22 24" version="1.1" xmlns="http://www.w3.org/2000/svg" xmlns:xlink="http://www.w3.org/1999/xlink">
    <!-- Generator: Sketch 50 (54983) - http://www.bohemiancoding.com/sketch -->
    <title>Shape</title>
    <desc>Created with Sketch.</desc>
    <defs></defs>
    <g id="Symbols" stroke="none" stroke-width="1" fill="none" fill-rule="evenodd">
        <g id="HOME" transform="translate(-857.000000, -2521.000000)" fill="#EA612D" fill-rule="nonzero" stroke="#EA612D" stroke-width="0.55">
            <g id="Group-17" transform="translate(56.000000, 2235.000000)">
                <g id="Group-16">
                    <g id="Group" transform="translate(802.000000, 282.000000)">
                        <path d="M7.77161429,27 C7.61543148,27 7.46494283,26.9347857 7.34861918,26.8169286 C7.23392243,26.7006429 7.16884625,26.5474286 7.16884625,26.3957857 C7.16884625,26.0665714 7.44460653,25.801 7.79764475,25.7923571 C8.08560681,25.7845 8.37438232,25.7797857 8.66234437,25.7797857 L9.02270367,25.7774286 C9.14146768,25.7774286 9.26104514,25.7797857 9.37818225,25.7892143 L9.55876862,25.8041429 L9.55876862,25.1182143 C9.56039553,24.6593571 9.56527624,24.2020714 9.57666457,23.7416429 C9.57747802,23.6866429 9.59700087,23.6285 9.61815063,23.568 L9.67102502,23.4108571 L9.50589423,23.3660714 C8.9421719,23.2112857 8.388211,22.9755714 7.8529595,22.7461429 L7.72199371,22.6911429 C7.33479049,22.5269286 7.00859618,22.3556429 6.72307449,22.1686429 C6.38549185,21.9494286 6.05685719,21.7168571 5.72822253,21.4858571 C5.33044443,21.2061429 4.94812193,20.9232857 4.64714464,20.532 C4.44215471,20.2672143 4.28109118,19.9631429 4.12490837,19.6677143 L3.97523318,19.3864286 C3.79871407,19.0572143 3.61568734,18.717 3.47496012,18.3705 C3.39442836,18.1693571 3.32447147,17.9674286 3.26590292,17.7592143 C3.21221508,17.5667143 3.18537116,17.364 3.15934069,17.1652143 L3.14876581,17.0850714 C3.09507797,16.6812143 3.06416679,16.2742143 3.03406906,15.868 C3.0096655,15.5340714 2.98444848,15.2001429 2.94702968,14.8677857 L2.88602077,14.4882857 C2.8583634,14.328 2.85999031,14.2085714 2.89008804,14.1032857 L2.93076064,13.965 L2.79247378,13.9131429 C2.5899242,13.8353571 2.38981497,13.7552143 2.1905192,13.6719286 C2.04084401,13.6098571 1.48118894,13.3639286 1.48118894,13.3639286 C1.2729452,13.2727857 1.08178394,13.1588571 0.887368884,13.0441429 L0.744201309,12.9600714 C0.527009589,12.8359286 0.369199876,12.7212143 0.246368603,12.5962857 C-0.0131226269,12.3417143 -0.074944989,11.9590714 0.0958799589,11.6636429 C0.204882545,11.4735 0.404178317,11.3069286 0.579883978,11.16 C1.00287909,10.8095714 1.48037549,10.4921429 1.94160285,10.1857143 L2.09778566,10.082 C2.6460524,9.71507143 3.21221508,9.36071429 3.78163157,9.026 C3.83287906,8.99535714 3.89307452,8.97414286 3.96547176,8.95842857 L4.05332459,8.93957143 L4.12084111,8.74628571 C4.48852148,7.98021429 4.96764478,7.11121429 5.72740908,6.47557143 C5.99503483,6.25164286 6.30902735,5.99942857 6.64579653,5.84542857 C6.89389943,5.73228571 7.1460696,5.62307143 7.40393392,5.53035714 C7.91884912,5.34492857 8.32232138,5.22628571 8.71440531,5.143 C9.16099053,5.04714286 9.58642599,5 9.98013683,5 C10.4031319,5 10.80091,5.05578571 11.1612693,5.16578571 C11.6078545,5.30014286 12.0121403,5.47457143 12.3659919,5.68435714 C12.5433245,5.79042857 12.7165898,5.90278571 12.8866013,6.02221429 C13.1460925,6.20214286 13.3518959,6.34435714 13.5048249,6.51092857 C13.8562362,6.89357143 14.1450117,7.32571429 14.3605766,7.79557143 C14.532215,8.168 14.6981592,8.5475 14.845394,8.927 C14.9576504,9.22007143 15.0967507,9.609 15.1813498,10.0207143 C15.2513066,10.3585714 15.2984869,10.7019286 15.3440402,11.0429286 L15.3692572,11.2228571 L15.3684438,11.2228571 C15.4180643,11.5874286 15.4644311,11.952 15.509171,12.3173571 L15.6067852,13.0873571 C15.6913843,13.6051429 15.7735429,13.9972143 15.874411,14.3633571 C15.9720252,14.7216429 16.0704529,15.0720714 16.2079264,15.4162143 C16.3161155,15.6338571 16.4568427,15.9033571 16.6398694,16.1579286 C16.7610738,16.297 16.8782109,16.4148571 17.0099902,16.5264286 L17.1873227,16.6474286 C17.2833101,16.7118571 17.3801109,16.7762857 17.4736579,16.8454286 C17.5802201,16.9208571 17.6396021,16.9632857 17.69329,17.012 C17.7225742,17.0505 17.7673141,17.1055 17.8104271,17.1636429 C17.8836378,17.265 17.9104817,17.4724286 17.8673687,17.6091429 C17.8332037,17.7191429 17.7730083,17.8228571 17.6762075,17.9383571 L17.5558165,18.0821429 L17.7201339,18.1756429 C17.9950807,18.3327857 18.2692141,18.4875714 18.5579896,18.6227143 C18.7556584,18.6942143 18.9386852,18.7492143 19.1314733,18.7869286 C19.3218211,18.8246429 19.4674291,18.8529286 19.6154773,18.9173571 C19.7838619,18.9896429 19.9310968,19.157 19.9742097,19.3227857 C20.1002948,19.8146429 19.7350548,20.3520714 19.5064748,20.6270714 C19.3088059,20.8659286 19.0582626,21.0992857 18.6938361,21.3852857 C18.3399844,21.6618571 17.9535946,21.9494286 17.522465,22.1796429 C17.1653595,22.369 16.7976792,22.5347857 16.4299988,22.699 L16.1664403,22.8168571 C15.8410594,22.9614286 15.5156786,23.1083571 15.1789094,23.227 C14.3695245,23.5177143 13.4698465,23.5860714 12.69544,23.6143571 L12.5538994,23.6206429 C12.263497,23.6324286 11.973908,23.6442143 11.6835056,23.6442143 L11.4703811,23.6418571 C11.3101311,23.6379286 11.1506944,23.623 10.9920713,23.6088571 L10.8171791,23.5923571 L10.7822006,23.7589286 L10.7732527,24.0174286 C10.7610509,24.36 10.7488491,24.7017857 10.7447818,25.0435714 C10.741528,25.3932143 10.7382742,25.7106429 10.7699988,26.021 L10.8017235,26.2590714 C10.8179925,26.3887143 10.7220052,26.56 10.6243909,26.6558571 C10.5121345,26.7642857 10.3559517,26.8263571 10.1965151,26.8263571 L9.99396551,26.7823571 L9.85974591,26.9002143 C9.77026618,26.9505 9.67834609,26.9748571 9.5693435,26.9748571 C9.51890947,26.9748571 9.46766198,26.9693571 9.41478759,26.9607143 L9.25779133,26.9567857 C9.11299685,26.9567857 8.96738892,26.9622857 8.82340789,26.9677857 L7.77161429,27 Z M4.73987819,9.73235714 L4.7073401,9.81014286 C4.64551774,9.95471429 4.55766491,10.0607857 4.44296816,10.1275714 C3.57420128,10.6335714 2.65581382,11.1788571 1.80575634,11.8003571 L1.51047322,12.0321429 L1.72359768,12.1460714 C1.98552926,12.2859286 2.25884918,12.4085 2.53460945,12.5232143 L2.98526194,12.7086429 C3.30901588,12.8327857 3.57501473,12.9129286 3.84264048,12.9938571 C4.17940967,13.0952143 4.37301127,13.4212857 4.28271809,13.7355714 C4.26807595,13.7874286 4.23309751,13.8392857 4.19649216,13.8935 L4.15012539,13.9618571 L4.18103657,14.0380714 C4.2892257,14.6320714 4.34698081,15.1451429 4.37951889,15.6684286 C4.40392245,16.0526429 4.43320673,16.4368571 4.4779466,16.8195 C4.50560397,17.012 4.5340748,17.2013571 4.58938954,17.3828571 C4.64551774,17.5706429 4.71059391,17.7513571 4.78299115,17.9297143 C4.93347979,18.2290714 5.08884915,18.5135 5.24421851,18.7971429 L5.35566145,18.9998571 C5.49720212,19.2567857 5.63874279,19.5145 5.80794084,19.7557143 C5.97225817,19.9356429 6.14471002,20.0896429 6.38061114,20.2735 C6.8231291,20.5956429 7.24043004,20.8997143 7.67969419,21.1597857 C8.0636436,21.3884286 8.48094455,21.5652143 8.8844168,21.7357143 C9.32693476,21.9125 9.66207704,22.028 9.98339063,22.116 C10.3339885,22.2110714 10.6894671,22.2684286 10.9611601,22.3085 C11.336975,22.3375714 11.7030284,22.3501429 12.0715223,22.3501429 C12.5994527,22.3501429 13.1387715,22.3218571 13.674023,22.2668571 C13.9270066,22.2283571 14.1702288,22.1867143 14.4110106,22.1317143 C14.7087341,22.0680714 14.9861213,21.9604286 15.2317838,21.8653571 C15.2317838,21.8653571 15.3961011,21.7977857 15.4335199,21.7820714 C16.1631865,21.4819286 16.9872135,21.1032143 17.7250146,20.5728571 C17.9641695,20.389 18.2049513,20.202 18.42377,19.9977143 L18.6157447,19.8177857 L18.3627611,19.7329286 C18.193563,19.6755714 18.0251784,19.6103571 17.8616745,19.5349286 C17.6021833,19.4178571 17.3540804,19.2850714 17.1051641,19.1522857 C17.038461,19.1169286 16.9717579,19.0815714 16.9058683,19.0454286 C16.7903581,18.9833571 16.6927438,18.8914286 16.5918758,18.8089286 L16.4926346,18.8875 L16.4169836,18.9440714 C16.3340114,19.0069286 16.2518528,19.0697857 16.1656268,19.1295 C15.4164374,19.6465 14.6526059,19.9827857 13.8969088,20.1273571 C13.477981,20.2082857 13.0346496,20.2491429 12.5441379,20.2522857 C12.3456556,20.2522857 12.1479868,20.246 11.9503179,20.2310714 C11.7136033,20.2114286 11.4817695,20.1894286 11.268645,20.136 C10.8407692,20.026 10.4112665,19.8468571 10.0077942,19.6732143 C9.69136132,19.5372857 9.3773688,19.3919286 9.06825699,19.2434286 C8.31255995,18.8780714 7.63902159,18.2023571 7.17372697,17.342 C6.99070024,17.0033571 7.09482211,16.6112857 7.4161357,16.429 C7.51537686,16.3724286 7.63414087,16.3425714 7.76022596,16.3425714 C8.01971719,16.3425714 8.24585688,16.4651429 8.3507922,16.66 C8.46223515,16.869 8.58262606,17.0693571 8.72335328,17.2610714 C8.91288763,17.4755714 9.11136995,17.6892857 9.33913655,17.8778571 C9.61571027,18.0625 9.90204542,18.2015714 10.1786191,18.3375 C10.5536206,18.5205714 10.8879494,18.6722143 11.225532,18.816 C11.3646324,18.8717857 11.5029192,18.9236429 11.642833,18.9558571 C11.7860006,18.9904286 11.9283547,19.0179286 12.0707088,19.0407143 C12.3407749,19.0650714 12.5978258,19.0776429 12.8548767,19.0776429 C13.0639339,19.0776429 13.2713642,19.0697857 13.4812348,19.0517143 C13.8952819,18.9849286 14.2572681,18.8945714 14.598918,18.7727857 C15.1902977,18.5245 15.6637269,18.1937143 16.1005507,17.8707857 L16.4820597,17.5918571 L16.1753883,17.3734286 C15.9403006,17.1982143 15.7255492,16.9735 15.5360149,16.7047857 C15.2155148,16.2514286 14.9682253,15.714 14.778691,15.0610714 C14.6379637,14.5715714 14.523267,14.0427857 14.4191451,13.3985 C14.3597631,13.0182143 14.3142098,12.6347857 14.2702834,12.2521429 L14.2003265,11.6722857 L14.1702288,11.4562143 C14.1051526,10.9847857 14.0384495,10.4952857 13.9164317,10.0215 C13.7936004,9.53592857 13.5902374,9.06607143 13.393382,8.6135 C13.1924593,8.17114286 12.9947904,7.82228571 12.7662104,7.5135 C12.636058,7.36735714 12.5067192,7.24792857 12.3668054,7.13321429 C12.0088864,6.88021429 11.6469002,6.67042857 11.252376,6.485 C10.9709215,6.38207143 10.7081765,6.30821429 10.4340431,6.254 C10.2778603,6.2375 10.1395734,6.22807143 9.99721932,6.22807143 C9.82395402,6.22885714 9.67427882,6.24221429 9.52379018,6.25714286 C9.17807302,6.30664286 8.81771373,6.36871429 8.47036967,6.48185714 C8.1588175,6.58242857 7.85214605,6.69478571 7.54791495,6.81421429 C7.2802892,6.93835714 7.07041855,7.0515 6.88007075,7.17721429 C6.61976607,7.38621429 6.39850708,7.5905 6.19107679,7.81285714 C6.03326708,8.02185714 5.86406903,8.25678571 5.72740908,8.509 C5.56227829,8.81228571 5.4109762,9.11871429 5.26455481,9.42907143 C5.20273245,9.56185714 5.01645191,9.67421429 4.8602691,9.70957143 L4.73987819,9.73235714 Z M8.37194196,9.75121429 C8.07421848,9.75121429 7.82367522,9.50921429 7.82367522,9.22164286 C7.82367522,8.93407143 8.07503193,8.69285714 8.37194196,8.69285714 C8.66885199,8.69285714 8.9202087,8.93485714 8.9202087,9.22242857 C8.9202087,9.51 8.66966544,9.75121429 8.37194196,9.75121429 Z" id="Shape"></path>
                    </g>
                </g>
            </g>
        </g>
    </g>
</svg>