<?xml version="1.0" encoding="UTF-8"?>
<svg width="9px" height="9px" viewBox="0 0 9 9" version="1.1" xmlns="http://www.w3.org/2000/svg" xmlns:xlink="http://www.w3.org/1999/xlink">
    <!-- Generator: Sketch 48.2 (47327) - http://www.bohemiancoding.com/sketch -->
    <title>Group 26</title>
    <desc>Created with Sketch.</desc>
    <defs></defs>
    <g id="TABLEEE" stroke="none" stroke-width="1" fill="none" fill-rule="evenodd" transform="translate(-1154.000000, -1682.000000)">
        <g id="Group-26" transform="translate(1154.000000, 1682.000000)">
            <circle id="Oval-6" fill="#E4E4E6" cx="4.5" cy="4.5" r="4.5"></circle>
            <g id="Group-25" transform="translate(2.100000, 1.800000)" fill="#FFFFFF" fill-rule="nonzero">
                <path d="M4.34307692,3.85268571 L4.27126154,3.4272 C4.57624615,3.33758571 4.8,3.06218571 4.8,2.73214286 C4.8,1.95293571 4.28806154,1.30869643 3.88467692,1.13839286 L3.87230769,1.06535357 C3.76836923,0.450621429 3.22929231,0 2.59753846,0 L2.20246154,0 C1.57070769,0 1.03163077,0.450621429 0.927692308,1.06535357 L0.915323077,1.13839286 C0.511938462,1.30869643 0,1.95293571 0,2.73214286 C0,3.06218571 0.223753846,3.33758571 0.528738462,3.4272 L0.456923077,3.85268571 C0.180369231,4.05140357 0,4.37233929 0,4.73571429 L0,4.91785714 C0,5.0184 0.0827076923,5.1 0.184615385,5.1 L0.369230769,5.1 L0.369230769,4.91785714 C0.369230769,4.86758571 0.410584615,4.82678571 0.461538462,4.82678571 C0.512492308,4.82678571 0.553846154,4.86758571 0.553846154,4.91785714 L0.553846154,5.1 L0.738461538,5.1 L0.738461538,4.91785714 C0.738461538,4.86758571 0.779815385,4.82678571 0.830769231,4.82678571 C0.881723077,4.82678571 0.923076923,4.86758571 0.923076923,4.91785714 L0.923076923,5.1 L1.10769231,5.1 L1.10769231,4.91785714 C1.10769231,4.86758571 1.14904615,4.82678571 1.2,4.82678571 C1.25095385,4.82678571 1.29230769,4.86758571 1.29230769,4.91785714 L1.29230769,5.1 L2.03076923,5.1 C2.13267692,5.1 2.21538462,5.0184 2.21538462,4.91785714 L2.21538462,4.37142857 L2.58461538,4.37142857 L2.58461538,4.91785714 C2.58461538,5.0184 2.66732308,5.1 2.76923077,5.1 L3.50769231,5.1 L3.50769231,4.91785714 C3.50769231,4.86758571 3.54904615,4.82678571 3.6,4.82678571 C3.65095385,4.82678571 3.69230769,4.86758571 3.69230769,4.91785714 L3.69230769,5.1 L3.87692308,5.1 L3.87692308,4.91785714 C3.87692308,4.86758571 3.91827692,4.82678571 3.96923077,4.82678571 C4.02018462,4.82678571 4.06153846,4.86758571 4.06153846,4.91785714 L4.06153846,5.1 L4.24615385,5.1 L4.24615385,4.91785714 C4.24615385,4.86758571 4.28750769,4.82678571 4.33846154,4.82678571 C4.38941538,4.82678571 4.43076923,4.86758571 4.43076923,4.91785714 L4.43076923,5.1 L4.61538462,5.1 C4.71729231,5.1 4.8,5.0184 4.8,4.91785714 L4.8,4.73571429 C4.8,4.37233929 4.61963077,4.05140357 4.34307692,3.85268571 Z M2.68449231,1.82142857 L2.11550769,1.82142857 C1.7784,1.82142857 1.51956923,1.52690357 1.5672,1.19777143 L1.5936,1.01562857 C1.63255385,0.746421429 1.86627692,0.546428571 2.14190769,0.546428571 L2.65809231,0.546428571 C2.93372308,0.546428571 3.16744615,0.746421429 3.2064,1.01562857 L3.2328,1.19777143 C3.28043077,1.52690357 3.0216,1.82142857 2.68449231,1.82142857 Z M2.21538462,1.09285714 C2.21538462,1.1934 2.13267692,1.275 2.03076923,1.275 C1.92886154,1.275 1.84615385,1.1934 1.84615385,1.09285714 C1.84615385,0.992314286 1.92886154,0.910714286 2.03076923,0.910714286 C2.13267692,0.910714286 2.21538462,0.992314286 2.21538462,1.09285714 Z M2.95384615,1.09285714 C2.95384615,1.1934 2.87113846,1.275 2.76923077,1.275 C2.66732308,1.275 2.58461538,1.1934 2.58461538,1.09285714 C2.58461538,0.992314286 2.66732308,0.910714286 2.76923077,0.910714286 C2.87113846,0.910714286 2.95384615,0.992314286 2.95384615,1.09285714 Z" id="Shape"></path>
            </g>
        </g>
    </g>
</svg>