<?xml version="1.0" encoding="UTF-8"?>
<svg width="15px" height="17px" viewBox="0 0 15 17" version="1.1" xmlns="http://www.w3.org/2000/svg" xmlns:xlink="http://www.w3.org/1999/xlink">
    <!-- Generator: Sketch 50 (54983) - http://www.bohemiancoding.com/sketch -->
    <title>Shape</title>
    <desc>Created with Sketch.</desc>
    <defs></defs>
    <g id="Symbols" stroke="none" stroke-width="1" fill="none" fill-rule="evenodd">
        <g id="TABLEEE" transform="translate(-307.000000, -713.000000)" fill="#FFFFFF" fill-rule="nonzero" stroke="#FFFFFF" stroke-width="0.525">
            <path d="M313.051549,729 C312.95003,729 312.852213,728.955536 312.776602,728.875179 C312.70205,728.795893 312.65975,728.691429 312.65975,728.588036 C312.65975,728.363571 312.838994,728.1825 313.068469,728.176607 C313.255644,728.17125 313.443349,728.168036 313.630524,728.168036 L313.864757,728.166429 C313.941954,728.166429 314.019679,728.168036 314.095818,728.174464 L314.2132,728.184643 L314.2132,727.716964 C314.214257,727.404107 314.21743,727.092321 314.224832,726.778393 C314.225361,726.740893 314.238051,726.70125 314.251798,726.66 L314.286166,726.552857 L314.178831,726.522321 C313.812412,726.416786 313.452337,726.256071 313.104424,726.099643 L313.019296,726.062143 C312.767614,725.950179 312.555588,725.833393 312.369998,725.705893 C312.15057,725.556429 311.936957,725.397857 311.723345,725.240357 C311.464789,725.049643 311.216279,724.856786 311.020644,724.59 C310.887401,724.409464 310.782709,724.202143 310.68119,724.000714 L310.583902,723.808929 C310.469164,723.584464 310.350197,723.3525 310.258724,723.11625 C310.206378,722.979107 310.160906,722.841429 310.122837,722.699464 C310.08794,722.568214 310.070491,722.43 310.053571,722.294464 L310.046698,722.239821 C310.011801,721.964464 309.991708,721.686964 309.972145,721.41 C309.956283,721.182321 309.939892,720.954643 309.915569,720.728036 L309.875914,720.469286 C309.857936,720.36 309.858994,720.278571 309.878557,720.206786 L309.904994,720.1125 L309.815108,720.077143 C309.683451,720.024107 309.55338,719.969464 309.423837,719.912679 C309.326549,719.870357 308.962773,719.702679 308.962773,719.702679 C308.827414,719.640536 308.70316,719.562857 308.57679,719.484643 L308.483731,719.427321 C308.342556,719.342679 308.23998,719.264464 308.16014,719.179286 C307.99147,719.005714 307.951286,718.744821 308.062322,718.543393 C308.133174,718.41375 308.262716,718.300179 308.376925,718.2 C308.651871,717.961071 308.962244,717.744643 309.262042,717.535714 L309.363561,717.465 C309.719934,717.214821 310.08794,716.973214 310.458061,716.745 C310.491371,716.724107 310.530498,716.709643 310.577557,716.698929 L310.634661,716.686071 L310.678547,716.554286 C310.917539,716.031964 311.228969,715.439464 311.722816,715.006071 C311.896773,714.853393 312.100868,714.681429 312.319768,714.576429 C312.481035,714.499286 312.644945,714.424821 312.812557,714.361607 C313.147252,714.235179 313.409509,714.154286 313.664363,714.0975 C313.954644,714.032143 314.231177,714 314.487089,714 C314.762036,714 315.020592,714.038036 315.254825,714.113036 C315.545105,714.204643 315.807891,714.323571 316.037895,714.466607 C316.153161,714.538929 316.265783,714.615536 316.376291,714.696964 C316.54496,714.819643 316.678732,714.916607 316.778136,715.030179 C317.006554,715.291071 317.194258,715.585714 317.334375,715.906071 C317.44594,716.16 317.553803,716.41875 317.649506,716.6775 C317.722473,716.877321 317.812888,717.1425 317.867877,717.423214 C317.913349,717.653571 317.944016,717.887679 317.973626,718.120179 L317.990017,718.242857 L317.989488,718.242857 C318.021742,718.491429 318.05188,718.74 318.080961,718.989107 L318.14441,719.514107 C318.1994,719.867143 318.252803,720.134464 318.318367,720.384107 C318.381816,720.628393 318.445794,720.867321 318.535152,721.101964 C318.605475,721.250357 318.696948,721.434107 318.815915,721.607679 C318.894698,721.7025 318.970837,721.782857 319.056494,721.858929 L319.17176,721.941429 C319.234152,721.985357 319.297072,722.029286 319.357878,722.076429 C319.427143,722.127857 319.465741,722.156786 319.500638,722.19 C319.519673,722.21625 319.548754,722.25375 319.576778,722.293393 C319.624365,722.3625 319.641813,722.503929 319.61379,722.597143 C319.591582,722.672143 319.552455,722.742857 319.489535,722.821607 L319.411281,722.919643 L319.518087,722.983393 C319.696802,723.090536 319.874989,723.196071 320.062693,723.288214 C320.191178,723.336964 320.310145,723.374464 320.435458,723.400179 C320.559184,723.425893 320.653829,723.445179 320.75006,723.489107 C320.85951,723.538393 320.955213,723.6525 320.983236,723.765536 C321.065192,724.100893 320.827786,724.467321 320.679209,724.654821 C320.550724,724.817679 320.387871,724.976786 320.150993,725.171786 C319.92099,725.360357 319.669837,725.556429 319.389602,725.713393 C319.157484,725.8425 318.918491,725.955536 318.679499,726.0675 L318.508186,726.147857 C318.296689,726.246429 318.085191,726.346607 317.866291,726.4275 C317.340191,726.625714 316.7554,726.672321 316.252036,726.691607 L316.160035,726.695893 C315.971273,726.703929 315.78304,726.711964 315.594279,726.711964 L315.455748,726.710357 C315.351585,726.707679 315.247951,726.6975 315.144846,726.687857 L315.031166,726.676607 L315.00843,726.790179 L315.002614,726.966429 C314.994683,727.2 314.986752,727.433036 314.984108,727.666071 C314.981993,727.904464 314.979878,728.120893 315.000499,728.3325 L315.02112,728.494821 C315.031695,728.583214 314.969303,728.7 314.905854,728.765357 C314.832887,728.839286 314.731369,728.881607 314.627735,728.881607 L314.496078,728.851607 L314.408835,728.931964 C314.350673,728.96625 314.290925,728.982857 314.220073,728.982857 C314.187291,728.982857 314.15398,728.979107 314.119612,728.973214 L314.017564,728.970536 C313.923448,728.970536 313.828803,728.974286 313.735215,728.978036 L313.051549,729 Z M311.080921,717.226607 L311.059771,717.279643 C311.019587,717.378214 310.962482,717.450536 310.887929,717.496071 C310.323231,717.841071 309.726279,718.212857 309.173742,718.636607 L308.981808,718.794643 L309.120338,718.872321 C309.290594,718.967679 309.468252,719.05125 309.647496,719.129464 L309.94042,719.255893 C310.15086,719.340536 310.32376,719.395179 310.497716,719.450357 C310.716616,719.519464 310.842457,719.741786 310.783767,719.956071 C310.774249,719.991429 310.751513,720.026786 310.72772,720.06375 L310.697582,720.110357 L310.717674,720.162321 C310.787997,720.567321 310.825538,720.917143 310.846687,721.273929 C310.86255,721.535893 310.881584,721.797857 310.910665,722.05875 C310.928643,722.19 310.947149,722.319107 310.983103,722.442857 C311.019587,722.570893 311.061886,722.694107 311.108944,722.815714 C311.206762,723.019821 311.307752,723.21375 311.408742,723.407143 L311.48118,723.545357 C311.573181,723.720536 311.665183,723.89625 311.775162,724.060714 C311.881968,724.183393 311.994062,724.288393 312.147397,724.41375 C312.435034,724.633393 312.70628,724.840714 312.991801,725.018036 C313.241368,725.173929 313.512614,725.294464 313.774871,725.410714 C314.062508,725.53125 314.28035,725.61 314.489204,725.67 C314.717093,725.734821 314.948154,725.773929 315.124754,725.80125 C315.369034,725.821071 315.606968,725.829643 315.846489,725.829643 C316.189644,725.829643 316.540201,725.810357 316.888115,725.772857 C317.052554,725.746607 317.210649,725.718214 317.367157,725.680714 C317.560677,725.637321 317.740979,725.563929 317.900659,725.499107 C317.900659,725.499107 318.007466,725.453036 318.031788,725.442321 C318.506071,725.237679 319.041689,724.979464 319.521259,724.617857 C319.67671,724.4925 319.833218,724.365 319.97545,724.225714 L320.100234,724.103036 L319.935795,724.045179 C319.825816,724.006071 319.716366,723.961607 319.610088,723.910179 C319.441419,723.830357 319.280152,723.739821 319.118357,723.649286 C319.075,723.625179 319.031643,723.601071 318.988814,723.576429 C318.913733,723.534107 318.850283,723.471429 318.784719,723.415179 L318.720212,723.46875 L318.671039,723.507321 C318.617107,723.550179 318.563704,723.593036 318.507657,723.63375 C318.020684,723.98625 317.524194,724.215536 317.032991,724.314107 C316.760688,724.369286 316.472522,724.397143 316.15369,724.399286 C316.024676,724.399286 315.896191,724.395 315.767707,724.384821 C315.613842,724.371429 315.46315,724.356429 315.324619,724.32 C315.0465,724.245 314.767323,724.122857 314.505066,724.004464 C314.299385,723.911786 314.09529,723.812679 313.894367,723.711429 C313.403164,723.462321 312.965364,723.001607 312.662923,722.415 C312.543955,722.184107 312.611634,721.916786 312.820488,721.7925 C312.884995,721.753929 312.962192,721.733571 313.044147,721.733571 C313.212816,721.733571 313.359807,721.817143 313.428015,721.95 C313.500453,722.0925 313.578707,722.229107 313.67018,722.359821 C313.793377,722.506071 313.92239,722.651786 314.070439,722.780357 C314.250212,722.90625 314.43633,723.001071 314.616102,723.09375 C314.859853,723.218571 315.077167,723.321964 315.296596,723.42 C315.387011,723.458036 315.476897,723.493393 315.567841,723.515357 C315.6609,723.538929 315.753431,723.557679 315.845961,723.573214 C316.021504,723.589821 316.188587,723.598393 316.35567,723.598393 C316.491557,723.598393 316.626387,723.593036 316.762803,723.580714 C317.031933,723.535179 317.267224,723.473571 317.489297,723.390536 C317.873694,723.22125 318.181422,722.995714 318.465358,722.775536 L318.713339,722.585357 L318.514002,722.436429 C318.361195,722.316964 318.221607,722.16375 318.09841,721.980536 C317.890085,721.671429 317.729346,721.305 317.606149,720.859821 C317.514676,720.526071 317.440124,720.165536 317.372444,719.72625 C317.333846,719.466964 317.304236,719.205536 317.275684,718.944643 L317.230212,718.549286 L317.210649,718.401964 C317.168349,718.080536 317.124992,717.746786 317.045681,717.42375 C316.96584,717.092679 316.833654,716.772321 316.705698,716.46375 C316.575099,716.162143 316.446614,715.924286 316.298037,715.71375 C316.213438,715.614107 316.129367,715.532679 316.038423,715.454464 C315.805776,715.281964 315.570485,715.138929 315.314044,715.0125 C315.131099,714.942321 314.960315,714.891964 314.782128,714.855 C314.680609,714.84375 314.590723,714.837321 314.498193,714.837321 C314.38557,714.837857 314.288281,714.846964 314.190464,714.857143 C313.965747,714.890893 313.731514,714.933214 313.50574,715.010357 C313.303231,715.078929 313.103895,715.155536 312.906145,715.236964 C312.732188,715.321607 312.595772,715.39875 312.472046,715.484464 C312.302848,715.626964 312.15903,715.76625 312.0242,715.917857 C311.921624,716.060357 311.811645,716.220536 311.722816,716.3925 C311.615481,716.599286 311.517135,716.808214 311.421961,717.019821 C311.381776,717.110357 311.260694,717.186964 311.159175,717.211071 L311.080921,717.226607 Z M313.441762,717.239464 C313.248242,717.239464 313.085389,717.074464 313.085389,716.878393 C313.085389,716.682321 313.248771,716.517857 313.441762,716.517857 C313.634754,716.517857 313.798136,716.682857 313.798136,716.878929 C313.798136,717.075 313.635283,717.239464 313.441762,717.239464 Z" id="Shape"></path>
        </g>
    </g>
</svg>