<?xml version="1.0" encoding="UTF-8"?>
<svg width="18px" height="17px" viewBox="0 0 18 17" version="1.1" xmlns="http://www.w3.org/2000/svg" xmlns:xlink="http://www.w3.org/1999/xlink">
    <!-- Generator: Sketch 50 (54983) - http://www.bohemiancoding.com/sketch -->
    <title>Shape</title>
    <desc>Created with Sketch.</desc>
    <defs></defs>
    <g id="Symbols" stroke="none" stroke-width="1" fill="none" fill-rule="evenodd">
        <g id="TABLEEE" transform="translate(-305.000000, -1926.000000)" fill="#FFFFFF" fill-rule="nonzero" stroke="#FFFFFF" stroke-width="0.25">
            <path d="M321.892993,1936.3198 C321.774579,1936.06324 321.563354,1935.86781 321.28812,1935.78316 C321.024088,1935.70374 320.752589,1935.7863 320.505626,1935.87722 C320.18132,1935.99635 319.861281,1936.13587 319.51884,1936.197 C319.405226,1936.20432 319.293746,1936.19857 319.181199,1936.18812 C319.314015,1936.07107 319.43883,1935.94515 319.543909,1935.79884 C319.669791,1935.62275 319.76687,1935.44195 319.851146,1935.24444 C319.885817,1935.16083 319.916754,1935.07775 319.942891,1934.99206 C319.990363,1934.83164 319.992497,1934.65921 319.981829,1934.49356 C319.969027,1934.29291 319.920488,1934.08599 319.827677,1933.90729 C319.77167,1933.7986 319.700728,1933.70246 319.614318,1933.61467 C319.512972,1933.51017 319.393491,1933.45321 319.258541,1933.40148 C319.192934,1933.37588 319.113457,1933.36909 319.038248,1933.36909 C319.009445,1933.36909 318.981175,1933.37013 318.954505,1933.3717 C318.792885,1933.3811 318.644067,1933.44328 318.50165,1933.51435 C318.433908,1933.54831 318.375768,1933.60631 318.317094,1933.65386 C318.281357,1933.68365 318.244019,1933.71395 318.208281,1933.74374 C317.955984,1933.95536 317.715955,1934.18109 317.462058,1934.38854 C317.278569,1934.51865 317.080145,1934.62629 316.873186,1934.71616 C316.795844,1934.74385 316.718501,1934.76789 316.639558,1934.7914 C316.639025,1934.7914 316.639025,1934.79193 316.639025,1934.79193 C316.629424,1934.79036 316.619822,1934.78775 316.610755,1934.78566 C316.642225,1934.75692 316.678496,1934.73236 316.7089,1934.7031 C316.866252,1934.55209 317.003335,1934.38122 317.140952,1934.21192 C317.298304,1934.0165 317.453523,1933.81898 317.577272,1933.60057 C317.8109,1933.18881 317.942649,1932.74623 318.036527,1932.28798 C318.0904,1932.02828 318.11547,1931.75918 318.126138,1931.49478 C318.135739,1931.24344 318.100001,1930.99315 318.055196,1930.746 C318.016258,1930.52863 317.965585,1930.31387 317.897844,1930.10381 C317.83757,1929.91466 317.765028,1929.73021 317.693019,1929.54523 C317.605542,1929.32159 317.51113,1929.09951 317.395383,1928.88841 C317.343643,1928.79436 317.280169,1928.70866 317.215628,1928.62245 C317.12495,1928.50018 317.031072,1928.38052 316.923326,1928.27183 C316.756372,1928.10306 316.553681,1927.96772 316.362725,1927.82716 C316.180303,1927.69183 315.988813,1927.56746 315.788255,1927.45878 C315.563161,1927.33651 315.312998,1927.25395 315.067101,1927.18341 C314.829739,1927.116 314.582243,1927.06741 314.336346,1927.03867 C314.101118,1927.01097 313.866423,1927.00366 313.630128,1927.00052 C313.601857,1927 313.573587,1927 313.545317,1927 C313.317023,1927 313.092996,1927.0115 312.865235,1927.04389 C312.618272,1927.07786 312.37931,1927.12332 312.141948,1927.19699 C311.900318,1927.27276 311.66989,1927.39346 311.444797,1927.50737 C311.00741,1927.72997 310.639366,1928.05655 310.297991,1928.39985 C310.219582,1928.47718 310.150773,1928.56392 310.081965,1928.65119 C309.993421,1928.76248 309.907011,1928.87849 309.836069,1929.00285 C309.706986,1929.22753 309.59444,1929.46006 309.500028,1929.70199 C309.414684,1929.92145 309.364012,1930.15084 309.32134,1930.38075 C309.275468,1930.62791 309.245597,1930.88133 309.235996,1931.13267 C309.227462,1931.3631 309.222128,1931.59302 309.230662,1931.82345 C309.240263,1932.08315 309.298404,1932.34284 309.355477,1932.59522 C309.456823,1933.05348 309.628044,1933.50965 309.851537,1933.92349 C309.947549,1934.10219 310.062763,1934.26888 310.186511,1934.43034 C310.332129,1934.62054 310.477746,1934.81805 310.651101,1934.98578 C310.668169,1935.00198 310.686305,1935.01661 310.703907,1935.03281 C310.687905,1935.03961 310.671903,1935.0464 310.656435,1935.05371 C310.579625,1935.03333 310.499616,1935.02445 310.418006,1935.04483 C310.28839,1935.0767 310.160375,1935.10701 310.029159,1935.12896 C309.941148,1935.13314 309.855271,1935.12948 309.768327,1935.12321 C309.673916,1935.10492 309.584305,1935.07827 309.493627,1935.04483 C309.328807,1934.97011 309.172522,1934.88285 309.02317,1934.78095 C308.854083,1934.666 308.693531,1934.52753 308.511109,1934.43452 C308.284414,1934.318 308.02305,1934.22917 307.767552,1934.22917 C307.58993,1934.22917 307.415509,1934.27201 307.256557,1934.37756 C306.81437,1934.67018 306.718892,1935.28467 306.885845,1935.75338 C306.964788,1935.97284 307.065067,1936.19491 307.201617,1936.38668 C307.300829,1936.52724 307.406442,1936.65787 307.544592,1936.76342 C307.652338,1936.84389 307.759018,1936.91757 307.876365,1936.98393 C308.146264,1937.13807 308.430565,1937.26923 308.726068,1937.36694 C308.601786,1937.55139 308.479638,1937.73794 308.345222,1937.91507 C308.287615,1937.98143 308.227341,1938.04257 308.161733,1938.10109 C308.07959,1938.15544 307.993179,1938.2009 307.903568,1938.24165 C307.843294,1938.26308 307.782487,1938.2798 307.719546,1938.29182 C307.625668,1938.29861 307.53179,1938.29704 307.438445,1938.2892 C307.210685,1938.24427 306.978123,1938.1638 306.745028,1938.1941 C306.59621,1938.21396 306.461794,1938.25315 306.331112,1938.32839 C306.224432,1938.39162 306.132688,1938.48881 306.079881,1938.59854 C305.971068,1938.82584 305.979602,1939.06516 306.068146,1939.29768 C306.108151,1939.40323 306.151357,1939.50669 306.210564,1939.60284 C306.270838,1939.70212 306.354048,1939.79199 306.430324,1939.88134 C306.48633,1939.94875 306.558339,1940.00466 306.626614,1940.059 C306.720492,1940.13581 306.81757,1940.2027 306.92425,1940.2607 C307.106672,1940.35998 307.318964,1940.4232 307.521656,1940.4718 C307.654472,1940.50263 307.793155,1940.51412 307.929171,1940.52562 C308.036918,1940.53503 308.144664,1940.53503 308.253477,1940.52562 C308.733002,1940.48434 309.197592,1940.37147 309.634444,1940.17291 C309.76246,1940.11491 309.889942,1940.05169 310.01049,1939.97958 C310.157174,1939.89075 310.292657,1939.78206 310.424407,1939.67338 C310.532153,1939.5835 310.626031,1939.47691 310.722043,1939.37554 C310.762047,1939.33321 310.796185,1939.28618 310.833523,1939.24177 C310.830856,1939.2773 310.826055,1939.31231 310.823922,1939.34784 C310.813254,1939.5464 310.81112,1939.74705 310.828189,1939.94457 C310.848458,1940.18336 310.891663,1940.41223 310.964205,1940.64058 C311.028746,1940.84541 311.101288,1941.06069 311.22397,1941.23835 C311.351985,1941.42437 311.50187,1941.60255 311.684292,1941.73997 C311.827776,1941.8497 311.962193,1941.93853 312.143548,1941.98086 C312.284898,1942.01273 312.420381,1942.00071 312.560665,1941.97459 C312.68548,1941.95055 312.79536,1941.88471 312.892438,1941.80999 C313.025254,1941.70862 313.104731,1941.5388 313.141535,1941.38152 C313.171939,1941.25402 313.171939,1941.11346 313.169805,1940.98335 C313.164471,1940.59668 313.10153,1940.20897 313.139935,1939.8223 C313.166605,1939.66815 313.205009,1939.5161 313.26315,1939.36979 C313.299954,1939.28775 313.337292,1939.20572 313.374097,1939.12316 C313.384765,1939.1404 313.395966,1939.15817 313.407167,1939.17541 C313.521314,1939.35098 313.644529,1939.5208 313.774678,1939.68644 C313.910695,1939.86149 314.048311,1940.0381 314.201397,1940.19852 C314.331012,1940.3349 314.471829,1940.4603 314.614247,1940.5831 C314.937486,1940.86213 315.343935,1941.07636 315.750384,1941.21013 C316.169635,1941.34651 316.62889,1941.40765 317.070544,1941.37473 C317.218295,1941.36428 317.364979,1941.3439 317.505796,1941.29635 C317.658881,1941.24462 317.805566,1941.18035 317.946383,1941.10197 C318.222149,1940.94678 318.438176,1940.72 318.582193,1940.44202 C318.664336,1940.28055 318.711275,1940.12223 318.726744,1939.94352 C318.738479,1939.81916 318.716076,1939.6901 318.657936,1939.57932 C318.594461,1939.45914 318.489915,1939.37031 318.376835,1939.2982 C318.257354,1939.22191 318.103202,1939.17018 317.963985,1939.13988 C317.821034,1939.10957 317.673283,1939.09651 317.527132,1939.07979 C317.466325,1939.06934 317.407651,1939.05575 317.349511,1939.03746 C317.283369,1939.00297 317.221495,1938.96326 317.160688,1938.92094 C317.072144,1938.84778 316.992134,1938.7715 316.917992,1938.68423 C316.816646,1938.54524 316.732369,1938.39423 316.65716,1938.23956 C316.754239,1938.30279 316.855051,1938.36183 316.957997,1938.41252 C317.167089,1938.51598 317.387915,1938.61003 317.615676,1938.66594 C317.847171,1938.72395 318.083466,1938.76732 318.320828,1938.79396 C318.542722,1938.81905 318.762482,1938.83211 318.984908,1938.83524 C319.221204,1938.83838 319.462299,1938.80232 319.694328,1938.76575 C319.890618,1938.73596 320.082108,1938.65393 320.26453,1938.58391 C320.478956,1938.50135 320.688048,1938.40677 320.893939,1938.30488 C321.104098,1938.19933 321.299322,1938.07497 321.468409,1937.91194 C321.542551,1937.84035 321.605492,1937.7557 321.6679,1937.67523 C321.719639,1937.60887 321.769245,1937.54094 321.80925,1937.46727 C321.885526,1937.32671 321.938332,1937.17779 321.967669,1937.02155 C321.987938,1936.916 322.007674,1936.80627 321.997006,1936.69863 C321.984738,1936.5565 321.951667,1936.44782 321.892993,1936.3198 Z M318.854226,1934.237 C318.88463,1934.21662 318.915033,1934.19886 318.947571,1934.18214 C318.96784,1934.17535 318.988642,1934.16855 319.009445,1934.1628 C319.016379,1934.1628 319.023846,1934.1628 319.030781,1934.16333 C319.039848,1934.17221 319.048916,1934.18109 319.057984,1934.1905 C319.07772,1934.21976 319.094788,1934.24902 319.111857,1934.28037 C319.13266,1934.34046 319.148128,1934.40055 319.16093,1934.46326 C319.166264,1934.53693 319.166797,1934.61061 319.163063,1934.68481 C319.145995,1934.76632 319.121992,1934.84366 319.092121,1934.92308 C319.021179,1935.07461 318.940103,1935.21622 318.840891,1935.35364 C318.727277,1935.4848 318.602996,1935.60237 318.466979,1935.7121 C318.414706,1935.74972 318.3603,1935.78577 318.306426,1935.82183 C318.281357,1935.80563 318.255754,1935.79204 318.231217,1935.77532 C318.093601,1935.66194 317.968786,1935.53914 317.84237,1935.41373 C317.768761,1935.34058 317.686618,1935.27997 317.603941,1935.21988 C317.785297,1935.10962 317.959718,1934.98735 318.125071,1934.84993 C318.368834,1934.64719 318.605129,1934.43347 318.854226,1934.237 Z M307.956908,1935.99792 C307.876898,1935.88035 307.80969,1935.75808 307.747283,1935.63058 C307.711545,1935.53705 307.682742,1935.44352 307.661939,1935.34581 C307.661406,1935.3108 307.661939,1935.27579 307.664073,1935.24078 C307.672607,1935.20263 307.683275,1935.16606 307.696077,1935.13 C307.703011,1935.11694 307.710478,1935.1044 307.717946,1935.09186 C307.722747,1935.08716 307.727547,1935.08298 307.732348,1935.07827 C307.732881,1935.07775 307.733414,1935.07775 307.733948,1935.07723 C307.734481,1935.07723 307.735015,1935.07723 307.735015,1935.0767 C307.757417,1935.07618 307.77982,1935.07618 307.802223,1935.0767 C307.865697,1935.09134 307.927038,1935.10858 307.988912,1935.13 C308.1612,1935.2157 308.315352,1935.32856 308.471104,1935.44038 C308.63699,1935.55952 308.803944,1935.67186 308.989566,1935.76017 C309.115448,1935.82026 309.245064,1935.87199 309.37628,1935.91745 C309.455756,1935.94462 309.538433,1935.95978 309.621643,1935.97127 C309.536299,1936.09198 309.453622,1936.21529 309.378413,1936.34331 C309.322407,1936.43841 309.261066,1936.52985 309.203992,1936.62391 C309.056241,1936.59151 308.912224,1936.54814 308.769806,1936.4938 C308.532978,1936.39086 308.298283,1936.27381 308.088124,1936.12594 C308.040652,1936.0857 307.99798,1936.04338 307.956908,1935.99792 Z M317.919713,1939.93673 C317.919713,1939.93673 317.919713,1939.93621 317.919713,1939.93673 L317.91918,1939.93621 C317.919713,1939.93621 317.919713,1939.93621 317.919713,1939.93673 Z M321.098764,1936.80366 C321.085429,1936.87159 321.06676,1936.93795 321.043291,1937.00379 C320.994751,1937.1015 320.934477,1937.19399 320.869403,1937.28177 C320.822997,1937.33402 320.773925,1937.38366 320.722185,1937.43069 C320.533362,1937.56028 320.326404,1937.65799 320.116245,1937.75048 C319.85008,1937.85812 319.584981,1937.9574 319.299613,1938.00704 C318.989709,1938.03943 318.682472,1938.03055 318.373101,1937.99763 C318.096801,1937.95426 317.826368,1937.89051 317.563937,1937.79385 C317.394316,1937.71704 317.235364,1937.62664 317.079078,1937.52318 C316.920659,1937.41867 316.770774,1937.30372 316.612355,1937.19921 C316.537146,1937.14957 316.46567,1937.09889 316.384061,1937.05865 C316.273114,1937.00483 316.149899,1936.94265 316.020817,1936.95728 C315.8848,1936.97191 315.788255,1937.00692 315.683709,1937.09784 C315.613834,1937.15793 315.571696,1937.25617 315.546626,1937.34082 C315.52529,1937.41136 315.520489,1937.48869 315.521023,1937.56237 C315.523156,1937.71965 315.55036,1937.88215 315.595165,1938.03212 C315.626636,1938.1408 315.679442,1938.24427 315.727981,1938.34668 C315.766919,1938.42924 315.804257,1938.51337 315.846396,1938.59488 C315.932806,1938.75948 316.021883,1938.92407 316.12963,1939.07613 C316.272047,1939.27887 316.450735,1939.43824 316.649159,1939.58716 C316.811846,1939.70943 316.992134,1939.81289 317.194825,1939.85731 C317.366579,1939.89493 317.542067,1939.90486 317.717022,1939.92262 C317.777829,1939.9336 317.83757,1939.94823 317.896243,1939.96652 C317.888776,1939.99473 317.879708,1940.02243 317.869574,1940.05012 C317.840237,1940.10969 317.807166,1940.16769 317.770362,1940.22308 C317.73089,1940.26697 317.688752,1940.30773 317.643946,1940.34639 C317.546868,1940.4138 317.443922,1940.47075 317.336176,1940.52039 C317.244431,1940.55436 317.15162,1940.58258 317.054542,1940.60086 C316.853451,1940.61863 316.654493,1940.61288 316.452869,1940.59355 C316.267246,1940.56376 316.086958,1940.51517 315.910403,1940.45351 C315.672508,1940.34796 315.442613,1940.22255 315.229254,1940.07416 C314.89428,1939.8061 314.61798,1939.48161 314.351815,1939.14824 C314.235001,1938.99879 314.122987,1938.84622 314.025375,1938.68319 C313.971502,1938.59436 313.918696,1938.50448 313.86909,1938.412 C313.778412,1938.24636 313.692535,1938.07915 313.491978,1938.02115 C313.170872,1937.92814 312.923909,1938.1847 312.760156,1938.41618 C312.656676,1938.56301 312.597469,1938.7391 312.518526,1938.89899 C312.467854,1939.00036 312.417181,1939.10382 312.383577,1939.21146 C312.356374,1939.30238 312.340372,1939.39644 312.323303,1939.48893 C312.285432,1939.71152 312.277964,1939.92942 312.287565,1940.15515 C312.301967,1940.48225 312.362241,1940.80569 312.337171,1941.1328 C312.299833,1941.11294 312.263562,1941.09099 312.228891,1941.06696 C312.13448,1940.98962 312.045936,1940.90654 311.965393,1940.8151 C311.910986,1940.73881 311.865114,1940.66095 311.824042,1940.57735 C311.7467,1940.38036 311.684826,1940.17866 311.645888,1939.97017 C311.60855,1939.60911 311.620285,1939.24543 311.664557,1938.88488 C311.700828,1938.64243 311.740299,1938.39946 311.773903,1938.15596 C311.789905,1938.04205 311.794172,1937.94799 311.731765,1937.84453 C311.677891,1937.75466 311.589347,1937.68725 311.485868,1937.65956 C311.407992,1937.63813 311.327449,1937.64806 311.251173,1937.6721 C311.08582,1937.64127 310.913532,1937.71181 310.819654,1937.85864 C310.681504,1938.07653 310.545488,1938.29809 310.391336,1938.50448 C310.203046,1938.73283 309.996621,1938.94915 309.763527,1939.13465 C309.694718,1939.18586 309.624843,1939.23498 309.550701,1939.27782 C309.437087,1939.34157 309.320273,1939.39905 309.200792,1939.45287 C308.945294,1939.5464 308.68553,1939.61067 308.416697,1939.65248 C308.332954,1939.66188 308.24921,1939.66972 308.1644,1939.67233 C308.065721,1939.67495 307.96811,1939.66658 307.871031,1939.65561 C307.708878,1939.6274 307.550459,1939.58612 307.39524,1939.53073 C307.327499,1939.49781 307.262958,1939.46123 307.199483,1939.41943 C307.113606,1939.34732 307.03733,1939.26999 306.965322,1939.18481 C306.942385,1939.1519 306.921583,1939.11793 306.903447,1939.08188 C306.90078,1939.07404 306.89758,1939.06672 306.894913,1939.05889 C307.024529,1939.0871 307.152011,1939.12525 307.28376,1939.14301 C307.529657,1939.17593 307.761151,1939.18116 308.004914,1939.11898 C308.204405,1939.06829 308.400695,1938.96588 308.575116,1938.85928 C308.823146,1938.70827 308.986899,1938.47261 309.150653,1938.2427 C309.272267,1938.07392 309.385348,1937.90044 309.498961,1937.72749 C309.616309,1937.5493 309.733123,1937.37269 309.841936,1937.19085 C309.941148,1937.02416 310.035026,1936.85487 310.132105,1936.68713 C310.219048,1936.53769 310.31666,1936.39661 310.420673,1936.25866 C310.472946,1936.19857 310.524685,1936.14057 310.579625,1936.08309 C310.622831,1936.03815 310.671903,1935.99844 310.720976,1935.9603 C310.81272,1935.89812 310.907665,1935.84377 311.007944,1935.79779 C311.101822,1935.76644 311.197833,1935.74449 311.295445,1935.72725 C311.44693,1935.7168 311.595748,1935.72621 311.7483,1935.74084 C311.770169,1935.74293 311.793105,1935.73143 311.816042,1935.7283 C311.952058,1935.7377 312.090208,1935.69747 312.19262,1935.59662 C312.37931,1935.41373 312.381443,1935.10544 312.19262,1934.92204 C311.988329,1934.724 311.707762,1934.62838 311.4736,1934.46901 C311.371721,1934.38749 311.272509,1934.30075 311.184498,1934.20617 C311.076752,1934.0907 310.978607,1933.96842 310.879395,1933.84615 C310.710308,1933.62303 310.570024,1933.38476 310.451076,1933.1329 C310.298525,1932.75773 310.187578,1932.37315 310.116636,1931.97498 C310.073964,1931.57943 310.091033,1931.17343 310.136372,1930.7784 C310.184911,1930.48526 310.257453,1930.19996 310.364666,1929.9225 C310.48148,1929.67429 310.612696,1929.43863 310.772182,1929.2129 C310.989808,1928.95582 311.237838,1928.72643 311.50347,1928.51794 C311.744033,1928.35544 311.998464,1928.22167 312.264096,1928.10253 C312.395312,1928.05551 312.526527,1928.01527 312.663077,1927.9834 C312.775091,1927.95727 312.888705,1927.93898 313.002318,1927.92331 C313.230613,1927.89979 313.456773,1927.8977 313.686134,1927.90293 C313.902694,1927.90763 314.118187,1927.9139 314.334213,1927.93585 C314.621714,1927.98235 314.901215,1928.05028 315.174848,1928.15008 C315.505554,1928.299 315.795189,1928.50749 316.082691,1928.72382 C316.210173,1928.82519 316.32432,1928.93335 316.429399,1929.05719 C316.492874,1929.14027 316.554214,1929.22492 316.610221,1929.31323 C316.665695,1929.39945 316.709433,1929.49507 316.751572,1929.58808 C316.851317,1929.82896 316.940928,1930.07403 317.018804,1930.32171 C317.095613,1930.5652 317.146286,1930.81602 317.184691,1931.0684 C317.210827,1931.33018 317.195359,1931.58831 317.164422,1931.84801 C317.107881,1932.21744 317.01187,1932.58634 316.871586,1932.93434 C316.741971,1933.20135 316.578751,1933.44328 316.398996,1933.67894 C316.158433,1933.97417 315.894401,1934.24798 315.594632,1934.4852 C315.456482,1934.58292 315.309797,1934.66809 315.172714,1934.76789 C315.074569,1934.84157 314.998293,1934.91263 314.964689,1935.03386 C314.932152,1935.14881 314.948687,1935.27265 315.010028,1935.37611 C315.069235,1935.47435 315.16738,1935.54907 315.281527,1935.5799 C315.310331,1935.58774 315.346068,1935.58512 315.379672,1935.58721 C315.470883,1935.62745 315.585031,1935.65044 315.675175,1935.61543 C315.718913,1935.59871 315.761052,1935.58512 315.805324,1935.57467 C315.937073,1935.56945 316.070423,1935.58251 316.201639,1935.59871 C316.379793,1935.62693 316.549947,1935.66298 316.717968,1935.72307 C316.855584,1935.78891 316.9884,1935.86102 317.113215,1935.94671 C317.230563,1936.05122 317.336709,1936.16722 317.452456,1936.27486 C317.590606,1936.40497 317.747959,1936.51679 317.907445,1936.62234 C318.042394,1936.71117 318.188545,1936.78485 318.337363,1936.84807 C318.44831,1936.89562 318.55819,1936.94004 318.67127,1936.98027 C318.773683,1937.01737 318.88463,1937.032 318.993443,1937.04663 C319.11079,1937.06231 319.227071,1937.07642 319.344952,1937.08269 C319.456965,1937.08791 319.570046,1937.07433 319.679926,1937.05761 C319.846879,1937.03357 320.005298,1936.99229 320.163718,1936.93533 C320.315736,1936.88151 320.467754,1936.82247 320.619773,1936.7676 C320.756856,1936.71692 320.892339,1936.6631 321.034223,1936.62913 C321.037957,1936.62913 321.04169,1936.62913 321.045958,1936.62913 C321.049691,1936.63018 321.052892,1936.63122 321.056626,1936.63175 C321.059293,1936.63436 321.061426,1936.63645 321.064093,1936.63906 C321.068894,1936.6469 321.073161,1936.65526 321.077428,1936.6631 C321.086496,1936.6887 321.093963,1936.71535 321.100364,1936.742 C321.100898,1936.76395 321.099831,1936.7838 321.098764,1936.80366 Z M314.972156,1931.89608 C314.730527,1931.89608 314.528903,1931.69857 314.528903,1931.46186 C314.528903,1931.22516 314.730527,1931.02764 314.972156,1931.02764 C315.213786,1931.02764 315.41541,1931.22516 315.41541,1931.46186 C315.41541,1931.69857 315.213786,1931.89608 314.972156,1931.89608 Z M313.146869,1931.36258 C313.146869,1931.58204 312.96018,1931.76493 312.736153,1931.76493 C312.512126,1931.76493 312.325436,1931.58204 312.325436,1931.36258 C312.325436,1931.14312 312.512126,1930.96023 312.736153,1930.96023 C312.96018,1930.96023 313.146869,1931.14312 313.146869,1931.36258 Z" id="Shape"></path>
        </g>
    </g>
</svg>