<?xml version="1.0" encoding="UTF-8"?>
<svg width="22px" height="21px" viewBox="0 0 22 21" version="1.1" xmlns="http://www.w3.org/2000/svg" xmlns:xlink="http://www.w3.org/1999/xlink">
    <!-- Generator: Sketch 48.2 (47327) - http://www.bohemiancoding.com/sketch -->
    <title>Shape</title>
    <desc>Created with Sketch.</desc>
    <defs></defs>
    <g id="Desktop-HD" stroke="none" stroke-width="1" fill="none" fill-rule="evenodd" transform="translate(-495.000000, -517.000000)">
        <path d="M515.866242,529.805076 C515.718224,529.480099 515.454192,529.232561 515.11015,529.125338 C514.78011,529.024734 514.440736,529.129309 514.132032,529.244474 C513.72665,529.39538 513.326601,529.572099 512.89855,529.649537 C512.756532,529.658804 512.617182,529.651523 512.476499,529.638286 C512.642519,529.490027 512.798537,529.330517 512.929887,529.145194 C513.087239,528.922145 513.208587,528.693138 513.313933,528.442952 C513.357272,528.337053 513.395943,528.231816 513.428614,528.12327 C513.487954,527.920077 513.490621,527.70166 513.477286,527.491848 C513.461284,527.237691 513.40061,526.975591 513.284596,526.749232 C513.214588,526.611564 513.12591,526.48978 513.017897,526.378586 C512.891215,526.246213 512.741864,526.174069 512.573177,526.108544 C512.491167,526.076113 512.391822,526.067508 512.29781,526.067508 C512.261806,526.067508 512.226468,526.068832 512.193131,526.070818 C511.991106,526.082731 511.805084,526.161493 511.627062,526.251508 C511.542386,526.294529 511.46971,526.367996 511.396368,526.428226 C511.351696,526.465953 511.305024,526.504341 511.260351,526.542068 C510.94498,526.810124 510.644944,527.096051 510.327572,527.358813 C510.098211,527.523618 509.850181,527.659962 509.591483,527.773804 C509.494805,527.808883 509.398126,527.839329 509.299448,527.869113 C509.298781,527.869113 509.298781,527.869775 509.298781,527.869775 C509.286779,527.867789 509.274778,527.86448 509.263443,527.861832 C509.302781,527.825429 509.34812,527.794322 509.386125,527.757257 C509.582815,527.565977 509.754169,527.349546 509.92619,527.135101 C510.122881,526.887563 510.316904,526.637377 510.471589,526.360716 C510.763625,525.839164 510.928311,525.278562 511.045659,524.698103 C511.113,524.369155 511.144337,524.028293 511.157672,523.693388 C511.169674,523.375029 511.125002,523.057995 511.068995,522.744931 C511.020322,522.469594 510.956981,522.197566 510.872305,521.931496 C510.796962,521.691899 510.706284,521.45826 510.616274,521.223959 C510.506927,520.940679 510.388913,520.659385 510.244229,520.391991 C510.179554,520.272854 510.100211,520.164308 510.019535,520.0551 C509.906188,519.900223 509.78884,519.748655 509.654157,519.610987 C509.445465,519.397203 509.192101,519.225779 508.953406,519.047737 C508.725378,518.876313 508.486016,518.718789 508.235319,518.58112 C507.953952,518.426243 507.641247,518.321668 507.333877,518.232316 C507.037174,518.146935 506.727803,518.085381 506.420433,518.048978 C506.126397,518.013899 505.833028,518.004633 505.537659,518.000662 C505.502322,518 505.466984,518 505.431647,518 C505.146279,518 504.866245,518.014561 504.581544,518.055597 C504.27284,518.098618 503.974137,518.156201 503.677434,518.249524 C503.375398,518.345495 503.087363,518.498387 502.805996,518.642674 C502.259263,518.92463 501.799207,519.338297 501.372489,519.773144 C501.274477,519.871101 501.188467,519.980971 501.102456,520.091503 C500.991776,520.232481 500.883763,520.379415 500.795086,520.53694 C500.633733,520.821543 500.493049,521.116074 500.375035,521.422519 C500.268356,521.700504 500.205015,521.991064 500.151675,522.282286 C500.094335,522.595349 500.056997,522.916355 500.044995,523.234713 C500.034327,523.526597 500.02766,523.817819 500.038328,524.109703 C500.050329,524.438651 500.123005,524.7676 500.194347,525.087282 C500.321029,525.66774 500.535054,526.245551 500.814422,526.76975 C500.934436,526.996109 501.078454,527.207245 501.233139,527.411762 C501.415161,527.652682 501.597183,527.902868 501.813876,528.115328 C501.835212,528.135846 501.857881,528.154378 501.879884,528.174896 C501.859881,528.1835 501.839879,528.192104 501.820543,528.20137 C501.724532,528.175558 501.62452,528.164306 501.522507,528.190119 C501.360488,528.230493 501.200468,528.268881 501.036448,528.296679 C500.926435,528.301974 500.819089,528.297341 500.710409,528.289399 C500.592395,528.266233 500.480381,528.232478 500.367034,528.190119 C500.161009,528.095472 499.965652,527.98494 499.778963,527.855875 C499.567604,527.710264 499.366913,527.534869 499.138886,527.417057 C498.855518,527.26946 498.528812,527.156943 498.20944,527.156943 C497.987413,527.156943 497.769387,527.211216 497.570696,527.344913 C497.017963,527.715559 496.898615,528.493916 497.107307,529.087612 C497.205985,529.365596 497.331334,529.64689 497.502021,529.889796 C497.626036,530.067838 497.758052,530.233305 497.93074,530.367002 C498.065423,530.46893 498.198772,530.562253 498.345456,530.646311 C498.682831,530.841562 499.038207,531.00769 499.407585,531.13146 C499.252233,531.365099 499.099548,531.601386 498.931527,531.825759 C498.859519,531.909816 498.784176,531.987255 498.702166,532.061384 C498.599487,532.130218 498.491474,532.187801 498.37946,532.239427 C498.304118,532.266563 498.228109,532.287743 498.149433,532.302966 C498.032085,532.31157 497.914738,532.309585 497.798057,532.299657 C497.513356,532.242736 497.222654,532.140808 496.931285,532.179197 C496.745263,532.204348 496.577243,532.253988 496.413889,532.349297 C496.28054,532.429383 496.165859,532.55249 496.099851,532.691482 C495.963835,532.979395 495.974503,533.282531 496.085183,533.577062 C496.135189,533.710759 496.189196,533.841809 496.263205,533.963593 C496.338547,534.089348 496.44256,534.203189 496.537904,534.316368 C496.607913,534.401749 496.697924,534.472569 496.783267,534.541403 C496.900615,534.638698 497.021963,534.723417 497.155312,534.796884 C497.38334,534.922639 497.648705,535.002725 497.902069,535.064279 C498.06809,535.103329 498.241444,535.11789 498.411464,535.132451 C498.546147,535.144365 498.68083,535.144365 498.816847,535.132451 C499.416253,535.080164 499.996989,534.9372 500.543055,534.685691 C500.703075,534.612223 500.862427,534.532137 501.013112,534.440799 C501.196468,534.328282 501.365822,534.190613 501.530508,534.052945 C501.665191,533.939104 501.782539,533.804082 501.902553,533.67568 C501.952559,533.622069 501.995231,533.562501 502.041903,533.506242 C502.03857,533.551249 502.032569,533.595594 502.029902,533.640601 C502.016567,533.892111 502.0139,534.146268 502.035236,534.396454 C502.060572,534.698928 502.114579,534.988826 502.205256,535.278062 C502.285933,535.537515 502.376611,535.810204 502.529962,536.035239 C502.689982,536.270864 502.877338,536.496561 503.105365,536.670632 C503.28472,536.809625 503.452741,536.922142 503.679435,536.975754 C503.856123,537.016128 504.025477,537.000905 504.200831,536.967811 C504.35685,536.937365 504.4942,536.85397 504.615548,536.759323 C504.781568,536.63092 504.880913,536.415813 504.926919,536.216591 C504.964924,536.055095 504.964924,535.877053 504.962257,535.712248 C504.955589,535.222465 504.876913,534.731359 504.924919,534.241577 C504.958256,534.046326 505.006262,533.853723 505.078937,533.6684 C505.124943,533.564486 505.171615,533.460573 505.217621,533.355998 C505.230956,533.37784 505.244957,533.400343 505.258959,533.422185 C505.401643,533.644572 505.555662,533.859679 505.718348,534.069492 C505.888369,534.291217 506.060389,534.514929 506.251746,534.718122 C506.413765,534.89087 506.589787,535.049718 506.767808,535.205257 C507.171857,535.558694 507.679918,535.83006 508.18798,535.999498 C508.712043,536.172246 509.286113,536.249684 509.838179,536.207987 C510.022868,536.194749 510.206224,536.168937 510.382245,536.108707 C510.573602,536.043182 510.756957,535.961772 510.932979,535.862492 C511.277687,535.665917 511.54772,535.378666 511.727741,535.026553 C511.83042,534.822035 511.889094,534.621489 511.90843,534.395131 C511.923098,534.237606 511.895095,534.074125 511.822419,533.933809 C511.743076,533.781579 511.612394,533.669061 511.471044,533.577724 C511.321692,533.481091 511.129002,533.415566 510.954981,533.377178 C510.776293,533.338789 510.591604,533.322243 510.408915,533.301063 C510.332906,533.287825 510.259564,533.270617 510.186888,533.247452 C510.104212,533.203768 510.026869,533.153466 509.95086,533.099855 C509.84018,533.007193 509.740168,532.910561 509.64749,532.800029 C509.520808,532.623972 509.415462,532.432692 509.32145,532.236779 C509.442798,532.316865 509.568814,532.391656 509.697496,532.455858 C509.958861,532.586907 510.234894,532.706044 510.519595,532.776863 C510.808964,532.850331 511.104333,532.905266 511.401035,532.939021 C511.678402,532.970791 511.953102,532.987337 512.231136,532.991309 C512.526505,532.99528 512.827874,532.949611 513.117909,532.90328 C513.363272,532.865554 513.602635,532.76164 513.830662,532.67295 C514.098695,532.568375 514.36006,532.448577 514.617424,532.319513 C514.880122,532.185815 515.124152,532.028291 515.335511,531.821788 C515.428189,531.731112 515.506865,531.62389 515.584874,531.521962 C515.649549,531.437905 515.711556,531.351862 515.761562,531.258538 C515.856907,531.080496 515.922915,530.891864 515.959586,530.693965 C515.984923,530.560268 516.009592,530.421275 515.996257,530.284931 C515.980922,530.104903 515.939584,529.967234 515.866242,529.805076 Z M512.067782,527.166871 C512.105787,527.141058 512.143792,527.118554 512.184463,527.097375 C512.2098,527.08877 512.235803,527.080166 512.261806,527.072886 C512.270474,527.072886 512.279808,527.072886 512.288476,527.073547 C512.29981,527.084799 512.311145,527.096051 512.32248,527.107965 C512.34715,527.145029 512.368485,527.182094 512.389821,527.221806 C512.415825,527.297921 512.43516,527.374036 512.451162,527.45346 C512.45783,527.546783 512.458496,527.640106 512.453829,527.734092 C512.432493,527.837343 512.40249,527.9353 512.365152,528.035903 C512.276474,528.227845 512.175129,528.407211 512.051114,528.581283 C511.909097,528.747411 511.753744,528.896332 511.583724,529.035324 C511.518383,529.082979 511.450374,529.128647 511.383033,529.174316 C511.351696,529.153798 511.319692,529.13659 511.289022,529.11541 C511.117001,528.971785 510.960982,528.816246 510.802963,528.657397 C510.710952,528.564736 510.608273,528.487959 510.504927,528.411844 C510.731621,528.27219 510.949647,528.117313 511.156339,527.943242 C511.461042,527.686437 511.756411,527.415733 512.067782,527.166871 Z M498.446135,529.397366 C498.346123,529.248446 498.262113,529.093568 498.184104,528.932073 C498.139431,528.813598 498.103427,528.695124 498.077424,528.571355 C498.076757,528.527009 498.077424,528.482664 498.080091,528.438319 C498.090759,528.390003 498.104094,528.343672 498.120096,528.298003 C498.128764,528.281456 498.138098,528.265572 498.147432,528.249687 C498.153433,528.24373 498.159434,528.238435 498.165435,528.232478 C498.166101,528.231816 498.166768,528.231816 498.167435,528.231154 C498.168102,528.231154 498.168768,528.231154 498.168768,528.230493 C498.196772,528.229831 498.224775,528.229831 498.252779,528.230493 C498.332121,528.249025 498.408797,528.270867 498.48614,528.298003 C498.701499,528.406549 498.894189,528.549513 499.08888,528.691153 C499.296238,528.842059 499.50493,528.98436 499.736958,529.096216 C499.89431,529.172331 500.05633,529.237856 500.22035,529.295438 C500.319695,529.329855 500.423041,529.349049 500.527054,529.363611 C500.420374,529.516502 500.317028,529.672703 500.223017,529.83486 C500.153008,529.95532 500.076332,530.071147 500.00499,530.190284 C499.820301,530.149248 499.64028,530.094313 499.462258,530.025478 C499.166222,529.89509 498.872853,529.746832 498.610155,529.559523 C498.550815,529.50856 498.497475,529.454948 498.446135,529.397366 Z M510.899641,534.386526 C510.899641,534.386526 510.899641,534.385864 510.899641,534.386526 L510.898974,534.385864 C510.899641,534.385864 510.899641,534.385864 510.899641,534.386526 Z M514.873455,530.417966 C514.856786,530.504009 514.83345,530.588066 514.804113,530.671462 C514.743439,530.795231 514.668097,530.912381 514.586754,531.023575 C514.528747,531.089762 514.467406,531.15264 514.402731,531.212208 C514.166703,531.376351 513.908005,531.50012 513.645307,531.617271 C513.3126,531.753616 512.981226,531.879371 512.624516,531.942248 C512.237136,531.983284 511.85309,531.972032 511.466376,531.930334 C511.121001,531.875399 510.78296,531.794651 510.454921,531.672206 C510.242895,531.574911 510.044204,531.460408 509.848847,531.329358 C509.650823,531.196985 509.463467,531.051374 509.265444,530.919 C509.171432,530.856123 509.082088,530.791922 508.980076,530.740958 C508.841392,530.672785 508.687374,530.594023 508.526021,530.612555 C508.356,530.631088 508.235319,530.675433 508.104637,530.790598 C508.017293,530.866713 507.96462,530.991144 507.933282,531.098366 C507.906613,531.187719 507.900612,531.285675 507.901279,531.378998 C507.903946,531.578221 507.93795,531.784062 507.993956,531.974018 C508.033295,532.111686 508.099303,532.242736 508.159977,532.372462 C508.208649,532.477037 508.255321,532.583598 508.307994,532.686849 C508.416007,532.895338 508.527354,533.103826 508.662037,533.29643 C508.840059,533.553235 509.063419,533.755104 509.311449,533.943737 C509.514807,534.098614 509.740168,534.229664 509.993532,534.285922 C510.208224,534.333577 510.427584,534.346152 510.646277,534.368656 C510.722286,534.382555 510.796962,534.401087 510.870304,534.424253 C510.86097,534.459994 510.849635,534.495073 510.836967,534.530152 C510.800296,534.605605 510.758957,534.679072 510.712952,534.74923 C510.663613,534.804827 510.61094,534.856452 510.554933,534.905431 C510.433585,534.990812 510.304903,535.062955 510.17022,535.125833 C510.055539,535.168854 509.939525,535.204595 509.818177,535.22776 C509.566813,535.250264 509.318117,535.242983 509.066086,535.218494 C508.834058,535.180768 508.608697,535.119214 508.388004,535.041114 C508.090635,534.907416 507.803267,534.748568 507.536568,534.560598 C507.117851,534.221059 506.772475,533.810039 506.439769,533.387768 C506.293751,533.198473 506.153734,533.005208 506.031719,532.798705 C505.964378,532.686188 505.89837,532.572346 505.836362,532.455196 C505.723015,532.245383 505.615669,532.033586 505.364972,531.960118 C504.96359,531.842306 504.654886,532.167283 504.450195,532.460491 C504.320846,532.646475 504.246837,532.869525 504.148158,533.072057 C504.084817,533.200459 504.021476,533.331509 503.979471,533.467854 C503.945467,533.583019 503.925464,533.702155 503.904129,533.819305 C503.85679,534.101261 503.847455,534.37726 503.859456,534.663187 C503.877459,535.077516 503.952801,535.487213 503.921464,535.901542 C503.874792,535.876391 503.829453,535.848593 503.786114,535.818147 C503.6681,535.72019 503.55742,535.614953 503.456741,535.499126 C503.388733,535.402494 503.331393,535.303875 503.280053,535.197976 C503.183375,534.948452 503.106032,534.692971 503.057359,534.428886 C503.010687,533.971535 503.025356,533.510875 503.080696,533.054186 C503.126034,532.747079 503.175374,532.439311 503.217379,532.13088 C503.237381,531.986593 503.242715,531.867457 503.164706,531.736407 C503.097364,531.622566 502.986684,531.537185 502.857335,531.502106 C502.75999,531.474969 502.659311,531.487545 502.563966,531.517991 C502.357275,531.47894 502.141915,531.568293 502.024568,531.754277 C501.85188,532.030276 501.68186,532.310908 501.48917,532.572346 C501.253808,532.861583 500.995777,533.135596 500.704408,533.370559 C500.618398,533.435422 500.531054,533.497638 500.438376,533.551911 C500.296359,533.632659 500.150341,533.705464 500.00099,533.773637 C499.681618,533.892111 499.356912,533.973521 499.020871,534.02647 C498.916192,534.038384 498.811513,534.048312 498.7055,534.051621 C498.582152,534.05493 498.460137,534.044341 498.338789,534.030441 C498.136098,533.9947 497.938074,533.942413 497.74405,533.872255 C497.659373,533.830557 497.578697,533.784226 497.499354,533.731277 C497.392008,533.639939 497.296663,533.541983 497.206652,533.434098 C497.177982,533.392401 497.151979,533.349379 497.129309,533.30371 C497.125976,533.293782 497.121975,533.284516 497.118641,533.274588 C497.280661,533.310329 497.440014,533.358645 497.6047,533.381149 C497.912071,533.422847 498.201439,533.429465 498.506142,533.350703 C498.755506,533.286502 499.000869,533.156776 499.218895,533.021755 C499.528933,532.830475 499.733624,532.531972 499.938316,532.24075 C500.090334,532.026967 500.231684,531.807227 500.373702,531.588149 C500.520386,531.362452 500.666404,531.13874 500.80242,530.90841 C500.926435,530.697274 501.043783,530.482829 501.165131,530.27037 C501.27381,530.081075 501.395825,529.902371 501.525841,529.727638 C501.591182,529.651523 501.655857,529.578056 501.724532,529.50525 C501.778538,529.44833 501.839879,529.398028 501.90122,529.349711 C502.0159,529.270949 502.134581,529.202115 502.25993,529.14387 C502.377277,529.104158 502.497292,529.07636 502.619307,529.054518 C502.808663,529.041281 502.994685,529.053194 503.185375,529.071727 C503.212712,529.074374 503.241382,529.059813 503.270052,529.055842 C503.440072,529.067756 503.61276,529.016792 503.740775,528.889051 C503.974137,528.657397 503.976804,528.266895 503.740775,528.03458 C503.485411,527.783732 503.134702,527.66261 502.842,527.46074 C502.714651,527.357489 502.590636,527.247619 502.480623,527.127821 C502.34594,526.981548 502.223259,526.826671 502.099244,526.671794 C501.887885,526.389176 501.71253,526.087364 501.563846,525.768344 C501.373156,525.293123 501.234472,524.805988 501.145795,524.301645 C501.092455,523.800611 501.113791,523.286339 501.170465,522.785967 C501.231139,522.414659 501.321816,522.053279 501.455832,521.701827 C501.60185,521.38744 501.76587,521.088938 501.965227,520.803011 C502.23726,520.477372 502.547298,520.186812 502.879338,519.922726 C503.180041,519.716885 503.498079,519.547447 503.83012,519.396541 C503.994139,519.336973 504.158159,519.286009 504.328847,519.245635 C504.468864,519.212542 504.610881,519.189377 504.752898,519.169521 C505.038266,519.139737 505.320967,519.137089 505.607668,519.143708 C505.878367,519.149665 506.147733,519.157607 506.417766,519.185405 C506.777143,519.244312 507.126518,519.330355 507.46856,519.456771 C507.881943,519.645404 508.243987,519.909489 508.603363,520.183502 C508.762716,520.311905 508.9054,520.448911 509.036749,520.605774 C509.116092,520.711011 509.192768,520.818234 509.262777,520.930089 C509.332118,521.039298 509.386792,521.160419 509.439465,521.278232 C509.564146,521.583353 509.67616,521.893769 509.773505,522.207494 C509.869517,522.515925 509.932858,522.833622 509.980863,523.153304 C510.013534,523.4849 509.994198,523.811862 509.955527,524.140811 C509.884852,524.608751 509.764837,525.07603 509.589483,525.516834 C509.427463,525.855049 509.223438,526.161493 508.998745,526.459996 C508.698042,526.833951 508.368002,527.18077 507.99329,527.481258 C507.820602,527.605027 507.637247,527.712912 507.465893,527.839329 C507.343211,527.932652 507.247866,528.022666 507.205861,528.176219 C507.16519,528.32183 507.185859,528.478693 507.262535,528.609743 C507.336544,528.734174 507.459225,528.828821 507.601909,528.867871 C507.637913,528.877799 507.682585,528.87449 507.724591,528.877138 C507.838604,528.928101 507.981288,528.957224 508.093969,528.912878 C508.148642,528.891699 508.201315,528.87449 508.256655,528.861253 C508.421341,528.854634 508.588028,528.871181 508.752048,528.891699 C508.974742,528.92744 509.187434,528.973108 509.39746,529.049223 C509.56948,529.132619 509.7355,529.223956 509.891519,529.332503 C510.038204,529.464876 510.170886,529.611811 510.315571,529.748156 C510.488258,529.912961 510.684949,530.054601 510.884306,530.188298 C511.052993,530.300816 511.235682,530.394139 511.421704,530.474225 C511.560388,530.534455 511.697738,530.590714 511.839088,530.641677 C511.967104,530.68867 512.105787,530.707202 512.241803,530.725735 C512.388488,530.745591 512.533839,530.763461 512.68119,530.771404 C512.821207,530.778022 512.962557,530.760814 513.099907,530.739634 C513.308599,530.709188 513.506623,530.6569 513.704647,530.584757 C513.89467,530.516584 514.084693,530.441793 514.274716,530.372297 C514.44607,530.308096 514.615424,530.239924 514.792779,530.196902 C514.797446,530.196902 514.802113,530.196902 514.807447,530.196902 C514.812114,530.198226 514.816115,530.19955 514.820782,530.200212 C514.824116,530.203521 514.826783,530.206168 514.830116,530.209478 C514.836117,530.219406 514.841451,530.229996 514.846785,530.239924 C514.85812,530.272355 514.867454,530.30611 514.875455,530.339866 C514.876122,530.367664 514.874789,530.392815 514.873455,530.417966 Z M507.215196,524.201703 C506.913159,524.201703 506.661129,523.951516 506.661129,523.65169 C506.661129,523.351864 506.913159,523.101678 507.215196,523.101678 C507.517232,523.101678 507.769263,523.351864 507.769263,523.65169 C507.769263,523.951516 507.517232,524.201703 507.215196,524.201703 Z M504.933586,523.525935 C504.933586,523.80392 504.700225,524.035574 504.420191,524.035574 C504.140157,524.035574 503.906796,523.80392 503.906796,523.525935 C503.906796,523.247951 504.140157,523.016297 504.420191,523.016297 C504.700225,523.016297 504.933586,523.247951 504.933586,523.525935 Z" id="Shape" stroke="#2860F5" stroke-width="0.5" fill="#2860F5" fill-rule="nonzero"></path>
    </g>
</svg>