<?xml version="1.0" encoding="UTF-8"?>
<svg width="30px" height="29px" viewBox="0 0 30 29" version="1.1" xmlns="http://www.w3.org/2000/svg" xmlns:xlink="http://www.w3.org/1999/xlink">
    <!-- Generator: Sketch 48.2 (47327) - http://www.bohemiancoding.com/sketch -->
    <title>Shape</title>
    <desc>Created with Sketch.</desc>
    <defs></defs>
    <g id="Desktop-HD" stroke="none" stroke-width="1" fill="none" fill-rule="evenodd" transform="translate(-927.000000, -691.000000)">
        <path d="M956.795759,708.836 C956.573759,708.345 956.177759,707.971 955.661759,707.809 C955.166759,707.657 954.657759,707.815 954.194759,707.989 C953.586759,708.217 952.986759,708.484 952.344759,708.601 C952.131759,708.615 951.922759,708.604 951.711759,708.584 C951.960759,708.36 952.194759,708.119 952.391759,707.839 C952.627759,707.502 952.809759,707.156 952.967759,706.778 C953.032759,706.618 953.090759,706.459 953.139759,706.295 C953.228759,705.988 953.232759,705.658 953.212759,705.341 C953.188759,704.957 953.097759,704.561 952.923759,704.219 C952.818759,704.011 952.685759,703.827 952.523759,703.659 C952.333759,703.459 952.109759,703.35 951.856759,703.251 C951.733759,703.202 951.584759,703.189 951.443759,703.189 C951.389759,703.189 951.336759,703.191 951.286759,703.194 C950.983759,703.212 950.704759,703.331 950.437759,703.467 C950.310759,703.532 950.201759,703.643 950.091759,703.734 C950.024759,703.791 949.954759,703.849 949.887759,703.906 C949.414759,704.311 948.964759,704.743 948.488759,705.14 C948.144759,705.389 947.772759,705.595 947.384759,705.767 C947.239759,705.82 947.094759,705.866 946.946759,705.911 C946.945759,705.911 946.945759,705.912 946.945759,705.912 C946.927759,705.909 946.909759,705.904 946.892759,705.9 C946.951759,705.845 947.019759,705.798 947.076759,705.742 C947.371759,705.453 947.628759,705.126 947.886759,704.802 C948.181759,704.428 948.472759,704.05 948.704759,703.632 C949.142759,702.844 949.389759,701.997 949.565759,701.12 C949.666759,700.623 949.713759,700.108 949.733759,699.602 C949.751759,699.121 949.684759,698.642 949.600759,698.169 C949.527759,697.753 949.432759,697.342 949.305759,696.94 C949.192759,696.578 949.056759,696.225 948.921759,695.871 C948.757759,695.443 948.580759,695.018 948.363759,694.614 C948.266759,694.434 948.147759,694.27 948.026759,694.105 C947.856759,693.871 947.680759,693.642 947.478759,693.434 C947.165759,693.111 946.785759,692.852 946.427759,692.583 C946.085759,692.324 945.726759,692.086 945.350759,691.878 C944.928759,691.644 944.459759,691.486 943.998759,691.351 C943.553759,691.222 943.089759,691.129 942.628759,691.074 C942.187759,691.021 941.747759,691.007 941.304759,691.001 C941.251759,691 941.198759,691 941.145759,691 C940.717759,691 940.297759,691.022 939.870759,691.084 C939.407759,691.149 938.959759,691.236 938.514759,691.377 C938.061759,691.522 937.629759,691.753 937.207759,691.971 C936.387759,692.397 935.697759,693.022 935.057759,693.679 C934.910759,693.827 934.781759,693.993 934.652759,694.16 C934.486759,694.373 934.324759,694.595 934.191759,694.833 C933.949759,695.263 933.738759,695.708 933.561759,696.171 C933.401759,696.591 933.306759,697.03 933.226759,697.47 C933.140759,697.943 933.084759,698.428 933.066759,698.909 C933.050759,699.35 933.040759,699.79 933.056759,700.231 C933.074759,700.728 933.183759,701.225 933.290759,701.708 C933.480759,702.585 933.801759,703.458 934.220759,704.25 C934.400759,704.592 934.616759,704.911 934.848759,705.22 C935.121759,705.584 935.394759,705.962 935.719759,706.283 C935.751759,706.314 935.785759,706.342 935.818759,706.373 C935.788759,706.386 935.758759,706.399 935.729759,706.413 C935.585759,706.374 935.435759,706.357 935.282759,706.396 C935.039759,706.457 934.799759,706.515 934.553759,706.557 C934.388759,706.565 934.227759,706.558 934.064759,706.546 C933.887759,706.511 933.719759,706.46 933.549759,706.396 C933.240759,706.253 932.947759,706.086 932.667759,705.891 C932.350759,705.671 932.049759,705.406 931.707759,705.228 C931.282759,705.005 930.792759,704.835 930.313759,704.835 C929.980759,704.835 929.653759,704.917 929.355759,705.119 C928.526759,705.679 928.347759,706.855 928.660759,707.752 C928.808759,708.172 928.996759,708.597 929.252759,708.964 C929.438759,709.233 929.636759,709.483 929.895759,709.685 C930.097759,709.839 930.297759,709.98 930.517759,710.107 C931.023759,710.402 931.556759,710.653 932.110759,710.84 C931.877759,711.193 931.648759,711.55 931.396759,711.889 C931.288759,712.016 931.175759,712.133 931.052759,712.245 C930.898759,712.349 930.736759,712.436 930.568759,712.514 C930.455759,712.555 930.341759,712.587 930.223759,712.61 C930.047759,712.623 929.871759,712.62 929.696759,712.605 C929.269759,712.519 928.833759,712.365 928.396759,712.423 C928.117759,712.461 927.865759,712.536 927.620759,712.68 C927.420759,712.801 927.248759,712.987 927.149759,713.197 C926.945759,713.632 926.961759,714.09 927.127759,714.535 C927.202759,714.737 927.283759,714.935 927.394759,715.119 C927.507759,715.309 927.663759,715.481 927.806759,715.652 C927.911759,715.781 928.046759,715.888 928.174759,715.992 C928.350759,716.139 928.532759,716.267 928.732759,716.378 C929.074759,716.568 929.472759,716.689 929.852759,716.782 C930.101759,716.841 930.361759,716.863 930.616759,716.885 C930.818759,716.903 931.020759,716.903 931.224759,716.885 C932.123759,716.806 932.994759,716.59 933.813759,716.21 C934.053759,716.099 934.292759,715.978 934.518759,715.84 C934.793759,715.67 935.047759,715.462 935.294759,715.254 C935.496759,715.082 935.672759,714.878 935.852759,714.684 C935.927759,714.603 935.991759,714.513 936.061759,714.428 C936.056759,714.496 936.047759,714.563 936.043759,714.631 C936.023759,715.011 936.019759,715.395 936.051759,715.773 C936.089759,716.23 936.170759,716.668 936.306759,717.105 C936.427759,717.497 936.563759,717.909 936.793759,718.249 C937.033759,718.605 937.314759,718.946 937.656759,719.209 C937.925759,719.419 938.177759,719.589 938.517759,719.67 C938.782759,719.731 939.036759,719.708 939.299759,719.658 C939.533759,719.612 939.739759,719.486 939.921759,719.343 C940.170759,719.149 940.319759,718.824 940.388759,718.523 C940.445759,718.279 940.445759,718.01 940.441759,717.761 C940.431759,717.021 940.313759,716.279 940.385759,715.539 C940.435759,715.244 940.507759,714.953 940.616759,714.673 C940.685759,714.516 940.755759,714.359 940.824759,714.201 C940.844759,714.234 940.865759,714.268 940.886759,714.301 C941.100759,714.637 941.331759,714.962 941.575759,715.279 C941.830759,715.614 942.088759,715.952 942.375759,716.259 C942.618759,716.52 942.882759,716.76 943.149759,716.995 C943.755759,717.529 944.517759,717.939 945.279759,718.195 C946.065759,718.456 946.926759,718.573 947.754759,718.51 C948.031759,718.49 948.306759,718.451 948.570759,718.36 C948.857759,718.261 949.132759,718.138 949.396759,717.988 C949.913759,717.691 950.318759,717.257 950.588759,716.725 C950.742759,716.416 950.830759,716.113 950.859759,715.771 C950.881759,715.533 950.839759,715.286 950.730759,715.074 C950.611759,714.844 950.415759,714.674 950.203759,714.536 C949.979759,714.39 949.690759,714.291 949.429759,714.233 C949.161759,714.175 948.884759,714.15 948.610759,714.118 C948.496759,714.098 948.386759,714.072 948.277759,714.037 C948.153759,713.971 948.037759,713.895 947.923759,713.814 C947.757759,713.674 947.607759,713.528 947.468759,713.361 C947.278759,713.095 947.120759,712.806 946.979759,712.51 C947.161759,712.631 947.350759,712.744 947.543759,712.841 C947.935759,713.039 948.349759,713.219 948.776759,713.326 C949.210759,713.437 949.653759,713.52 950.098759,713.571 C950.514759,713.619 950.926759,713.644 951.343759,713.65 C951.786759,713.656 952.238759,713.587 952.673759,713.517 C953.041759,713.46 953.400759,713.303 953.742759,713.169 C954.144759,713.011 954.536759,712.83 954.922759,712.635 C955.316759,712.433 955.682759,712.195 955.999759,711.883 C956.138759,711.746 956.256759,711.584 956.373759,711.43 C956.470759,711.303 956.563759,711.173 956.638759,711.032 C956.781759,710.763 956.880759,710.478 956.935759,710.179 C956.973759,709.977 957.010759,709.767 956.990759,709.561 C956.967759,709.289 956.905759,709.081 956.795759,708.836 Z M951.098759,704.85 C951.155759,704.811 951.212759,704.777 951.273759,704.745 C951.311759,704.732 951.350759,704.719 951.389759,704.708 C951.402759,704.708 951.416759,704.708 951.429759,704.709 C951.446759,704.726 951.463759,704.743 951.480759,704.761 C951.517759,704.817 951.549759,704.873 951.581759,704.933 C951.620759,705.048 951.649759,705.163 951.673759,705.283 C951.683759,705.424 951.684759,705.565 951.677759,705.707 C951.645759,705.863 951.600759,706.011 951.544759,706.163 C951.411759,706.453 951.259759,706.724 951.073759,706.987 C950.860759,707.238 950.627759,707.463 950.372759,707.673 C950.274759,707.745 950.172759,707.814 950.071759,707.883 C950.024759,707.852 949.976759,707.826 949.930759,707.794 C949.672759,707.577 949.438759,707.342 949.201759,707.102 C949.063759,706.962 948.909759,706.846 948.754759,706.731 C949.094759,706.52 949.421759,706.286 949.731759,706.023 C950.188759,705.635 950.631759,705.226 951.098759,704.85 Z M930.668759,708.22 C930.518759,707.995 930.392759,707.761 930.275759,707.517 C930.208759,707.338 930.154759,707.159 930.115759,706.972 C930.114759,706.905 930.115759,706.838 930.119759,706.771 C930.135759,706.698 930.155759,706.628 930.179759,706.559 C930.192759,706.534 930.206759,706.51 930.220759,706.486 C930.229759,706.477 930.238759,706.469 930.247759,706.46 C930.248759,706.459 930.249759,706.459 930.250759,706.458 C930.251759,706.458 930.252759,706.458 930.252759,706.457 C930.294759,706.456 930.336759,706.456 930.378759,706.457 C930.497759,706.485 930.612759,706.518 930.728759,706.559 C931.051759,706.723 931.340759,706.939 931.632759,707.153 C931.943759,707.381 932.256759,707.596 932.604759,707.765 C932.840759,707.88 933.083759,707.979 933.329759,708.066 C933.478759,708.118 933.633759,708.147 933.789759,708.169 C933.629759,708.4 933.474759,708.636 933.333759,708.881 C933.228759,709.063 933.113759,709.238 933.006759,709.418 C932.729759,709.356 932.459759,709.273 932.192759,709.169 C931.748759,708.972 931.308759,708.748 930.914759,708.465 C930.825759,708.388 930.745759,708.307 930.668759,708.22 Z M949.346759,715.758 C949.346759,715.758 949.346759,715.757 949.346759,715.758 L949.345759,715.757 C949.346759,715.757 949.346759,715.757 949.346759,715.758 Z M955.306759,709.762 C955.281759,709.892 955.246759,710.019 955.202759,710.145 C955.111759,710.332 954.998759,710.509 954.876759,710.677 C954.789759,710.777 954.697759,710.872 954.600759,710.962 C954.246759,711.21 953.858759,711.397 953.464759,711.574 C952.965759,711.78 952.468759,711.97 951.933759,712.065 C951.352759,712.127 950.776759,712.11 950.196759,712.047 C949.678759,711.964 949.171759,711.842 948.679759,711.657 C948.361759,711.51 948.063759,711.337 947.770759,711.139 C947.473759,710.939 947.192759,710.719 946.895759,710.519 C946.754759,710.424 946.620759,710.327 946.467759,710.25 C946.259759,710.147 946.028759,710.028 945.786759,710.056 C945.531759,710.084 945.350759,710.151 945.154759,710.325 C945.023759,710.44 944.944759,710.628 944.897759,710.79 C944.857759,710.925 944.848759,711.073 944.849759,711.214 C944.853759,711.515 944.904759,711.826 944.988759,712.113 C945.047759,712.321 945.146759,712.519 945.237759,712.715 C945.310759,712.873 945.380759,713.034 945.459759,713.19 C945.621759,713.505 945.788759,713.82 945.990759,714.111 C946.257759,714.499 946.592759,714.804 946.964759,715.089 C947.269759,715.323 947.607759,715.521 947.987759,715.606 C948.309759,715.678 948.638759,715.697 948.966759,715.731 C949.080759,715.752 949.192759,715.78 949.302759,715.815 C949.288759,715.869 949.271759,715.922 949.252759,715.975 C949.197759,716.089 949.135759,716.2 949.066759,716.306 C948.992759,716.39 948.913759,716.468 948.829759,716.542 C948.647759,716.671 948.454759,716.78 948.252759,716.875 C948.080759,716.94 947.906759,716.994 947.724759,717.029 C947.347759,717.063 946.974759,717.052 946.596759,717.015 C946.248759,716.958 945.910759,716.865 945.579759,716.747 C945.133759,716.545 944.702759,716.305 944.302759,716.021 C943.674759,715.508 943.156759,714.887 942.657759,714.249 C942.438759,713.963 942.228759,713.671 942.045759,713.359 C941.944759,713.189 941.845759,713.017 941.752759,712.84 C941.582759,712.523 941.421759,712.203 941.045759,712.092 C940.443759,711.914 939.980759,712.405 939.673759,712.848 C939.479759,713.129 939.368759,713.466 939.220759,713.772 C939.125759,713.966 939.030759,714.164 938.967759,714.37 C938.916759,714.544 938.886759,714.724 938.854759,714.901 C938.783759,715.327 938.769759,715.744 938.787759,716.176 C938.814759,716.802 938.927759,717.421 938.880759,718.047 C938.810759,718.009 938.742759,717.967 938.677759,717.921 C938.500759,717.773 938.334759,717.614 938.183759,717.439 C938.081759,717.293 937.995759,717.144 937.918759,716.984 C937.773759,716.607 937.657759,716.221 937.584759,715.822 C937.514759,715.131 937.536759,714.435 937.619759,713.745 C937.687759,713.281 937.761759,712.816 937.824759,712.35 C937.854759,712.132 937.862759,711.952 937.745759,711.754 C937.644759,711.582 937.478759,711.453 937.284759,711.4 C937.138759,711.359 936.987759,711.378 936.844759,711.424 C936.534759,711.365 936.211759,711.5 936.035759,711.781 C935.776759,712.198 935.521759,712.622 935.232759,713.017 C934.879759,713.454 934.492759,713.868 934.055759,714.223 C933.926759,714.321 933.795759,714.415 933.656759,714.497 C933.443759,714.619 933.224759,714.729 933.000759,714.832 C932.521759,715.011 932.034759,715.134 931.530759,715.214 C931.373759,715.232 931.216759,715.247 931.057759,715.252 C930.872759,715.257 930.689759,715.241 930.507759,715.22 C930.203759,715.166 929.906759,715.087 929.615759,714.981 C929.488759,714.918 929.367759,714.848 929.248759,714.768 C929.087759,714.63 928.944759,714.482 928.809759,714.319 C928.766759,714.256 928.727759,714.191 928.693759,714.122 C928.688759,714.107 928.682759,714.093 928.677759,714.078 C928.920759,714.132 929.159759,714.205 929.406759,714.239 C929.867759,714.302 930.301759,714.312 930.758759,714.193 C931.132759,714.096 931.500759,713.9 931.827759,713.696 C932.292759,713.407 932.599759,712.956 932.906759,712.516 C933.134759,712.193 933.346759,711.861 933.559759,711.53 C933.779759,711.189 933.998759,710.851 934.202759,710.503 C934.388759,710.184 934.564759,709.86 934.746759,709.539 C934.909759,709.253 935.092759,708.983 935.287759,708.719 C935.385759,708.604 935.482759,708.493 935.585759,708.383 C935.666759,708.297 935.758759,708.221 935.850759,708.148 C936.022759,708.029 936.200759,707.925 936.388759,707.837 C936.564759,707.777 936.744759,707.735 936.927759,707.702 C937.211759,707.682 937.490759,707.7 937.776759,707.728 C937.817759,707.732 937.860759,707.71 937.903759,707.704 C938.158759,707.722 938.417759,707.645 938.609759,707.452 C938.959759,707.102 938.963759,706.512 938.609759,706.161 C938.226759,705.782 937.700759,705.599 937.261759,705.294 C937.070759,705.138 936.884759,704.972 936.719759,704.791 C936.517759,704.57 936.333759,704.336 936.147759,704.102 C935.830759,703.675 935.567759,703.219 935.344759,702.737 C935.058759,702.019 934.850759,701.283 934.717759,700.521 C934.637759,699.764 934.669759,698.987 934.754759,698.231 C934.845759,697.67 934.981759,697.124 935.182759,696.593 C935.401759,696.118 935.647759,695.667 935.946759,695.235 C936.354759,694.743 936.819759,694.304 937.317759,693.905 C937.768759,693.594 938.245759,693.338 938.743759,693.11 C938.989759,693.02 939.235759,692.943 939.491759,692.882 C939.701759,692.832 939.914759,692.797 940.127759,692.767 C940.555759,692.722 940.979759,692.718 941.409759,692.728 C941.815759,692.737 942.219759,692.749 942.624759,692.791 C943.163759,692.88 943.687759,693.01 944.200759,693.201 C944.820759,693.486 945.363759,693.885 945.902759,694.299 C946.141759,694.493 946.355759,694.7 946.552759,694.937 C946.671759,695.096 946.786759,695.258 946.891759,695.427 C946.995759,695.592 947.077759,695.775 947.156759,695.953 C947.343759,696.414 947.511759,696.883 947.657759,697.357 C947.801759,697.823 947.896759,698.303 947.968759,698.786 C948.017759,699.287 947.988759,699.781 947.930759,700.278 C947.824759,700.985 947.644759,701.691 947.381759,702.357 C947.138759,702.868 946.832759,703.331 946.495759,703.782 C946.044759,704.347 945.549759,704.871 944.987759,705.325 C944.728759,705.512 944.453759,705.675 944.196759,705.866 C944.012759,706.007 943.869759,706.143 943.806759,706.375 C943.745759,706.595 943.776759,706.832 943.891759,707.03 C944.002759,707.218 944.186759,707.361 944.400759,707.42 C944.454759,707.435 944.521759,707.43 944.584759,707.434 C944.755759,707.511 944.969759,707.555 945.138759,707.488 C945.220759,707.456 945.299759,707.43 945.382759,707.41 C945.629759,707.4 945.879759,707.425 946.125759,707.456 C946.459759,707.51 946.778759,707.579 947.093759,707.694 C947.351759,707.82 947.600759,707.958 947.834759,708.122 C948.054759,708.322 948.253759,708.544 948.470759,708.75 C948.729759,708.999 949.024759,709.213 949.323759,709.415 C949.576759,709.585 949.850759,709.726 950.129759,709.847 C950.337759,709.938 950.543759,710.023 950.755759,710.1 C950.947759,710.171 951.155759,710.199 951.359759,710.227 C951.579759,710.257 951.797759,710.284 952.018759,710.296 C952.228759,710.306 952.440759,710.28 952.646759,710.248 C952.959759,710.202 953.256759,710.123 953.553759,710.014 C953.838759,709.911 954.123759,709.798 954.408759,709.693 C954.665759,709.596 954.919759,709.493 955.185759,709.428 C955.192759,709.428 955.199759,709.428 955.207759,709.428 C955.214759,709.43 955.220759,709.432 955.227759,709.433 C955.232759,709.438 955.236759,709.442 955.241759,709.447 C955.250759,709.462 955.258759,709.478 955.266759,709.493 C955.283759,709.542 955.297759,709.593 955.309759,709.644 C955.310759,709.686 955.308759,709.724 955.306759,709.762 Z M943.820759,700.37 C943.367759,700.37 942.989759,699.992 942.989759,699.539 C942.989759,699.086 943.367759,698.708 943.820759,698.708 C944.273759,698.708 944.651759,699.086 944.651759,699.539 C944.651759,699.992 944.273759,700.37 943.820759,700.37 Z M940.398759,699.349 C940.398759,699.769 940.048759,700.119 939.628759,700.119 C939.208759,700.119 938.858759,699.769 938.858759,699.349 C938.858759,698.929 939.208759,698.579 939.628759,698.579 C940.048759,698.579 940.398759,698.929 940.398759,699.349 Z" id="Shape" fill="#2860F5" fill-rule="nonzero"></path>
    </g>
</svg>