<?xml version="1.0" encoding="UTF-8"?>
<svg width="20px" height="21px" viewBox="0 0 20 21" version="1.1" xmlns="http://www.w3.org/2000/svg" xmlns:xlink="http://www.w3.org/1999/xlink">
    <!-- Generator: Sketch 48.2 (47327) - http://www.bohemiancoding.com/sketch -->
    <title>Shape</title>
    <desc>Created with Sketch.</desc>
    <defs></defs>
    <g id="Desktop-HD" stroke="none" stroke-width="1" fill="none" fill-rule="evenodd" transform="translate(-491.000000, -551.000000)">
        <path d="M509.871402,552.464821 C509.780232,552.287714 509.572336,552.159464 509.385852,552.105179 C509.211799,552.054286 509.021862,552.037321 508.842975,552.016964 C508.736609,552.005429 508.631626,552 508.527332,552 C508.301479,552 508.077698,552.025107 507.852535,552.067857 C507.53413,552.128929 507.226776,552.228678 506.931855,552.360321 C506.614831,552.500786 506.343393,552.697571 506.083696,552.922857 C505.866821,553.109464 505.654781,553.310999 505.473132,553.531535 C505.433072,553.579714 505.395085,553.628571 505.358478,553.678785 C505.350881,553.670642 505.343283,553.662499 505.334995,553.654356 C505.104998,553.416857 504.861187,553.19225 504.580079,553.012428 C504.314856,552.842785 504.009574,552.730143 503.714653,552.621571 C503.414896,552.510286 503.111686,552.434286 502.792591,552.401036 C502.505267,552.373214 502.213108,552.385428 501.926474,552.401036 C501.752422,552.409857 501.579751,552.431571 501.409152,552.457357 C501.266181,552.477714 501.124591,552.53675 501.024442,552.64125 C500.895975,552.774928 500.864894,552.928285 500.846246,553.104714 C500.824144,553.325249 500.859369,553.560035 500.880089,553.781249 C500.908407,554.085249 500.95123,554.38857 501.005794,554.688499 C501.05276,554.94907 501.109396,555.206927 501.203329,555.455284 C501.266872,555.621534 501.338703,555.784391 501.418822,555.942498 C501.523806,556.148105 501.66954,556.32657 501.829088,556.493498 C502.030767,556.703855 502.283557,556.876212 502.528059,557.035676 C502.647547,557.115069 502.784993,557.170034 502.916223,557.228391 C503.099254,557.308462 503.282285,557.379033 503.477058,557.423819 C503.47913,557.424498 503.480511,557.423819 503.482583,557.424498 C503.506066,557.628748 503.530931,557.832998 503.543363,558.039283 C503.55994,558.313426 503.549579,558.582819 503.518499,558.854247 C503.504685,558.945176 503.488799,559.035426 503.470151,559.125676 C503.422494,559.082926 503.374146,559.040854 503.325107,559.00014 C503.092347,558.808783 502.844392,558.641176 502.588839,558.483069 C502.364367,558.345319 502.122628,558.231319 501.88227,558.123426 C501.617048,558.004676 501.353207,557.885926 501.087294,557.775319 C500.563756,557.556141 500.023642,557.336283 499.46488,557.222962 C498.88954,557.105569 498.30246,557.026176 497.715379,557.089284 C497.329287,557.129998 496.936979,557.170712 496.564701,557.281998 C496.246296,557.376319 495.938942,557.520855 495.639876,557.663355 C495.405044,557.775998 495.179882,557.915783 494.968533,558.066426 C494.701238,558.253712 494.45052,558.44914 494.214997,558.673747 C494.022987,558.85764 493.846172,559.055104 493.667976,559.250533 C493.470441,559.469033 493.272906,559.697032 493.10576,559.939961 C492.757656,560.444139 492.505557,561.009389 492.330123,561.59296 C492.247241,561.869817 492.200275,562.156853 492.15469,562.441853 C492.10427,562.756031 492.070426,563.073603 492.041418,563.389817 C491.992379,563.931995 491.985472,564.478245 492.028295,565.021102 C492.053159,565.336637 492.089075,565.647423 492.153999,565.95753 C492.182317,566.093923 492.232046,566.226923 492.277631,566.359244 C492.333576,566.517351 492.397119,566.676815 492.46826,566.828815 C492.704473,567.335708 493.018734,567.803922 493.35786,568.249065 C493.543653,568.494029 493.737045,568.724064 493.962898,568.934421 C494.07617,569.040279 494.197039,569.140029 494.315146,569.239778 C494.517516,569.412136 494.72334,569.583135 494.931926,569.748707 C495.393303,570.111064 495.943777,570.393349 496.517735,570.538564 C497.064756,570.676314 497.622137,570.777421 498.178828,570.864278 C498.754167,570.955206 499.330887,571.013563 499.914514,570.997278 C500.221178,570.989813 500.529222,570.917885 500.826216,570.852064 C501.101798,570.790992 501.378072,570.734671 501.647438,570.650528 C501.954101,570.554849 502.256621,570.450349 502.551542,570.323457 C502.811239,570.213528 503.055741,570.078492 503.300933,569.939385 C503.577207,569.781278 503.841048,569.60485 504.097291,569.418243 C504.137351,569.39585 504.173957,569.368028 504.20711,569.336814 C504.370111,569.21535 504.530349,569.089814 504.689206,568.962921 C505.122955,568.615493 505.477967,568.206315 505.817092,567.770672 C506.15898,567.331636 506.439397,566.832887 506.67423,566.332101 C506.796481,566.072887 506.905609,565.808923 507.022334,565.546994 C507.145966,565.267423 507.252331,564.986495 507.344192,564.696745 C507.423621,564.447709 507.500287,564.198673 507.572808,563.948959 C507.650856,563.676852 507.701276,563.396602 507.749623,563.118388 C507.849772,562.541603 507.917459,561.959389 507.925057,561.375139 C507.930582,561.030425 507.884997,560.684354 507.844247,560.342354 C507.798662,559.951497 507.739263,559.562675 507.674339,559.173176 C507.617012,558.825069 507.549325,558.474926 507.445723,558.136997 C507.374582,557.906283 507.308277,557.668783 507.212272,557.444176 C507.429837,557.379712 507.643258,557.303712 507.836649,557.191069 C508.123974,557.024141 508.385052,556.823284 508.637842,556.610212 C508.736609,556.527427 508.823636,556.427677 508.907899,556.330641 C509.08057,556.130463 509.239427,555.923498 509.367894,555.692784 C509.452157,555.539427 509.513628,555.369784 509.580624,555.21032 C509.637951,555.07257 509.691134,554.933463 509.738791,554.792999 C509.847919,554.481535 509.886597,554.149713 509.927347,553.824678 C509.961191,553.550535 510.002632,553.270964 509.999869,552.994107 C510.00125,552.800714 509.958428,552.637178 509.871402,552.464821 Z M503.708436,556.297391 C503.724322,556.295355 503.740208,556.292641 503.756784,556.290605 L503.757475,556.290605 C503.740899,556.29332 503.725013,556.295355 503.708436,556.297391 Z M503.763691,556.289927 C503.776814,556.287891 503.789937,556.286534 503.80306,556.284498 C503.790628,556.286534 503.777505,556.287891 503.763691,556.289927 Z M493.455246,566.348387 C493.399301,566.203851 493.346118,566.058637 493.29777,565.911387 C493.248732,565.766173 493.219723,565.61553 493.187951,565.466923 C493.147201,565.128995 493.130625,564.791066 493.123718,564.453138 C493.281884,564.394102 493.440741,564.339138 493.603052,564.288923 C493.784011,564.233281 493.973949,564.204781 494.162505,564.176959 C494.181844,564.174923 494.200493,564.174245 494.219832,564.172209 C494.216379,565.122209 494.264036,566.070173 494.433253,567.009994 C494.503703,567.402208 494.612831,567.787636 494.7337,568.168315 C494.607305,568.050243 494.477457,567.935565 494.365566,567.805279 C494.020915,567.343851 493.699748,566.867494 493.455246,566.348387 Z M496.456264,564.131495 C496.463171,565.143244 496.481819,566.161101 496.666232,567.157922 C496.823017,568.000708 497.036438,568.833314 497.389377,569.612314 C497.036438,569.539707 496.688333,569.450814 496.35128,569.327314 C496.322271,569.314421 496.295335,569.298136 496.265635,569.284564 C496.18897,569.159029 496.104016,569.038243 496.042545,568.905243 C495.896811,568.532707 495.755221,568.159493 495.639876,567.777458 C495.5121,567.360136 495.424383,566.931279 495.351171,566.503101 C495.255166,565.706459 495.24895,564.906423 495.263454,564.105709 C495.397447,564.102995 495.531439,564.096888 495.664741,564.098245 C495.929273,564.100281 496.193114,564.112495 496.456264,564.131495 Z M498.679573,569.8186 C498.670594,569.798921 498.669903,569.777885 498.658852,569.758885 C498.507593,569.5146 498.376363,569.26285 498.255493,569.003636 C498.093183,568.605993 497.957118,568.204279 497.854897,567.788315 C497.751985,567.366244 497.664269,566.942137 497.597963,566.51328 C497.555141,566.094601 497.527513,565.67728 497.532348,565.257244 C497.535802,564.926102 497.541327,564.594959 497.546162,564.263816 C497.701566,564.291638 497.85766,564.317423 498.012373,564.349316 C498.263091,564.400209 498.511737,564.472816 498.758311,564.541352 C498.758311,564.544066 498.75762,564.54678 498.75762,564.549495 C498.832904,565.204316 498.915786,565.85778 499.024224,566.507172 C499.062211,566.73178 499.096745,566.960458 499.156835,567.179637 C499.22314,567.430029 499.294281,567.678386 499.368875,567.926065 C499.504248,568.381386 499.628571,568.8401 499.80953,569.279814 C499.892412,569.479993 499.982201,569.683564 500.085804,569.876278 C500.078206,569.877635 500.071299,569.879671 500.063702,569.881028 C499.603707,569.914278 499.138877,569.872885 498.679573,569.8186 Z M501.23441,569.625207 C501.207473,569.581778 501.175011,569.541064 501.149456,569.496278 C501.045853,569.317136 500.958827,569.130529 500.873182,568.941886 C500.723304,568.570707 500.608651,568.191386 500.498832,567.805958 C500.440124,567.601708 500.379344,567.394744 500.332377,567.187101 C500.277123,566.938744 500.230847,566.693101 500.190787,566.44203 C500.125863,565.954137 500.069227,565.464209 500.013282,564.974959 C500.087876,565.004137 500.16316,565.031959 500.237063,565.061816 C500.565828,565.203637 500.889068,565.35428 501.212308,565.507637 C501.213689,565.513744 501.212998,565.519851 501.21507,565.52528 C501.319364,566.245244 501.454047,566.968601 501.643985,567.672958 C501.745515,568.04685 501.850499,568.4221 502.010047,568.776993 C502.081187,568.933743 502.160616,569.0871 502.244879,569.237743 C502.249714,569.245886 502.255239,569.254028 502.260074,569.26285 C502.188243,569.298136 502.119865,569.340207 502.045962,569.372778 C501.780049,569.471171 501.50792,569.550564 501.23441,569.625207 Z M503.387269,568.597172 C503.399701,568.587672 503.412133,568.578172 503.425256,568.568672 C503.41835,568.5741 503.412133,568.579529 503.405227,568.584279 C503.39901,568.58835 503.392794,568.592422 503.387269,568.597172 Z M503.874891,568.20835 C503.787865,568.280957 503.698076,568.353565 503.608287,568.424136 C503.56063,568.461457 503.512973,568.4981 503.466007,568.535422 C503.437689,568.556457 503.409371,568.578172 503.380362,568.600564 C503.323726,568.6406 503.263637,568.674529 503.20631,568.713207 C503.202856,568.706422 503.199403,568.699636 503.195259,568.692172 C503.130335,568.567993 503.065411,568.443815 503.007393,568.3176 C502.84232,567.879243 502.743552,567.423922 502.652382,566.964529 C502.608869,566.748744 502.578479,566.531601 502.540491,566.315137 C502.644785,566.397244 502.749078,566.479351 502.847155,566.568922 C502.997724,566.706672 503.143458,566.849851 503.292645,566.990315 C503.55994,567.239351 503.841048,567.475494 504.080715,567.750315 C504.110414,567.791708 504.138041,567.834458 504.164287,567.878565 C504.171885,567.891458 504.185008,567.898922 504.193987,567.911136 C504.090384,568.012243 503.988163,568.115386 503.874891,568.20835 Z M508.685499,553.950892 C508.652346,554.145642 508.611596,554.337678 508.550125,554.524963 C508.498324,554.682392 508.438234,554.836427 508.375382,554.989784 C508.30217,555.149927 508.217216,555.297856 508.114304,555.440356 C508.017608,555.555034 507.920222,555.66632 507.813857,555.772856 C507.710945,555.875998 507.592148,555.963534 507.476113,556.052427 C507.342811,556.141998 507.210891,556.227498 507.064466,556.295355 C506.855189,556.374748 506.641077,556.437855 506.422821,556.490105 C506.118921,556.562712 505.940724,556.894534 506.022916,557.184284 C506.029132,557.207355 506.045017,557.223641 506.054687,557.244676 C506.013246,557.381069 506.022916,557.530355 506.10787,557.652498 C506.170722,557.744783 506.223214,557.84114 506.270871,557.941569 C506.367566,558.189247 506.453211,558.447783 506.513301,558.70564 C506.580988,558.996747 506.626573,559.28989 506.667323,559.585068 C506.727412,560.074997 506.767472,560.564246 506.800625,561.057568 C506.833087,561.550889 506.790264,562.044889 506.728103,562.534817 C506.663869,562.943995 506.590657,563.352495 506.476004,563.752174 C506.366185,564.135566 506.246006,564.519638 506.099581,564.892852 C506.011174,565.092352 505.918622,565.291173 505.828834,565.489316 C505.732829,565.702387 505.636824,565.915458 505.52217,566.119708 C505.35019,566.425065 505.160943,566.719565 504.959954,567.007958 C504.67263,566.673422 504.296898,566.410815 503.965371,566.126494 C503.758856,565.94803 503.555105,565.770244 503.340302,565.600601 C503.07508,565.393637 502.794663,565.209066 502.511483,565.027887 C502.287011,564.886066 502.050106,564.765959 501.81113,564.65128 C501.545908,564.526423 501.281376,564.399531 501.01201,564.284852 C500.438052,564.039888 499.858569,563.816638 499.261128,563.634102 C498.811493,563.497709 498.355642,563.395245 497.895648,563.302281 C497.401809,563.201174 496.89692,563.157067 496.395484,563.112281 C496.010773,563.077674 495.619847,563.05596 495.233064,563.05596 C495.175737,563.05596 495.118411,563.056638 495.061775,563.057317 C494.802078,563.062745 494.545834,563.07021 494.287519,563.090567 C494.078242,563.106852 493.871728,563.132638 493.665214,563.161817 C493.491161,563.186245 493.321944,563.230352 493.154799,563.281245 C493.169994,563.081745 493.187261,562.881567 493.210053,562.682067 C493.24735,562.440496 493.290863,562.201639 493.344737,561.962103 C493.397919,561.72596 493.482873,561.498639 493.57059,561.272675 C493.644493,561.109139 493.72185,560.948318 493.810948,560.790889 C493.913169,560.611746 494.027131,560.442104 494.150073,560.275175 C494.516135,559.829354 494.910515,559.39914 495.362222,559.035426 C495.545253,558.904461 495.731737,558.772819 495.930654,558.664247 C496.142003,558.54889 496.356806,558.44439 496.578515,558.348033 C496.713198,558.298497 496.8465,558.250997 496.985327,558.212319 C497.122773,558.174319 497.265054,558.153962 497.405263,558.132247 C497.619374,558.106462 497.832795,558.086783 498.048979,558.073212 C498.268616,558.060319 498.493779,558.090855 498.713416,558.115283 C499.03044,558.161426 499.34401,558.217747 499.650673,558.310712 C499.976676,558.408426 500.295081,558.53464 500.611413,558.658819 C500.958136,558.80539 501.303478,558.95739 501.643294,559.116176 C501.967915,559.267497 502.269053,559.463604 502.557068,559.675318 C502.69106,559.787282 502.818837,559.90264 502.944541,560.023425 C503.157271,560.226318 503.401773,560.473996 503.717415,560.473996 C503.860387,560.473996 504.012337,560.414282 504.112486,560.315889 C504.203656,560.226318 504.243716,560.146247 504.290682,560.031568 C504.324526,559.95014 504.351462,559.86464 504.376327,559.77914 C504.425366,559.612211 504.469569,559.443247 504.507557,559.272247 C504.664342,558.549569 504.626354,557.81264 504.533803,557.084534 C504.566956,557.010569 504.586985,556.931177 504.586985,556.849069 C504.586985,556.694355 504.523443,556.543712 504.411552,556.434462 C504.311403,556.33607 504.134588,556.243105 503.988163,556.262105 C503.938434,556.268212 503.889395,556.27432 503.840357,556.281105 C503.849336,556.279748 503.858315,556.278391 503.867294,556.277034 C503.816874,556.281784 503.768526,556.283141 503.719487,556.281105 C503.572372,556.247177 503.432163,556.198998 503.291264,556.14607 C503.106852,556.061248 502.938325,555.959463 502.773252,555.842748 C502.664124,555.755213 502.55983,555.665641 502.466588,555.56182 C502.382325,555.440356 502.314638,555.312106 502.248332,555.18182 C502.086713,554.770606 501.99278,554.34107 501.924402,553.904749 C501.908516,553.777178 501.895393,553.649606 501.887105,553.521357 C501.884342,553.487428 501.88158,553.453499 501.878817,553.419571 C502.169595,553.399214 502.463826,553.395821 502.753222,553.422964 C502.957664,553.466392 503.151746,553.528821 503.346519,553.602106 C503.582041,553.705249 503.807895,553.819928 504.020625,553.965142 C504.19744,554.114428 504.356988,554.277285 504.504794,554.455749 C504.60218,554.580606 504.698876,554.705463 504.796953,554.83032 C504.839775,554.885285 504.883979,554.938892 504.926801,554.992499 C504.978603,555.056284 505.043527,555.12007 505.116739,555.157392 C505.169922,555.185213 505.225867,555.209642 505.283194,555.228642 C505.392322,555.256463 505.500068,555.256463 505.607815,555.228642 C505.798444,555.202177 505.964898,555.031856 506.042945,554.867642 C506.075407,554.799785 506.10787,554.732606 506.141713,554.666106 C506.204565,554.54532 506.278468,554.430642 506.357897,554.319356 C506.565102,554.073035 506.800625,553.849785 507.053415,553.648249 C507.186717,553.557999 507.322781,553.483357 507.467825,553.416857 C507.686771,553.337464 507.910552,553.281821 508.139169,553.244499 C508.338776,553.229571 508.536311,553.238392 508.734537,553.259428 C508.7373,553.260107 508.740754,553.260107 508.743516,553.260785 C508.742135,553.490821 508.715198,553.722892 508.685499,553.950892 Z M496.252512,560.909639 C496.252512,561.212282 495.995578,561.46471 495.687534,561.46471 C495.379489,561.46471 495.122555,561.212282 495.122555,560.909639 C495.122555,560.606996 495.379489,560.354568 495.687534,560.354568 C495.995578,560.354568 496.252512,560.607675 496.252512,560.909639 Z M498.982783,560.909639 C498.982783,561.212282 498.725849,561.46471 498.417804,561.46471 C498.109759,561.46471 497.852825,561.212282 497.852825,560.909639 C497.852825,560.606996 498.109759,560.354568 498.417804,560.354568 C498.725849,560.354568 498.982783,560.607675 498.982783,560.909639 Z" id="Shape" stroke="#FFFFFF" stroke-width="0.5" fill="#FFFFFF" fill-rule="nonzero"></path>
    </g>
</svg>