<svg width="16" height="15" viewBox="0 0 16 15" version="1.1" xmlns="http://www.w3.org/2000/svg" xmlns:xlink="http://www.w3.org/1999/xlink">
<title>Add row</title>
<desc>Created using Figma</desc>
<g id="Canvas" transform="translate(-509 -19384)">
<g id="Add row">
<g id="Rectangle">
<use xlink:href="#path0_fill" transform="translate(516 19386)" fill="#B1BBC7"/>
</g>
<g id="Rectangle">
<use xlink:href="#path1_fill" transform="translate(509 19386)" fill="#B1BBC7"/>
</g>
<g id="Rectangle">
<use xlink:href="#path1_fill" transform="matrix(6.12323e-17 1 -1 6.12323e-17 513 19384)" fill="#B1BBC7"/>
</g>
<g id="Rectangle">
<use xlink:href="#path2_fill" transform="translate(511 19391)" fill="#B1BBC7"/>
</g>
<g id="Rectangle">
<use xlink:href="#path2_fill" transform="translate(511 19396)" fill="#B1BBC7"/>
</g>
</g>
</g>
<defs>
<path id="path0_fill" fill-rule="evenodd" d="M 0 1.5C 0 0.671573 0.671573 0 1.5 0L 7.5 0C 8.32843 0 9 0.671573 9 1.5L 9 1.5C 9 2.32843 8.32843 3 7.5 3L 1.5 3C 0.671573 3 0 2.32843 0 1.5L 0 1.5Z"/>
<path id="path1_fill" fill-rule="evenodd" d="M 0 0.5C 0 0.223858 0.223858 0 0.5 0L 5.5 0C 5.77614 0 6 0.223858 6 0.5L 6 1.5C 6 1.77614 5.77614 2 5.5 2L 0.5 2C 0.223858 2 0 1.77614 0 1.5L 0 0.5Z"/>
<path id="path2_fill" fill-rule="evenodd" d="M 0 1.5C 0 0.671573 0.671573 0 1.5 0L 12.5 0C 13.3284 0 14 0.671573 14 1.5L 14 1.5C 14 2.32843 13.3284 3 12.5 3L 1.5 3C 0.671573 3 0 2.32843 0 1.5L 0 1.5Z"/>
</defs>
</svg>
