<svg width="92" height="92" viewBox="0 0 92 92" version="1.1" xmlns="http://www.w3.org/2000/svg" xmlns:xlink="http://www.w3.org/1999/xlink">
<g id="Canvas" fill="none">
<g id="Group 7">
<g id="Shape">
<path d="M 84 82C 84 83.104 83.104 84 82 84L 2 84C 0.896 84 0 83.104 0 82L 0 2C 0 0.896 0.896 0 2 0L 82 0C 83.104 0 84 0.896 84 2L 84 82Z" stroke-width="8" stroke-linecap="round" stroke-linejoin="round" transform="translate(4 4)" stroke="#DEE0E7"/>
</g>
<g id="Shape_2">
<path d="M 0 38L 22 0" stroke-width="8" stroke-linecap="round" stroke-linejoin="round" transform="translate(6 42)" stroke="#DEE0E7"/>
</g>
<g id="Shape_3">
<path d="M 22 38L 0 0" stroke-width="8" stroke-linecap="round" stroke-linejoin="round" transform="translate(30 42)" stroke="#DEE0E7"/>
</g>
<g id="Shape_4">
<path d="M 0 20L 14 0" stroke-width="8" stroke-linecap="round" stroke-linejoin="round" transform="translate(56 58)" stroke="#DEE0E7"/>
</g>
<g id="Shape_5">
<path d="M 14 20L 0 0" stroke-width="8" stroke-linecap="round" stroke-linejoin="round" transform="translate(70 58)" stroke="#DEE0E7"/>
</g>
<g id="Oval">
<path d="M 11 22C 17.0751 22 22 17.0751 22 11C 22 4.92487 17.0751 0 11 0C 4.92487 0 0 4.92487 0 11C 0 17.0751 4.92487 22 11 22Z" stroke-width="8" stroke-linecap="round" stroke-linejoin="round" transform="translate(48 14)" stroke="#DEE0E7"/>
</g>
</g>
</g>
</svg>

