<svg width="13" height="7" viewBox="0 0 13 7" version="1.1" xmlns="http://www.w3.org/2000/svg" xmlns:xlink="http://www.w3.org/1999/xlink">
<g id="Canvas" fill="none">
<g id="Group 5">
<g id="Rectangle 4">
<path fill-rule="evenodd" clip-rule="evenodd" d="M 0 1C 0 0.447715 0.447715 0 1 0C 1.55228 0 2 0.447715 2 1L 2 8C 2 8.55229 1.55228 9 1 9C 0.447715 9 0 8.55229 0 8L 0 1Z" transform="matrix(0.707107 -0.707107 0.707107 0.707107 0.11084 1.02513)" fill="#6CC69D"/>
</g>
<g id="Rectangle 4_2">
<path fill-rule="evenodd" clip-rule="evenodd" d="M 0 1C 0 0.447715 0.447715 0 1 0C 1.55228 0 2 0.447715 2 1L 2 8C 2 8.55229 1.55228 9 1 9C 0.447715 9 0 8.55229 0 8L 0 1Z" transform="matrix(0.707107 0.707107 -0.707107 0.707107 11.4746 -0.389084)" fill="#6CC69D"/>
</g>
</g>
</g>
</svg>

