<svg width="900" height="262" viewBox="0 0 900 262" version="1.1" xmlns="http://www.w3.org/2000/svg" xmlns:xlink="http://www.w3.org/1999/xlink">
<g id="Canvas" fill="none">
<g id="Rectangle 4" filter="url(#filter0_d)">
<path fill-rule="evenodd" clip-rule="evenodd" d="M 4 0.5C 2.067 0.5 0.5 2.067 0.5 4L 0.5 254C 0.5 255.933 2.067 257.5 4 257.5L 892 257.5C 893.933 257.5 895.5 255.933 895.5 254L 895.5 4C 895.5 2.067 893.933 0.5 892 0.5L 4 0.5Z" transform="translate(2 1)" fill="#F8F8FB"/>
<path fill-rule="evenodd" clip-rule="evenodd" d="M 4 0.5C 2.067 0.5 0.5 2.067 0.5 4L 0.5 254C 0.5 255.933 2.067 257.5 4 257.5L 892 257.5C 893.933 257.5 895.5 255.933 895.5 254L 895.5 4C 895.5 2.067 893.933 0.5 892 0.5L 4 0.5Z" stroke-miterlimit="8" transform="translate(2 1)" stroke="#F8F8FB"/>
</g>
</g>
<defs>
<filter id="filter0_d" x="0" y="0" width="900" height="262" filterUnits="userSpaceOnUse" color-interpolation-filters="sRGB">
<feFlood flood-opacity="0" result="BackgroundImageFix"/>
<feColorMatrix in="SourceAlpha" type="matrix" values="0 0 0 0 0 0 0 0 0 0 0 0 0 0 0 0 0 0 255 0"/>
<feOffset dy="1"/>
<feGaussianBlur stdDeviation="1"/>
<feColorMatrix type="matrix" values="0 0 0 0 0 0 0 0 0 0 0 0 0 0 0 0 0 0 0.18 0"/>
<feBlend mode="normal" in2="BackgroundImageFix" result="effect1_dropShadow"/>
<feBlend mode="normal" in="SourceGraphic" in2="effect1_dropShadow" result="shape"/>
</filter>

</defs>
</svg>

