<?xml version="1.0" encoding="UTF-8"?>
<svg width="9px" height="5px" viewBox="0 0 9 5" version="1.1" xmlns="http://www.w3.org/2000/svg" xmlns:xlink="http://www.w3.org/1999/xlink">
    <!-- Generator: Sketch 50 (54983) - http://www.bohemiancoding.com/sketch -->
    <title>Group 2</title>
    <desc>Created with Sketch.</desc>
    <defs></defs>
    <g id="Views" stroke="none" stroke-width="1" fill="none" fill-rule="evenodd">
        <g id="Create-List-3" transform="translate(-394.000000, -1260.000000)" fill="#2A1E3E">
            <g id="Group-2" transform="translate(394.000000, 1260.000000)">
                <path d="M0.566890184,0.539895413 C0.879974988,0.24171941 1.38758575,0.24171941 1.70067055,0.539895413 L4.85905872,3.54788415 C5.17214352,3.84606015 5.17214352,4.32949897 4.85905872,4.62767497 C4.54597392,4.92585098 4.03836316,4.92585098 3.72527835,4.62767497 L0.566890184,1.61968624 C0.253805381,1.32151024 0.253805381,0.838071417 0.566890184,0.539895413 Z" id="Rectangle-4"></path>
                <path d="M8.60905872,0.539895413 C8.92214352,0.838071417 8.92214352,1.32151024 8.60905872,1.61968624 L5.45067055,4.62767497 C5.13758575,4.92585098 4.62997499,4.92585098 4.31689018,4.62767497 C4.00380538,4.32949897 4.00380538,3.84606015 4.31689018,3.54788415 L7.47527835,0.539895413 C7.78836316,0.24171941 8.29597392,0.24171941 8.60905872,0.539895413 Z" id="Rectangle-4"></path>
            </g>
        </g>
    </g>
</svg>