<?xml version="1.0" encoding="UTF-8"?>
<svg width="11px" height="12px" viewBox="0 0 11 12" version="1.1" xmlns="http://www.w3.org/2000/svg" xmlns:xlink="http://www.w3.org/1999/xlink">
    <!-- Generator: Sketch 50 (54983) - http://www.bohemiancoding.com/sketch -->
    <title>XMLID_31_</title>
    <desc>Created with Sketch.</desc>
    <defs></defs>
    <g id="Views" stroke="none" stroke-width="1" fill="none" fill-rule="evenodd">
        <g id="Home-(not-logged-in)-1" transform="translate(-1366.000000, -40.000000)" fill="#FFFFFF" fill-rule="nonzero">
            <path d="M1371.30001,44.6203346 L1371.30001,46.901597 C1371.30001,46.901597 1373.33564,46.8971501 1374.16709,46.8971501 C1373.71655,48.3735226 1373.02026,49.1784125 1371.30001,49.1784125 C1369.55928,49.1784125 1368.20356,47.6486771 1368.20356,45.7587423 C1368.20356,43.8688076 1369.56338,42.3390722 1371.30001,42.3390722 C1372.22157,42.3390722 1372.81547,42.6903777 1373.36021,43.1795373 C1373.79847,42.7037184 1373.76161,42.6370148 1374.87158,41.4986071 C1373.92953,40.5692039 1372.67621,40 1371.3041,40 C1368.37558,40 1366,42.5792051 1366,45.7587423 C1366,48.9382796 1368.37558,51.5174846 1371.3041,51.5174846 C1375.68255,51.5174846 1376.75156,47.3774158 1376.39523,44.6203346 C1375.35898,44.6203346 1371.30001,44.6203346 1371.30001,44.6203346 Z" id="XMLID_31_"></path>
        </g>
    </g>
</svg>