<?xml version="1.0" encoding="UTF-8"?>
<svg width="6px" height="12px" viewBox="0 0 6 12" version="1.1" xmlns="http://www.w3.org/2000/svg" xmlns:xlink="http://www.w3.org/1999/xlink">
    <!-- Generator: Sketch 50 (54983) - http://www.bohemiancoding.com/sketch -->
    <title>Shape</title>
    <desc>Created with Sketch.</desc>
    <defs></defs>
    <g id="Views" stroke="none" stroke-width="1" fill="none" fill-rule="evenodd">
        <g id="Home-(not-logged-in)-1" transform="translate(-1332.000000, -40.000000)" fill="#FFFFFF" fill-rule="nonzero">
            <path d="M1338,40.0859135 L1337.94331,42.2500764 C1337.94331,42.2500764 1337.69526,42.2388173 1336.82449,42.2500764 C1335.96897,42.2613811 1335.95883,42.9722997 1335.95883,43.0061682 L1335.94869,44.8060741 L1337.94331,44.8455493 L1337.65473,47.1476476 L1335.95883,47.1476476 L1335.91327,52 L1333.8579,52 L1333.80224,47.1589067 L1332,47.1476476 L1332.05063,44.8060741 L1333.82249,44.8060741 C1333.82249,44.8060741 1333.82249,43.113745 1333.82249,43.1133803 C1333.82249,42.4511447 1333.96453,41.7325225 1334.30313,41.1801429 C1334.60181,40.692902 1335.05341,40.3714023 1335.557,40.2068463 C1335.557,40.2068463 1336.61313,39.837484 1338,40.0859135 Z" id="Shape"></path>
        </g>
    </g>
</svg>