<svg width="18" height="18" viewBox="0 0 18 18" fill="none" xmlns="http://www.w3.org/2000/svg">
<path fill-rule="evenodd" clip-rule="evenodd" d="M0 1.6C0 0.716346 0.716345 0 1.6 0H8.8C9.68365 0 10.4 0.716345 10.4 1.6V8.8C10.4 9.68365 9.68366 10.4 8.8 10.4H1.6C0.716346 10.4 0 9.68366 0 8.8V1.6Z" transform="translate(6.59961 6.59998)" stroke="#9BAABF" stroke-width="1.6" stroke-linecap="round" stroke-linejoin="round"/>
<path d="M2.4 10.4H1.6C0.716344 10.4 0 9.68366 0 8.8V1.6C0 0.716344 0.716344 0 1.6 0H8.8C9.68366 0 10.4 0.716344 10.4 1.6V2.4" transform="translate(1 1)" stroke="#9BAABF" stroke-width="1.6" stroke-linecap="round" stroke-linejoin="round"/>
</svg>
