<svg width="15" height="17" viewBox="0 0 15 17" fill="none" xmlns="http://www.w3.org/2000/svg">
<path fill-rule="evenodd" clip-rule="evenodd" d="M5.05176 15C4.9502 15 4.85254 14.9556 4.77637 14.875C4.76172 14.8599 4.74902 14.8438 4.7373 14.8267C4.72168 14.8042 4.70801 14.7808 4.69727 14.7563C4.67285 14.7031 4.66016 14.645 4.66016 14.5879C4.66016 14.3638 4.83887 14.1826 5.06836 14.1768C5.25586 14.1714 5.44336 14.168 5.63086 14.168L5.86523 14.1665C5.94238 14.1665 6.01953 14.168 6.0957 14.1743L6.21289 14.1846V13.7168C6.21387 13.4043 6.21777 13.0923 6.22461 12.7783C6.22559 12.7407 6.23828 12.7012 6.25195 12.6602L6.28613 12.5527L6.17871 12.5225C5.8125 12.417 5.45215 12.2559 5.10449 12.0996L5.01953 12.062C4.76758 11.9502 4.55566 11.8335 4.37012 11.7061L4.19629 11.5859L4.06738 11.4927L3.72363 11.2402C3.46484 11.0498 3.21582 10.8569 3.02051 10.5898C2.8877 10.4097 2.78223 10.2021 2.68164 10.0005L2.58398 9.80908C2.46875 9.58447 2.35059 9.35254 2.25879 9.11621C2.20605 8.979 2.16113 8.84131 2.12305 8.69971C2.08789 8.56836 2.07031 8.43018 2.05371 8.29443L2.04688 8.23975C2.01367 7.98096 1.99414 7.72021 1.97461 7.45996L1.97168 7.41016L1.94922 7.09668L1.91602 6.72803L1.87598 6.46924C1.8584 6.35986 1.85938 6.27881 1.87891 6.20654L1.90527 6.1123L1.81543 6.07715L1.67676 6.02002L1.42383 5.9126C1.32617 5.87012 0.962891 5.70264 0.962891 5.70264C0.827148 5.64062 0.703125 5.56299 0.577148 5.48486L0.483398 5.42725C0.342773 5.34277 0.240234 5.26465 0.160156 5.1792C-0.00878906 5.00586 -0.0488281 4.74463 0.0625 4.54346C0.132812 4.41357 0.262695 4.30029 0.376953 4.2002C0.533203 4.06445 0.700195 3.93652 0.870117 3.81299C1 3.71826 1.13184 3.62598 1.26172 3.53564L1.36328 3.46484C1.71973 3.21484 2.08789 2.97314 2.45801 2.74512C2.47559 2.73389 2.49512 2.72461 2.51562 2.7168C2.53418 2.70947 2.55469 2.70361 2.57715 2.69873L2.63477 2.68604L2.67871 2.5542C2.91797 2.03174 3.22852 1.43945 3.72266 1.00586C3.89648 0.853516 4.10059 0.681641 4.31934 0.57666C4.48145 0.499512 4.64453 0.424805 4.8125 0.361816C5.14746 0.235352 5.40918 0.154297 5.66406 0.0976562C5.78125 0.0712891 5.89648 0.050293 6.00781 0.034668C6.17383 0.0112305 6.33398 0 6.4873 0C6.76172 0 7.02051 0.0380859 7.25488 0.112793C7.37109 0.149414 7.48242 0.19043 7.58984 0.23584C7.75 0.303711 7.89941 0.380859 8.03809 0.466797C8.15332 0.539062 8.26562 0.615723 8.37598 0.696777L8.55859 0.831543C8.64453 0.897949 8.71777 0.960938 8.77832 1.03027C8.90625 1.17578 9.02051 1.33203 9.12109 1.49707C9.20117 1.62793 9.27246 1.76465 9.33398 1.90625C9.44629 2.16016 9.55371 2.41895 9.64941 2.67773C9.68652 2.77832 9.72754 2.89551 9.7666 3.02344C9.80469 3.14893 9.84082 3.28418 9.86816 3.42334C9.91309 3.65381 9.94434 3.8877 9.97363 4.12012L9.99023 4.24268L10.0811 4.98926L10.1445 5.51416C10.1992 5.86719 10.2529 6.13428 10.3184 6.38428C10.3818 6.62842 10.4453 6.86719 10.5352 7.10205C10.6055 7.25049 10.6973 7.43408 10.8154 7.60791C10.8945 7.70264 10.9707 7.78271 11.0566 7.85889L11.1719 7.94141C11.2344 7.98535 11.2969 8.0293 11.3574 8.07666C11.4268 8.12793 11.4658 8.15674 11.501 8.18994L11.5771 8.29346C11.624 8.3623 11.6416 8.50391 11.6143 8.59717C11.6035 8.6333 11.5889 8.66797 11.5693 8.70312C11.5488 8.7417 11.5225 8.78076 11.4893 8.82178L11.4111 8.91943L11.5186 8.9834L11.7314 9.10986C11.8086 9.1543 11.8857 9.19775 11.9648 9.23877L12.0625 9.28809C12.1221 9.31055 12.1797 9.33105 12.2373 9.34912C12.3037 9.36963 12.3682 9.38672 12.4355 9.40039C12.5596 9.42578 12.6543 9.44531 12.75 9.48926C12.8594 9.53857 12.9551 9.65234 12.9834 9.76562C13.0186 9.91016 12.9941 10.0605 12.9443 10.1997C12.8779 10.3833 12.7646 10.5479 12.6797 10.6548C12.5508 10.8179 12.3877 10.9766 12.1514 11.1719C11.9209 11.3604 11.6699 11.5566 11.3896 11.7134C11.2471 11.7925 11.1025 11.8652 10.957 11.936L10.6797 12.0674L10.5078 12.1479C10.2969 12.2466 10.085 12.3467 9.86621 12.4277C9.67773 12.4985 9.48145 12.5498 9.28418 12.5874C8.93164 12.6553 8.5752 12.6792 8.25195 12.6914L8.16016 12.6958C7.97168 12.7041 7.7832 12.7119 7.59473 12.7119L7.45605 12.7104C7.36328 12.708 7.27148 12.6992 7.17969 12.6909L7.14453 12.688L7.03125 12.6768L7.00879 12.79L7.00293 12.9663C6.99512 13.2002 6.98633 13.4331 6.98438 13.666C6.98242 13.9043 6.97949 14.1211 7.00098 14.3325L7.02148 14.4946C7.03125 14.583 6.96973 14.7002 6.90625 14.7651C6.83301 14.8394 6.73145 14.8818 6.62793 14.8818L6.49609 14.8516L6.40918 14.9321C6.35059 14.9663 6.29102 14.9829 6.21973 14.9829C6.1875 14.9829 6.1543 14.979 6.11914 14.9731L6.01758 14.9707C5.92383 14.9707 5.8291 14.9741 5.73535 14.978L5.05176 15ZM3.08008 3.22656L3.05957 3.27979C3.04102 3.32666 3.01758 3.36768 2.99023 3.40234C2.96094 3.44092 2.92676 3.47217 2.8877 3.49609C2.32324 3.84131 1.72559 4.21289 1.17383 4.63672L0.981445 4.79492L1.12012 4.87256C1.29004 4.96777 1.46777 5.05127 1.64746 5.12939L1.94043 5.25586C2.14355 5.33789 2.31152 5.39111 2.47949 5.44434L2.49707 5.4502C2.71582 5.51953 2.8418 5.7417 2.7832 5.95605C2.77344 5.9917 2.75098 6.02686 2.72754 6.06396L2.69727 6.11035L2.71777 6.1626C2.78809 6.56738 2.8252 6.91699 2.84668 7.27393L2.87402 7.67432C2.88379 7.80273 2.89551 7.93066 2.91016 8.05859C2.92871 8.18994 2.94727 8.31934 2.98242 8.44287C3.01953 8.5708 3.06152 8.69434 3.1084 8.81592C3.20605 9.02002 3.30762 9.21387 3.4082 9.40723L3.48047 9.54541L3.49512 9.57178C3.58301 9.73828 3.6709 9.90479 3.77441 10.061C3.88184 10.1836 3.99414 10.2886 4.14746 10.4141C4.43457 10.6333 4.70605 10.8408 4.99121 11.0181C5.10059 11.0864 5.21484 11.1479 5.33008 11.2056C5.47754 11.2788 5.62793 11.3452 5.77441 11.4106C6.0625 11.5312 6.28027 11.6099 6.48926 11.6699C6.62402 11.7085 6.76074 11.7378 6.88672 11.7607L7.12402 11.8013C7.2373 11.8105 7.34863 11.8174 7.45898 11.8218C7.58789 11.8271 7.7168 11.8296 7.8457 11.8296C7.99219 11.8296 8.14062 11.8262 8.28906 11.8188C8.40918 11.8135 8.53027 11.8057 8.65039 11.7954L8.8877 11.7729C9.05176 11.7466 9.20996 11.7183 9.36719 11.6807C9.56055 11.6372 9.74023 11.564 9.90039 11.499L10.0312 11.4424C10.292 11.3301 10.5713 11.2012 10.8486 11.0483C11.0771 10.9229 11.3047 10.7812 11.5205 10.6182C11.6045 10.5508 11.6885 10.4829 11.7695 10.4131C11.8398 10.3525 11.9092 10.2905 11.9746 10.2256L12.0996 10.103L11.9355 10.0454C11.8252 10.0063 11.7158 9.96191 11.6094 9.91016C11.4414 9.83057 11.2803 9.73975 11.1182 9.64941L10.9883 9.57666C10.9277 9.54248 10.875 9.49609 10.8223 9.44971L10.7842 9.41504L10.7197 9.46875L10.6709 9.50732L10.5996 9.56396L10.5068 9.63379C10.0205 9.98633 9.52344 10.2158 9.03223 10.314C8.76074 10.3691 8.47168 10.3975 8.15332 10.3994C8.02441 10.3994 7.89551 10.395 7.76758 10.3848C7.61328 10.3716 7.46289 10.3564 7.32422 10.3203C7.0459 10.2451 6.7666 10.123 6.50488 10.0044C6.29883 9.91211 6.09473 9.81299 5.89355 9.71143C5.6084 9.56689 5.34082 9.35059 5.10742 9.07959C4.93945 8.88428 4.78906 8.66064 4.66211 8.41504C4.54395 8.18408 4.61133 7.91699 4.82031 7.79248C4.84082 7.78027 4.8623 7.77002 4.88477 7.76172L4.93652 7.74609L5 7.73584L5.04395 7.73389C5.13086 7.73389 5.21094 7.75586 5.27832 7.79492C5.34277 7.83252 5.39453 7.88525 5.42773 7.9502C5.5 8.09277 5.57812 8.229 5.66992 8.35986L5.78711 8.49512C5.875 8.59473 5.96777 8.69141 6.07031 8.78027C6.25 8.90625 6.43555 9.00098 6.61621 9.09375C6.74609 9.16016 6.86816 9.2207 6.9873 9.27734L7.2959 9.41992C7.38672 9.45801 7.47656 9.49365 7.56738 9.51562L7.72559 9.55127L7.8457 9.57324C8.02148 9.58984 8.18848 9.59863 8.35547 9.59863C8.42773 9.59863 8.5 9.59717 8.57227 9.59375L8.7627 9.58057C9.03125 9.53516 9.2666 9.47363 9.48926 9.39062C9.87305 9.22119 10.1807 8.99561 10.4648 8.77539L10.7129 8.58545L10.5137 8.43652C10.3604 8.31689 10.2217 8.16406 10.0977 7.98047C10.0225 7.86865 9.95312 7.74951 9.88965 7.62158C9.77734 7.396 9.68359 7.14404 9.60547 6.85986C9.56445 6.70947 9.52637 6.55322 9.49121 6.38672C9.44824 6.18457 9.40918 5.96729 9.37207 5.72656C9.33301 5.46729 9.30371 5.20557 9.27539 4.94482L9.22949 4.54932L9.20996 4.40186L9.20703 4.38721V4.37842C9.16602 4.06396 9.12305 3.73926 9.04492 3.42383C9.01172 3.28369 8.96875 3.146 8.9209 3.00977C8.85449 2.82422 8.7793 2.64209 8.70508 2.46387C8.5752 2.16211 8.44629 1.92432 8.29785 1.71387C8.21289 1.61426 8.12891 1.53271 8.03809 1.45459C7.88965 1.34473 7.74023 1.24658 7.58496 1.15723C7.49609 1.10645 7.40625 1.05859 7.31348 1.0127C7.13086 0.942383 6.95996 0.89209 6.78223 0.85498C6.71875 0.848145 6.65918 0.842773 6.60059 0.839844L6.49805 0.837402C6.38477 0.837891 6.28809 0.847168 6.19043 0.857422C5.96582 0.891113 5.73145 0.933105 5.50586 1.01025C5.30273 1.0791 5.10352 1.15576 4.90625 1.23682C4.80957 1.28369 4.72461 1.32812 4.64746 1.37305C4.58496 1.40918 4.52734 1.4458 4.47168 1.48438C4.30273 1.62695 4.1582 1.76611 4.02344 1.91797C3.9209 2.06055 3.81152 2.2207 3.72266 2.39258C3.61523 2.59961 3.5166 2.80811 3.42188 3.02002C3.38184 3.11035 3.26074 3.18701 3.15918 3.21094L3.08008 3.22656ZM5.08496 2.87842C5.08496 3.07471 5.24805 3.23975 5.44141 3.23975C5.58887 3.23975 5.71777 3.14453 5.77148 3.0127C5.78809 2.97119 5.79785 2.92578 5.79785 2.87891C5.79785 2.68311 5.63477 2.51807 5.44141 2.51807C5.24805 2.51807 5.08496 2.68262 5.08496 2.87842Z" transform="translate(1 1)" fill="white" stroke="white" stroke-width="0.525"/>
</svg>
