<svg width="12" height="9" viewBox="0 0 12 9" version="1.1" xmlns="http://www.w3.org/2000/svg" xmlns:xlink="http://www.w3.org/1999/xlink">
<title>Group</title>
<desc>Created using Figma</desc>
<g id="Canvas" transform="translate(-3702 -24817)">
<g id="Group">
<g id="Rectangle 9">
<use xlink:href="#path0_fill" transform="translate(3707.25 24819.5)" fill="#6B7C93"/>
</g>
<g id="Rectangle 9">
<use xlink:href="#path1_fill" transform="translate(3707 24821.5)" fill="#6A7C94"/>
<mask id="mask0_outline_ins">
<use xlink:href="#path1_fill" fill="white" transform="translate(3707 24821.5)"/>
</mask>
<g mask="url(#mask0_outline_ins)">
<use xlink:href="#path2_stroke_2x" transform="translate(3707 24821.5)" fill="#6A7C94"/>
</g>
</g>
<g id="Rectangle 9">
<mask id="mask1_outline_ins">
<use xlink:href="#path3_fill" fill="white" transform="translate(3702 24817.5)"/>
</mask>
<g mask="url(#mask1_outline_ins)">
<use xlink:href="#path4_stroke_2x" transform="translate(3702 24817.5)" fill="#6A7C94"/>
</g>
</g>
</g>
</g>
<defs>
<path id="path0_fill" fill-rule="evenodd" d="M 0 0.75C 0 0.335786 0.335786 0 0.75 0L 0.75 0C 1.16421 0 1.5 0.335786 1.5 0.75L 1.5 0.75C 1.5 1.16421 1.16421 1.5 0.75 1.5L 0.75 1.5C 0.335786 1.5 0 1.16421 0 0.75L 0 0.75Z"/>
<path id="path1_fill" fill-rule="evenodd" d="M 0 0.5C 0 0.223858 0.223858 0 0.5 0L 1.5 0C 1.77614 0 2 0.223858 2 0.5L 2 1.5C 2 1.77614 1.77614 2 1.5 2L 0.5 2C 0.223858 2 0 1.77614 0 1.5L 0 0.5Z"/>
<path id="path2_stroke_2x" d="M 0.5 1L 1.5 1L 1.5 -1L 0.5 -1L 0.5 1ZM 1 0.5L 1 1.5L 3 1.5L 3 0.5L 1 0.5ZM 1.5 1L 0.5 1L 0.5 3L 1.5 3L 1.5 1ZM 1 1.5L 1 0.5L -1 0.5L -1 1.5L 1 1.5ZM 0.5 1C 0.776142 1 1 1.22386 1 1.5L -1 1.5C -1 2.32843 -0.328427 3 0.5 3L 0.5 1ZM 1 1.5C 1 1.22386 1.22386 1 1.5 1L 1.5 3C 2.32843 3 3 2.32843 3 1.5L 1 1.5ZM 1.5 1C 1.22386 1 1 0.776142 1 0.5L 3 0.5C 3 -0.328427 2.32843 -1 1.5 -1L 1.5 1ZM 0.5 -1C -0.328427 -1 -1 -0.328427 -1 0.5L 1 0.5C 1 0.776142 0.776142 1 0.5 1L 0.5 -1Z"/>
<path id="path3_fill" fill-rule="evenodd" d="M 0 2C 0 0.895431 0.895431 0 2 0L 10 0C 11.1046 0 12 0.895431 12 2L 12 6C 12 7.10457 11.1046 8 10 8L 2 8C 0.895431 8 0 7.10457 0 6L 0 2Z"/>
<path id="path4_stroke_2x" d="M 2 1L 10 1L 10 -1L 2 -1L 2 1ZM 11 2L 11 6L 13 6L 13 2L 11 2ZM 10 7L 2 7L 2 9L 10 9L 10 7ZM 1 6L 1 2L -1 2L -1 6L 1 6ZM 2 7C 1.44772 7 1 6.55228 1 6L -1 6C -1 7.65685 0.343146 9 2 9L 2 7ZM 11 6C 11 6.55228 10.5523 7 10 7L 10 9C 11.6569 9 13 7.65685 13 6L 11 6ZM 10 1C 10.5523 1 11 1.44772 11 2L 13 2C 13 0.343146 11.6569 -1 10 -1L 10 1ZM 2 -1C 0.343146 -1 -1 0.343146 -1 2L 1 2C 1 1.44772 1.44772 1 2 1L 2 -1Z"/>
</defs>
</svg>
