<svg width="12" height="9" viewBox="0 0 12 9" version="1.1" xmlns="http://www.w3.org/2000/svg" xmlns:xlink="http://www.w3.org/1999/xlink">
<title>Group 9</title>
<desc>Created using Figma</desc>
<g id="Canvas" transform="translate(-3921 -24817)">
<g id="Group 9">
<g id="Rectangle 9">
<mask id="mask0_outline_ins">
<use xlink:href="#path0_fill" fill="white" transform="translate(3925 24819.5)"/>
</mask>
<g mask="url(#mask0_outline_ins)">
<use xlink:href="#path1_stroke_2x" transform="translate(3925 24819.5)" fill="#9BAABF"/>
</g>
</g>
<g id="Rectangle 9">
<mask id="mask1_outline_ins">
<use xlink:href="#path2_fill" fill="white" transform="translate(3921 24820.5)"/>
</mask>
<g mask="url(#mask1_outline_ins)">
<use xlink:href="#path3_stroke_2x" transform="translate(3921 24820.5)" fill="#6A7C94"/>
</g>
</g>
<g id="Rectangle 9">
<mask id="mask2_outline_ins">
<use xlink:href="#path4_fill" fill="white" transform="matrix(6.12323e-17 1 -1 6.12323e-17 3925 24817.5)"/>
</mask>
<g mask="url(#mask2_outline_ins)">
<use xlink:href="#path5_stroke_2x" transform="matrix(6.12323e-17 1 -1 6.12323e-17 3925 24817.5)" fill="#6A7C94"/>
</g>
</g>
<g id="Rectangle 9">
<mask id="mask3_outline_ins">
<use xlink:href="#path2_fill" fill="white" transform="translate(3928 24820.5)"/>
</mask>
<g mask="url(#mask3_outline_ins)">
<use xlink:href="#path3_stroke_2x" transform="translate(3928 24820.5)" fill="#6A7C94"/>
</g>
</g>
<g id="Rectangle 9">
<mask id="mask4_outline_ins">
<use xlink:href="#path4_fill" fill="white" transform="matrix(6.12323e-17 1 -1 6.12323e-17 3932 24817.5)"/>
</mask>
<g mask="url(#mask4_outline_ins)">
<use xlink:href="#path5_stroke_2x" transform="matrix(6.12323e-17 1 -1 6.12323e-17 3932 24817.5)" fill="#6A7C94"/>
</g>
</g>
<g id="Rectangle 9">
<mask id="mask5_outline_ins">
<use xlink:href="#path6_fill" fill="white" transform="matrix(6.12323e-17 1 -1 6.12323e-17 3928 24817.5)"/>
</mask>
<g mask="url(#mask5_outline_ins)">
<use xlink:href="#path7_stroke_2x" transform="matrix(6.12323e-17 1 -1 6.12323e-17 3928 24817.5)" fill="#9BAABF"/>
</g>
</g>
<g id="Rectangle 9">
<use xlink:href="#path8_fill" transform="matrix(6.12323e-17 1 -1 6.12323e-17 3927.35 24818.2)" fill="#FFFFFF"/>
</g>
</g>
</g>
<defs>
<path id="path0_fill" fill-rule="evenodd" d="M 0 1C 0 0.447715 0.447715 0 1 0L 3 0C 3.55228 0 4 0.447715 4 1L 4 3C 4 3.55228 3.55228 4 3 4L 1 4C 0.447715 4 0 3.55228 0 3L 0 1Z"/>
<path id="path1_stroke_2x" d="M 1 0.7L 3 0.7L 3 -0.7L 1 -0.7L 1 0.7ZM 3.3 1L 3.3 3L 4.7 3L 4.7 1L 3.3 1ZM 3 3.3L 1 3.3L 1 4.7L 3 4.7L 3 3.3ZM 0.7 3L 0.7 1L -0.7 1L -0.7 3L 0.7 3ZM 1 3.3C 0.834315 3.3 0.7 3.16569 0.7 3L -0.7 3C -0.7 3.93888 0.0611159 4.7 1 4.7L 1 3.3ZM 3.3 3C 3.3 3.16569 3.16569 3.3 3 3.3L 3 4.7C 3.93888 4.7 4.7 3.93888 4.7 3L 3.3 3ZM 3 0.7C 3.16569 0.7 3.3 0.834315 3.3 1L 4.7 1C 4.7 0.0611159 3.93888 -0.7 3 -0.7L 3 0.7ZM 1 -0.7C 0.0611159 -0.7 -0.7 0.0611159 -0.7 1L 0.7 1C 0.7 0.834315 0.834315 0.7 1 0.7L 1 -0.7Z"/>
<path id="path2_fill" fill-rule="evenodd" d="M 0 1C 0 0.447715 0.447715 0 1 0L 4 0C 4.55228 0 5 0.447715 5 1L 5 4C 5 4.55228 4.55228 5 4 5L 1 5C 0.447715 5 0 4.55228 0 4L 0 1Z"/>
<path id="path3_stroke_2x" d="M 1 1L 4 1L 4 -1L 1 -1L 1 1ZM 4 1L 4 4L 6 4L 6 1L 4 1ZM 4 4L 1 4L 1 6L 4 6L 4 4ZM 1 4L 1 1L -1 1L -1 4L 1 4ZM 1 4L 1 4L -1 4C -1 5.10457 -0.10457 6 1 6L 1 4ZM 4 4L 4 4L 4 6C 5.10457 6 6 5.10457 6 4L 4 4ZM 4 1L 4 1L 6 1C 6 -0.104569 5.10457 -1 4 -1L 4 1ZM 1 -1C -0.104569 -1 -1 -0.10457 -1 1L 1 1L 1 1L 1 -1Z"/>
<path id="path4_fill" fill-rule="evenodd" d="M 0 1.5C 0 0.671573 0.671573 0 1.5 0L 1.5 0C 2.32843 0 3 0.671573 3 1.5L 3 1.5C 3 2.32843 2.32843 3 1.5 3L 1.5 3C 0.671573 3 0 2.32843 0 1.5L 0 1.5Z"/>
<path id="path5_stroke_2x" d="M 1.5 2C 1.22386 2 1 1.77614 1 1.5L -1 1.5C -1 2.88071 0.119288 4 1.5 4L 1.5 2ZM 2 1.5C 2 1.77614 1.77614 2 1.5 2L 1.5 4C 2.88071 4 4 2.88071 4 1.5L 2 1.5ZM 1.5 1C 1.77614 1 2 1.22386 2 1.5L 4 1.5C 4 0.119288 2.88071 -1 1.5 -1L 1.5 1ZM 1.5 -1C 0.119288 -1 -1 0.119288 -1 1.5L 1 1.5C 1 1.22386 1.22386 1 1.5 1L 1.5 -1Z"/>
<path id="path6_fill" fill-rule="evenodd" d="M 0 1C 0 0.447715 0.447715 0 1 0L 1 0C 1.55228 0 2 0.447715 2 1L 2 1C 2 1.55228 1.55228 2 1 2L 1 2C 0.447715 2 0 1.55228 0 1L 0 1Z"/>
<path id="path7_stroke_2x" d="M 1 1L -1 1C -1 2.10457 -0.104569 3 1 3L 1 1ZM 1 1L 1 3C 2.10457 3 3 2.10457 3 1L 1 1ZM 1 1L 3 1C 3 -0.104569 2.10457 -1 1 -1L 1 1ZM 1 -1C -0.104569 -1 -1 -0.104569 -1 1L 1 1L 1 -1Z"/>
<path id="path8_fill" fill-rule="evenodd" d="M 0 0.35C 0 0.1567 0.1567 0 0.35 0L 0.35 0C 0.5433 0 0.7 0.1567 0.7 0.35L 0.7 0.35C 0.7 0.5433 0.5433 0.7 0.35 0.7L 0.35 0.7C 0.1567 0.7 0 0.5433 0 0.35L 0 0.35Z"/>
</defs>
</svg>
