<svg width="12" height="9" viewBox="0 0 12 9" version="1.1" xmlns="http://www.w3.org/2000/svg" xmlns:xlink="http://www.w3.org/1999/xlink">
<title>Group 6</title>
<desc>Created using Figma</desc>
<g id="Canvas" transform="translate(-3590 -24817)">
<g id="Group 6">
<g id="Line 2">
<use xlink:href="#path0_stroke" transform="translate(3591 24819.5)" fill="#6A7C94"/>
</g>
<g id="Line 2">
<use xlink:href="#path0_stroke" transform="translate(3591 24821.5)" fill="#6A7C94"/>
</g>
<g id="Line 2">
<use xlink:href="#path1_stroke" transform="translate(3593 24818.5)" fill="#6A7C94"/>
</g>
<g id="Rectangle 9">
<mask id="mask0_outline_ins">
<use xlink:href="#path2_fill" fill="white" transform="translate(3590 24817.5)"/>
</mask>
<g mask="url(#mask0_outline_ins)">
<use xlink:href="#path3_stroke_2x" transform="translate(3590 24817.5)" fill="#6A7C94"/>
</g>
</g>
</g>
</g>
<defs>
<path id="path0_stroke" d="M 0 0.5L -0.5 0.5L -0.5 1.5L 0 1.5L 0 0.5ZM 10 1.5L 10.5 1.5L 10.5 0.5L 10 0.5L 10 1.5ZM 0 1.5L 10 1.5L 10 0.5L 0 0.5L 0 1.5Z"/>
<path id="path1_stroke" d="M 1.5 0L 1.5 -0.5L 0.5 -0.5L 0.5 0L 1.5 0ZM 0.5 6L 0.5 6.5L 1.5 6.5L 1.5 6L 0.5 6ZM 0.5 0L 0.5 6L 1.5 6L 1.5 0L 0.5 0Z"/>
<path id="path2_fill" fill-rule="evenodd" d="M 0 2C 0 0.895431 0.895431 0 2 0L 10 0C 11.1046 0 12 0.895431 12 2L 12 6C 12 7.10457 11.1046 8 10 8L 2 8C 0.895431 8 0 7.10457 0 6L 0 2Z"/>
<path id="path3_stroke_2x" d="M 2 1L 10 1L 10 -1L 2 -1L 2 1ZM 11 2L 11 6L 13 6L 13 2L 11 2ZM 10 7L 2 7L 2 9L 10 9L 10 7ZM 1 6L 1 2L -1 2L -1 6L 1 6ZM 2 7C 1.44772 7 1 6.55228 1 6L -1 6C -1 7.65685 0.343146 9 2 9L 2 7ZM 11 6C 11 6.55228 10.5523 7 10 7L 10 9C 11.6569 9 13 7.65685 13 6L 11 6ZM 10 1C 10.5523 1 11 1.44772 11 2L 13 2C 13 0.343146 11.6569 -1 10 -1L 10 1ZM 2 -1C 0.343146 -1 -1 0.343146 -1 2L 1 2C 1 1.44772 1.44772 1 2 1L 2 -1Z"/>
</defs>
</svg>
