<svg width="18" height="11" viewBox="0 0 18 11" version="1.1" xmlns="http://www.w3.org/2000/svg" xmlns:xlink="http://www.w3.org/1999/xlink">
<title>bandcamp</title>
<desc>Created using Figma</desc>
<g id="Canvas" transform="translate(-5602 -36838)">
<g id="bandcamp">
<g id="Symbol">
<g id="Group">
<g id="Shape">
<use xlink:href="#path0_fill" transform="translate(5602.27 36838.1)" fill="#FFFFFF"/>
</g>
<g id="Shape">
<use xlink:href="#path1_fill" transform="translate(5606.95 36844.3)" fill="#FFFFFF"/>
</g>
</g>
</g>
</g>
</g>
<defs>
<path id="path0_fill" fill-rule="evenodd" d="M 5.59814 0L 3.48535 3.86328L 0 10.0234L 11.7832 10.0234L 17.3813 0L 5.59814 0ZM 3.48535 3.86328L 3.48096 10.0156L 4.41113 10.0156L 4.41113 9.35156L 4.52441 9.48047L 4.63086 9.58984C 4.69434 9.64844 4.76123 9.70312 4.83545 9.75C 5.15576 9.95312 5.5127 10.0078 5.87354 10.0156C 6.5918 10.0352 7.18311 9.78516 7.53076 9.14062C 8.02734 8.22266 8.03174 7.28125 7.55322 6.35156C 6.9707 5.23047 5.21924 5.05469 4.49658 6.04688L 4.44238 6.07031L 4.44727 3.86328L 3.48535 3.86328ZM 11.7861 9.625C 12.106 9.37891 12.3296 9.01953 12.4556 8.55078C 12.4692 8.50391 12.5054 8.30469 12.5098 8.25L 11.729 8.25C 11.6973 8.39062 11.6475 8.53125 11.5801 8.66797C 11.3721 9.08203 11.0244 9.30859 10.5371 9.31641C 10.063 9.32422 9.70654 9.13281 9.46729 8.74609C 9.26855 8.42578 9.20996 8.07422 9.20996 7.82812C 9.20996 7.38281 9.25928 7.0625 9.42188 6.76562C 9.83301 6.01172 10.9209 5.94141 11.4399 6.62891C 11.4912 6.69531 11.5352 6.76562 11.5728 6.83984L 11.6475 7.00391L 12.5054 7.00391C 12.5054 6.9375 12.4736 6.72266 12.4648 6.67969C 12.3477 6.25391 12.1035 5.92578 11.7246 5.70312C 11.4756 5.55469 11.2104 5.47266 10.9351 5.43359C 10.771 5.41016 10.603 5.40234 10.4331 5.40625C 9.47607 5.42578 8.75391 5.92578 8.46484 6.79688C 8.25732 7.42188 8.24805 8.05078 8.46484 8.67969C 8.66357 9.25 9.04248 9.65234 9.60693 9.86719C 9.97705 10.0078 10.3564 10.043 10.7446 10.0039C 11.1626 9.96094 11.5103 9.83594 11.7861 9.625Z"/>
<path id="path1_fill" d="M 2.09029 0.476836C 1.60722 -0.213909 0.582393 -0.141675 0.198646 0.612276C 0.0451467 0.910244 0 1.23079 0 1.67322C 0 1.92153 0.0541761 2.27367 0.239278 2.59422C 0.460497 2.97796 0.799097 3.17209 1.24153 3.16307C 1.69752 3.15404 2.02709 2.9283 2.2167 2.51295C 2.41083 2.0976 2.43792 1.65968 2.37472 1.21724C 2.33409 0.946361 2.24379 0.698054 2.09029 0.476836Z"/>
</defs>
</svg>
