<svg width="14" height="14" viewBox="0 0 14 14" version="1.1" xmlns="http://www.w3.org/2000/svg" xmlns:xlink="http://www.w3.org/1999/xlink">
<title>Shape</title>
<desc>Created using Figma</desc>
<g id="Canvas" transform="translate(-3180 -16534)">
<g id="Shape">
<use xlink:href="#path0_fill" transform="translate(3180.95 16534.1)" fill="#FFFFFF"/>
</g>
</g>
<defs>
<path id="path0_fill" fill-rule="evenodd" d="M 1.50513 0C 0.595215 0 0 0.648438 0 1.5C 0 2.33398 0.577881 3.00195 1.46973 3.00195L 1.48755 3.00195C 2.41504 3.00195 2.99194 2.33398 2.99194 1.5C 2.98169 1.00195 2.78613 0.574219 2.44336 0.302734C 2.29614 0.1875 2.12183 0.101562 1.92334 0.0507812C 1.79395 0.0175781 1.6543 0 1.50513 0ZM 12.4055 7.89062L 12.4055 12.8711L 9.74658 12.8711L 9.74658 8.22461C 9.74658 7.77148 9.68872 7.375 9.56177 7.05859C 9.36133 6.55859 8.98877 6.26172 8.39966 6.26172C 7.66504 6.26172 7.22778 6.79688 7.0354 7.31641C 6.96533 7.50195 6.94727 7.76172 6.94727 8.02148L 6.94727 12.8711L 4.28735 12.8711C 4.28735 12.8711 4.32324 5.00195 4.28735 4.18555L 6.94678 4.18555L 6.94678 5.41797C 7.12061 5.12695 7.36206 4.77344 7.73096 4.49023C 8.11108 4.19922 8.62671 3.98242 9.34375 3.98242C 11.0935 3.98242 12.4055 5.22461 12.4055 7.89062ZM 2.81665 12.8691L 0.157959 12.8691L 0.157959 4.18555L 2.81665 4.18555L 2.81665 12.8691Z"/>
</defs>
</svg>
